<?xml version="1.0" encoding="utf-8"?>
<!-- Generator: Adobe Illustrator 16.0.0, SVG Export Plug-In . SVG Version: 6.00 Build 0)  -->
<!DOCTYPE svg PUBLIC "-//W3C//DTD SVG 1.1//EN" "http://www.w3.org/Graphics/SVG/1.1/DTD/svg11.dtd">
<svg version="1.1" id="Calque_1" xmlns="http://www.w3.org/2000/svg" xmlns:xlink="http://www.w3.org/1999/xlink" x="0px" y="0px"
	 width="70.047px" height="59.938px" viewBox="-7 0 70.047 59.938" enable-background="new -7 0 70.047 59.938"
	 xml:space="preserve">
<g>
	<path fill="#86C440" d="M54.282,42.337H2.564c-0.574,0-1.181-0.291-1.242-1.135v-0.773l5.661-10.461c0.305-0.613,0.93-1,1.614-1
		h39.576c0.738,0,2.367,1.453,2.697,2.115l4.67,9.521v0.341C55.552,41.937,54.912,42.337,54.282,42.337z"/>
	<path fill="#3C3241" d="M54.287,41.242H2.569c-0.574,0-1.52-0.505-1.164-1.123l5.583-11.247c0.305-0.613,0.93-1,1.615-1H48.18
		c0.737,0,1.411,0.417,1.742,1.078l5.526,11.06C55.836,40.716,54.916,41.242,54.287,41.242z"/>
	<rect x="6.979" fill="#3C3241" width="42.352" height="26.762"/>
	<path fill="#86C440" d="M35.923,40.755H20.686c-0.169,0-0.298-0.151-0.271-0.318l0.643-4.014c0.034-0.217,0.222-0.377,0.44-0.377
		h13.745c0.195,0,0.36,0.145,0.389,0.336l0.59,4.037C36.242,40.598,36.103,40.755,35.923,40.755z"/>
	<path fill="#86C440" d="M10.9,30.276H9.246c-0.23,0-0.39-0.067-0.354-0.151l0.101-0.246c0.034-0.084,0.246-0.15,0.474-0.15H11.1
		c0.228,0,0.389,0.066,0.358,0.15l-0.088,0.246C11.341,30.208,11.13,30.276,10.9,30.276z"/>
	<path fill="#86C440" d="M13.688,30.276h-1.653c-0.23,0-0.394-0.067-0.365-0.151l0.086-0.246c0.029-0.084,0.237-0.15,0.465-0.15
		h1.635c0.228,0,0.393,0.066,0.369,0.15l-0.073,0.246C14.126,30.208,13.919,30.276,13.688,30.276z"/>
	<path fill="#86C440" d="M16.477,30.276h-1.653c-0.23,0-0.398-0.067-0.374-0.151l0.071-0.246c0.023-0.084,0.229-0.15,0.457-0.15
		h1.634c0.228,0,0.396,0.066,0.377,0.15l-0.059,0.246C16.911,30.208,16.708,30.276,16.477,30.276z"/>
	<path fill="#86C440" d="M19.265,30.276h-1.654c-0.23,0-0.401-0.067-0.382-0.151l0.057-0.246c0.02-0.084,0.22-0.15,0.447-0.15h1.635
		c0.229,0,0.4,0.066,0.386,0.15l-0.044,0.246C19.695,30.208,19.496,30.276,19.265,30.276z"/>
	<path fill="#86C440" d="M22.054,30.276H20.4c-0.231,0-0.406-0.067-0.393-0.151l0.043-0.246c0.015-0.084,0.21-0.15,0.438-0.15h1.634
		c0.229,0,0.404,0.066,0.396,0.15l-0.029,0.246C22.479,30.208,22.284,30.276,22.054,30.276z"/>
	<path fill="#86C440" d="M24.842,30.276h-1.652c-0.231,0-0.411-0.067-0.401-0.151l0.028-0.246c0.009-0.084,0.202-0.15,0.43-0.15
		h1.634c0.229,0,0.409,0.066,0.404,0.15l-0.015,0.246C25.264,30.208,25.073,30.276,24.842,30.276z"/>
	<path fill="#86C440" d="M27.631,30.276h-1.652c-0.231,0-0.414-0.067-0.41-0.151l0.014-0.246c0.004-0.084,0.193-0.15,0.42-0.15
		h1.636c0.228,0,0.412,0.066,0.412,0.15l-0.001,0.246C28.048,30.208,27.861,30.276,27.631,30.276z"/>
	<path fill="#86C440" d="M30.419,30.276h-1.653c-0.229,0-0.417-0.067-0.417-0.151l-0.001-0.246c0-0.084,0.185-0.15,0.411-0.15h1.635
		c0.229,0,0.417,0.066,0.422,0.15l0.014,0.246C30.833,30.208,30.65,30.276,30.419,30.276z"/>
	<path fill="#86C440" d="M33.208,30.276h-1.653c-0.23,0-0.423-0.067-0.429-0.151l-0.016-0.246c-0.005-0.084,0.176-0.15,0.404-0.15
		h1.633c0.229,0,0.422,0.066,0.432,0.15l0.027,0.246C33.617,30.208,33.438,30.276,33.208,30.276z"/>
	<path fill="#86C440" d="M35.996,30.276h-1.652c-0.229,0-0.426-0.067-0.437-0.151l-0.03-0.246c-0.01-0.084,0.166-0.15,0.396-0.15
		h1.635c0.228,0,0.424,0.066,0.438,0.15l0.044,0.246C36.402,30.208,36.227,30.276,35.996,30.276z"/>
	<path fill="#86C440" d="M38.785,30.276h-1.652c-0.23,0-0.432-0.067-0.444-0.151l-0.046-0.246c-0.016-0.084,0.156-0.15,0.386-0.15
		h1.635c0.229,0,0.428,0.066,0.447,0.15l0.059,0.246C39.186,30.208,39.015,30.276,38.785,30.276z"/>
	<path fill="#86C440" d="M41.574,30.276H39.92c-0.229,0-0.434-0.067-0.454-0.151l-0.059-0.246c-0.021-0.084,0.149-0.15,0.376-0.15
		h1.635c0.229,0,0.433,0.066,0.456,0.15l0.073,0.246C41.971,30.208,41.804,30.276,41.574,30.276z"/>
	<path fill="#86C440" d="M44.361,30.276h-1.652c-0.229,0-0.438-0.067-0.463-0.151l-0.074-0.246c-0.023-0.084,0.142-0.15,0.367-0.15
		h1.635c0.229,0,0.438,0.066,0.466,0.15l0.088,0.246C44.755,30.208,44.592,30.276,44.361,30.276z"/>
	<path fill="#86C440" d="M47.15,30.276h-1.652c-0.23,0-0.442-0.067-0.473-0.151l-0.088-0.246c-0.03-0.084,0.131-0.15,0.357-0.15
		h1.635c0.229,0,0.439,0.066,0.475,0.15l0.102,0.246C47.54,30.208,47.38,30.276,47.15,30.276z"/>
	<path fill="#86C440" d="M10.747,31.203H8.638c-0.054,0-0.09-0.017-0.081-0.035l0.313-0.772c0.008-0.019,0.056-0.034,0.107-0.034
		h2.072c0.053,0,0.089,0.016,0.082,0.034l-0.275,0.772C10.848,31.187,10.8,31.203,10.747,31.203z"/>
	<path fill="#86C440" d="M14.643,32.214h-2.154c-0.054,0-0.092-0.017-0.085-0.036l0.256-0.804c0.006-0.021,0.054-0.037,0.107-0.037
		h2.115c0.054,0,0.092,0.017,0.085,0.037l-0.218,0.804C14.744,32.198,14.696,32.214,14.643,32.214z"/>
	<path fill="#86C440" d="M14.995,33.271h-2.2c-0.055,0-0.094-0.018-0.087-0.039l0.257-0.838c0.007-0.021,0.056-0.037,0.109-0.037
		h2.16c0.054,0,0.093,0.016,0.088,0.037l-0.217,0.838C15.098,33.253,15.05,33.271,14.995,33.271z"/>
	<path fill="#86C440" d="M16.234,34.373h-2.249c-0.056,0-0.096-0.019-0.09-0.041l0.242-0.875c0.006-0.021,0.056-0.039,0.109-0.039
		h2.207c0.055,0,0.096,0.019,0.09,0.039l-0.2,0.875C16.339,34.354,16.29,34.373,16.234,34.373z"/>
	<path fill="#86C440" d="M9.14,35.653H6.848c-0.062,0-0.103-0.021-0.093-0.045l0.421-1.039c0.011-0.022,0.066-0.043,0.125-0.043
		h2.243c0.061,0,0.102,0.021,0.093,0.043l-0.372,1.039C9.257,35.634,9.201,35.653,9.14,35.653z"/>
	<path fill="#86C440" d="M12.2,35.653H9.908c-0.061,0-0.103-0.021-0.095-0.045l0.36-1.039c0.009-0.022,0.063-0.043,0.123-0.043
		h2.243c0.061,0,0.103,0.021,0.094,0.043l-0.311,1.039C12.316,35.634,12.26,35.653,12.2,35.653z"/>
	<path fill="#86C440" d="M15.167,35.653h-2.291c-0.062,0-0.104-0.021-0.098-0.045l0.303-1.039c0.007-0.022,0.062-0.043,0.121-0.043
		h2.242c0.06,0,0.104,0.021,0.098,0.043l-0.253,1.039C15.283,35.634,15.229,35.653,15.167,35.653z"/>
	<path fill="#86C440" d="M18.908,35.653h-3.023c-0.069,0-0.12-0.022-0.113-0.051l0.241-1.026c0.006-0.027,0.065-0.05,0.135-0.05
		h2.959c0.067,0,0.119,0.021,0.115,0.05l-0.178,1.026C19.038,35.63,18.978,35.653,18.908,35.653z"/>
	<path fill="#86C440" d="M37.509,35.653h-3.022c-0.07,0-0.129-0.022-0.133-0.051l-0.121-1.026c-0.003-0.027,0.05-0.05,0.117-0.05
		h2.96c0.067,0,0.127,0.021,0.132,0.05l0.186,1.026C37.631,35.63,37.58,35.653,37.509,35.653z"/>
	<path fill="#86C440" d="M40.57,35.653h-2.259c-0.061,0-0.112-0.021-0.118-0.044l-0.198-1.04c-0.005-0.022,0.04-0.043,0.099-0.043
		h2.212c0.061,0,0.111,0.021,0.117,0.043l0.247,1.04C40.675,35.634,40.63,35.653,40.57,35.653z"/>
	<path fill="#86C440" d="M33.732,35.653H19.779c-0.146,0-0.257-0.048-0.248-0.106l0.15-0.916c0.009-0.058,0.132-0.104,0.275-0.104
		h13.654c0.144,0,0.265,0.047,0.271,0.104l0.104,0.916C33.991,35.605,33.877,35.653,33.732,35.653z"/>
	<path fill="#86C440" d="M19.154,34.373h-2.249c-0.056,0-0.098-0.019-0.092-0.041l0.191-0.875c0.005-0.021,0.055-0.039,0.109-0.039
		h2.207c0.055,0,0.097,0.019,0.093,0.039l-0.15,0.875C19.258,34.354,19.209,34.373,19.154,34.373z"/>
	<path fill="#86C440" d="M22.073,34.373h-2.249c-0.056,0-0.099-0.019-0.095-0.041l0.143-0.875c0.003-0.021,0.051-0.039,0.105-0.039
		h2.208c0.054,0,0.097,0.019,0.094,0.039l-0.101,0.875C22.177,34.354,22.129,34.373,22.073,34.373z"/>
	<path fill="#86C440" d="M24.993,34.373h-2.249c-0.056,0-0.099-0.019-0.097-0.041l0.093-0.875c0.002-0.021,0.049-0.039,0.104-0.039
		h2.207c0.056,0,0.099,0.019,0.098,0.039l-0.051,0.875C25.095,34.354,25.049,34.373,24.993,34.373z"/>
	<path fill="#86C440" d="M27.913,34.373h-2.248c-0.057,0-0.102-0.019-0.1-0.041l0.044-0.875c0.001-0.021,0.046-0.039,0.102-0.039
		h2.206c0.056,0,0.101,0.019,0.101,0.039l-0.002,0.875C28.014,34.354,27.969,34.373,27.913,34.373z"/>
	<path fill="#86C440" d="M30.833,34.373h-2.248c-0.057,0-0.103-0.019-0.103-0.041l-0.006-0.875c0-0.021,0.045-0.039,0.1-0.039h2.207
		c0.055,0,0.101,0.019,0.102,0.039l0.048,0.875C30.933,34.354,30.888,34.373,30.833,34.373z"/>
	<path fill="#86C440" d="M33.752,34.373h-2.248c-0.057,0-0.103-0.019-0.104-0.041l-0.057-0.875
		c-0.001-0.021,0.042-0.039,0.099-0.039h2.206c0.055,0,0.102,0.019,0.104,0.039l0.099,0.875
		C33.851,34.354,33.808,34.373,33.752,34.373z"/>
	<path fill="#86C440" d="M36.672,34.373h-2.248c-0.057,0-0.104-0.019-0.105-0.041l-0.105-0.875
		c-0.003-0.021,0.039-0.039,0.096-0.039h2.207c0.055,0,0.103,0.019,0.105,0.039l0.146,0.875
		C36.771,34.354,36.728,34.373,36.672,34.373z"/>
	<path fill="#86C440" d="M39.591,34.373h-2.248c-0.057,0-0.104-0.019-0.106-0.041l-0.156-0.875
		c-0.003-0.021,0.039-0.039,0.094-0.039h2.207c0.056,0,0.104,0.019,0.107,0.039l0.196,0.875
		C39.689,34.354,39.648,34.373,39.591,34.373z"/>
	<path fill="#86C440" d="M43.277,35.671h-1.752c-0.224,0-0.422-0.072-0.443-0.164l-0.063-0.262
		c-0.021-0.091,0.139-0.162,0.358-0.162h1.732c0.221,0,0.42,0.071,0.446,0.162l0.076,0.262C43.66,35.599,43.5,35.671,43.277,35.671z
		"/>
	<path fill="#86C440" d="M46.28,35.671h-1.753c-0.223,0-0.424-0.072-0.452-0.164l-0.079-0.262c-0.027-0.091,0.129-0.162,0.351-0.162
		h1.731c0.221,0,0.425,0.071,0.456,0.162l0.093,0.262C46.658,35.599,46.503,35.671,46.28,35.671z"/>
	<path fill="#86C440" d="M46.054,35.014h-1.73c-0.221,0-0.42-0.071-0.447-0.159L43.8,34.599c-0.025-0.088,0.13-0.158,0.348-0.158
		h1.711c0.218,0,0.419,0.07,0.449,0.158l0.09,0.256C46.427,34.942,46.274,35.014,46.054,35.014z"/>
	<path fill="#86C440" d="M49.283,35.671h-1.752c-0.224,0-0.431-0.072-0.463-0.164l-0.094-0.262
		c-0.033-0.091,0.119-0.162,0.341-0.162h1.731c0.222,0,0.43,0.071,0.466,0.162l0.106,0.262
		C49.656,35.599,49.505,35.671,49.283,35.671z"/>
	<path fill="#86C440" d="M17.879,33.271h-2.2c-0.056,0-0.096-0.018-0.09-0.039l0.208-0.838c0.005-0.021,0.054-0.037,0.106-0.037
		h2.16c0.055,0,0.095,0.016,0.09,0.037l-0.169,0.838C17.981,33.253,17.933,33.271,17.879,33.271z"/>
	<path fill="#86C440" d="M20.762,33.271h-2.2c-0.056,0-0.097-0.018-0.092-0.039l0.16-0.838c0.004-0.021,0.052-0.037,0.105-0.037
		h2.16c0.054,0,0.095,0.016,0.092,0.037l-0.121,0.838C20.864,33.253,20.817,33.271,20.762,33.271z"/>
	<path fill="#86C440" d="M23.646,33.271h-2.2c-0.055,0-0.097-0.018-0.094-0.039l0.112-0.838c0.002-0.021,0.049-0.037,0.103-0.037
		h2.16c0.055,0,0.096,0.016,0.095,0.037l-0.073,0.838C23.747,33.253,23.701,33.271,23.646,33.271z"/>
	<path fill="#86C440" d="M26.512,33.271h-2.2c-0.056,0-0.099-0.018-0.097-0.039l0.065-0.838c0.001-0.021,0.046-0.037,0.1-0.037
		h2.161c0.055,0,0.098,0.016,0.098,0.037l-0.025,0.838C26.612,33.253,26.567,33.271,26.512,33.271z"/>
	<path fill="#86C440" d="M29.396,33.271h-2.2c-0.055,0-0.099-0.018-0.098-0.039l0.017-0.838c0-0.021,0.044-0.037,0.098-0.037h2.16
		c0.056,0,0.099,0.016,0.101,0.037l0.021,0.838C29.496,33.253,29.451,33.271,29.396,33.271z"/>
	<path fill="#86C440" d="M32.157,33.271h-2.2c-0.055,0-0.1-0.018-0.102-0.039l-0.028-0.838c-0.001-0.021,0.042-0.037,0.097-0.037
		h2.16c0.055,0,0.1,0.016,0.101,0.037l0.069,0.838C32.254,33.253,32.21,33.271,32.157,33.271z"/>
	<path fill="#86C440" d="M35.013,33.271h-2.199c-0.057,0-0.103-0.018-0.104-0.039l-0.076-0.838
		c-0.002-0.021,0.041-0.037,0.095-0.037h2.16c0.055,0,0.101,0.016,0.104,0.037l0.116,0.838
		C35.111,33.253,35.068,33.271,35.013,33.271z"/>
	<path fill="#86C440" d="M37.871,33.271h-2.199c-0.056,0-0.103-0.018-0.104-0.039l-0.124-0.838
		c-0.003-0.021,0.038-0.037,0.092-0.037h2.16c0.054,0,0.101,0.016,0.104,0.037l0.164,0.838
		C37.967,33.253,37.925,33.271,37.871,33.271z"/>
	<path fill="#86C440" d="M40.71,33.271h-2.201c-0.054,0-0.102-0.018-0.104-0.039l-0.172-0.838c-0.004-0.021,0.036-0.037,0.09-0.037
		h2.16c0.055,0,0.102,0.016,0.106,0.037l0.211,0.838C40.806,33.253,40.765,33.271,40.71,33.271z"/>
	<path fill="#86C440" d="M43.55,33.271H41.35c-0.057,0-0.104-0.018-0.109-0.039l-0.218-0.838c-0.006-0.021,0.033-0.037,0.088-0.037
		h2.16c0.053,0,0.103,0.016,0.107,0.037l0.26,0.838C43.644,33.253,43.605,33.271,43.55,33.271z"/>
	<path fill="#86C440" d="M42.484,34.373h-2.25c-0.055,0-0.104-0.019-0.109-0.041l-0.204-0.875c-0.005-0.021,0.035-0.039,0.09-0.039
		h2.208c0.055,0,0.104,0.019,0.109,0.039l0.246,0.875C42.58,34.354,42.539,34.373,42.484,34.373z"/>
	<path fill="#86C440" d="M48.582,33.271h-4.249c-0.075,0-0.144-0.023-0.152-0.053l-0.259-0.812
		c-0.009-0.028,0.043-0.051,0.117-0.051h4.172c0.074,0,0.144,0.022,0.154,0.051l0.332,0.812
		C48.708,33.248,48.657,33.271,48.582,33.271z"/>
	<path fill="#86C440" d="M49.007,34.373h-5.821c-0.089,0-0.168-0.027-0.18-0.063l-0.238-0.83c-0.011-0.033,0.053-0.062,0.139-0.062
		h5.715c0.086,0,0.168,0.027,0.184,0.062l0.339,0.83C49.156,34.345,49.095,34.373,49.007,34.373z"/>
	<path fill="#86C440" d="M12.135,33.271H7.841c-0.075,0-0.127-0.023-0.114-0.053l0.328-0.812c0.011-0.028,0.08-0.051,0.154-0.051
		h4.217c0.074,0,0.126,0.022,0.118,0.051l-0.255,0.812C12.28,33.248,12.21,33.271,12.135,33.271z"/>
	<path fill="#86C440" d="M13.277,34.373H7.371c-0.089,0-0.149-0.027-0.136-0.063l0.336-0.828c0.014-0.034,0.097-0.063,0.184-0.063
		h5.799c0.087,0,0.149,0.028,0.141,0.063l-0.236,0.828C13.447,34.345,13.367,34.373,13.277,34.373z"/>
	<path fill="#86C440" d="M17.451,32.214h-2.154c-0.053,0-0.092-0.017-0.087-0.036l0.211-0.804c0.005-0.021,0.053-0.037,0.105-0.037
		h2.115c0.053,0,0.092,0.017,0.088,0.037l-0.173,0.804C17.553,32.198,17.505,32.214,17.451,32.214z"/>
	<path fill="#86C440" d="M20.243,32.214h-2.154c-0.054,0-0.093-0.017-0.089-0.036l0.165-0.804c0.004-0.021,0.05-0.037,0.104-0.037
		h2.114c0.054,0,0.094,0.017,0.091,0.037l-0.127,0.804C20.343,32.198,20.297,32.214,20.243,32.214z"/>
	<path fill="#86C440" d="M23.052,32.214h-2.152c-0.054,0-0.095-0.017-0.092-0.036l0.118-0.804c0.004-0.021,0.049-0.037,0.102-0.037
		h2.116c0.052,0,0.094,0.017,0.092,0.037l-0.081,0.804C23.151,32.198,23.105,32.214,23.052,32.214z"/>
	<path fill="#86C440" d="M25.861,32.214h-2.154c-0.054,0-0.096-0.017-0.094-0.036l0.074-0.804c0.001-0.021,0.046-0.037,0.098-0.037
		h2.116c0.053,0,0.095,0.017,0.094,0.037l-0.036,0.804C25.959,32.198,25.915,32.214,25.861,32.214z"/>
	<path fill="#86C440" d="M28.654,32.214h-2.155c-0.054,0-0.097-0.017-0.096-0.036l0.028-0.804c0-0.021,0.044-0.037,0.097-0.037
		h2.116c0.053,0,0.096,0.017,0.096,0.037l0.01,0.804C28.75,32.198,28.707,32.214,28.654,32.214z"/>
	<path fill="#86C440" d="M31.381,32.214h-2.153c-0.055,0-0.098-0.017-0.1-0.036l-0.016-0.804c0-0.021,0.042-0.037,0.096-0.037h2.115
		c0.053,0,0.097,0.017,0.098,0.037l0.056,0.804C31.478,32.198,31.435,32.214,31.381,32.214z"/>
	<path fill="#86C440" d="M34.213,32.214h-2.153c-0.055,0-0.1-0.017-0.101-0.036l-0.063-0.804c-0.001-0.021,0.039-0.037,0.093-0.037
		h2.115c0.053,0,0.098,0.017,0.1,0.037l0.103,0.804C34.308,32.198,34.267,32.214,34.213,32.214z"/>
	<path fill="#86C440" d="M37.01,32.214h-2.153c-0.054,0-0.101-0.017-0.103-0.036l-0.108-0.804c-0.002-0.021,0.038-0.037,0.091-0.037
		h2.116c0.053,0,0.099,0.017,0.102,0.037l0.146,0.804C37.105,32.198,37.064,32.214,37.01,32.214z"/>
	<path fill="#86C440" d="M39.76,32.214h-2.153c-0.053,0-0.101-0.017-0.104-0.036l-0.151-0.804c-0.004-0.021,0.036-0.037,0.088-0.037
		h2.117c0.053,0,0.098,0.017,0.104,0.037l0.191,0.804C39.855,32.198,39.816,32.214,39.76,32.214z"/>
	<path fill="#86C440" d="M42.628,32.214h-2.153c-0.054,0-0.103-0.017-0.106-0.036l-0.199-0.804
		c-0.005-0.021,0.034-0.037,0.087-0.037h2.115c0.053,0,0.103,0.017,0.105,0.037l0.237,0.804
		C42.721,32.198,42.682,32.214,42.628,32.214z"/>
	<path fill="#86C440" d="M45.369,32.214h-2.154c-0.055,0-0.103-0.017-0.107-0.036l-0.244-0.804
		c-0.006-0.021,0.032-0.037,0.084-0.037h2.116c0.053,0,0.102,0.017,0.106,0.037l0.283,0.804
		C45.46,32.198,45.421,32.214,45.369,32.214z"/>
	<path fill="#86C440" d="M48.189,32.214h-2.154c-0.054,0-0.103-0.017-0.11-0.036l-0.29-0.804c-0.008-0.021,0.029-0.037,0.082-0.037
		h2.115c0.054,0,0.104,0.017,0.111,0.037l0.328,0.804C48.279,32.198,48.243,32.214,48.189,32.214z"/>
	<path fill="#86C440" d="M13.538,31.203h-2.109c-0.053,0-0.09-0.017-0.083-0.035l0.269-0.772c0.006-0.019,0.053-0.034,0.104-0.034
		h2.073c0.052,0,0.089,0.016,0.083,0.034l-0.23,0.772C13.638,31.187,13.59,31.203,13.538,31.203z"/>
	<path fill="#86C440" d="M16.244,31.203h-2.109c-0.053,0-0.091-0.017-0.085-0.035l0.226-0.772c0.005-0.019,0.051-0.034,0.104-0.034
		h2.073c0.051,0,0.089,0.016,0.085,0.034l-0.188,0.772C16.343,31.187,16.297,31.203,16.244,31.203z"/>
	<path fill="#86C440" d="M19.018,31.203h-2.109c-0.053,0-0.092-0.017-0.087-0.035l0.181-0.772c0.004-0.019,0.051-0.034,0.102-0.034
		h2.072c0.052,0,0.092,0.016,0.088,0.034l-0.145,0.772C19.116,31.187,19.071,31.203,19.018,31.203z"/>
	<path fill="#86C440" d="M21.723,31.203h-2.109c-0.053,0-0.093-0.017-0.089-0.035l0.137-0.772c0.003-0.019,0.048-0.034,0.101-0.034
		h2.072c0.053,0,0.091,0.016,0.089,0.034l-0.102,0.772C21.82,31.187,21.775,31.203,21.723,31.203z"/>
	<path fill="#86C440" d="M24.512,31.203h-2.11c-0.053,0-0.093-0.017-0.091-0.035l0.093-0.772c0.002-0.019,0.045-0.034,0.098-0.034
		h2.073c0.052,0,0.093,0.016,0.091,0.034l-0.056,0.772C24.609,31.187,24.565,31.203,24.512,31.203z"/>
	<path fill="#86C440" d="M27.193,31.203h-2.11c-0.053,0-0.094-0.017-0.093-0.035l0.051-0.772c0-0.019,0.044-0.034,0.095-0.034h2.073
		c0.052,0,0.093,0.016,0.093,0.034l-0.013,0.772C27.289,31.187,27.246,31.203,27.193,31.203z"/>
	<path fill="#86C440" d="M29.978,31.203h-2.11c-0.053,0-0.095-0.017-0.095-0.035l0.005-0.772c0.001-0.019,0.042-0.034,0.094-0.034
		h2.073c0.052,0,0.095,0.016,0.095,0.034l0.031,0.772C30.074,31.187,30.031,31.203,29.978,31.203z"/>
	<path fill="#86C440" d="M32.685,31.203h-2.111c-0.052,0-0.095-0.017-0.096-0.035l-0.037-0.772
		c-0.002-0.019,0.039-0.034,0.091-0.034h2.073c0.053,0,0.096,0.016,0.097,0.034l0.075,0.772
		C32.778,31.187,32.738,31.203,32.685,31.203z"/>
	<path fill="#86C440" d="M35.464,31.203h-2.109c-0.054,0-0.098-0.017-0.1-0.035l-0.082-0.772c-0.002-0.019,0.037-0.034,0.091-0.034
		h2.072c0.053,0,0.098,0.016,0.1,0.034l0.119,0.772C35.556,31.187,35.517,31.203,35.464,31.203z"/>
	<path fill="#86C440" d="M38.238,31.203h-2.109c-0.053,0-0.098-0.017-0.102-0.035l-0.126-0.772
		c-0.003-0.019,0.036-0.034,0.088-0.034h2.073c0.051,0,0.097,0.016,0.102,0.034l0.162,0.772
		C38.33,31.187,38.291,31.203,38.238,31.203z"/>
	<path fill="#86C440" d="M40.984,31.203h-2.11c-0.052,0-0.099-0.017-0.103-0.035L38.6,30.395c-0.004-0.019,0.034-0.034,0.087-0.034
		h2.071c0.054,0,0.099,0.016,0.104,0.034l0.207,0.772C41.075,31.187,41.036,31.203,40.984,31.203z"/>
	<path fill="#86C440" d="M43.623,31.203h-2.109c-0.054,0-0.101-0.017-0.104-0.035l-0.213-0.772
		c-0.005-0.019,0.032-0.034,0.084-0.034h2.074c0.051,0,0.098,0.016,0.104,0.034l0.25,0.772
		C43.712,31.187,43.675,31.203,43.623,31.203z"/>
	<path fill="#86C440" d="M47.577,31.203h-3.155c-0.146,0-0.278-0.046-0.297-0.1l-0.215-0.646c-0.018-0.054,0.084-0.097,0.229-0.097
		h3.101c0.145,0,0.277,0.043,0.299,0.097l0.264,0.646C47.824,31.157,47.722,31.203,47.577,31.203z"/>
	<path fill="#86C440" d="M11.624,32.214H8.402c-0.149,0-0.251-0.045-0.229-0.103l0.274-0.676c0.021-0.056,0.158-0.099,0.305-0.099
		h3.165c0.146,0,0.25,0.043,0.232,0.099l-0.224,0.676C11.908,32.169,11.772,32.214,11.624,32.214z"/>
	<rect x="9.844" y="26.768" fill="#86C440" width="6.288" height="1.105"/>
	<rect x="40.105" y="26.75" fill="#86C440" width="6.289" height="1.125"/>
</g>
<g enable-background="new    ">
	<path fill="#3C3241" d="M-5.8,57.416H-7v-8.828H-5.8V57.416z"/>
	<path fill="#3C3241" d="M-2.707,50.855l0.085,0.976c0.218-0.347,0.492-0.617,0.822-0.809c0.329-0.192,0.704-0.288,1.125-0.288
		c0.708,0,1.255,0.207,1.644,0.622C1.355,51.77,1.55,52.41,1.55,53.275v4.141H0.355v-4.116c0-0.579-0.114-0.989-0.343-1.231
		c-0.228-0.242-0.577-0.364-1.045-0.364c-0.368,0-0.681,0.074-0.937,0.222c-0.257,0.148-0.46,0.355-0.61,0.622v4.868h-1.195v-6.561
		H-2.707z"/>
	<path fill="#3C3241" d="M3.781,57.416v-5.675H2.756v-0.886h1.025v-0.83c0-0.7,0.183-1.24,0.548-1.623
		c0.366-0.381,0.876-0.573,1.531-0.573c0.137,0,0.276,0.013,0.416,0.034c0.139,0.022,0.294,0.053,0.464,0.094l-0.146,0.909
		c-0.073-0.016-0.161-0.029-0.264-0.043c-0.103-0.011-0.211-0.018-0.324-0.018c-0.348,0-0.606,0.104-0.776,0.313
		c-0.17,0.208-0.255,0.511-0.255,0.907v0.83h1.188v0.886H4.975v5.675H3.781z"/>
	<path fill="#3C3241" d="M7.092,54.076c0-0.971,0.263-1.771,0.788-2.399c0.525-0.628,1.239-0.942,2.141-0.942
		c0.91,0,1.628,0.313,2.155,0.94c0.528,0.626,0.792,1.427,0.792,2.401v0.132c0,0.979-0.263,1.779-0.788,2.401
		c-0.525,0.623-1.241,0.935-2.146,0.935s-1.622-0.313-2.15-0.937c-0.527-0.625-0.791-1.425-0.791-2.399V54.076z M8.286,54.208
		c0,0.696,0.147,1.271,0.44,1.723c0.293,0.453,0.729,0.679,1.307,0.679c0.57,0,1.002-0.226,1.297-0.679
		c0.295-0.452,0.443-1.026,0.443-1.723v-0.132c0-0.688-0.148-1.261-0.446-1.717c-0.297-0.456-0.733-0.685-1.307-0.685
		c-0.57,0-1.001,0.229-1.294,0.685s-0.44,1.028-0.44,1.717V54.208z"/>
	<path fill="#3C3241" d="M17.533,51.91l-0.612-0.036c-0.315,0-0.581,0.075-0.797,0.224c-0.217,0.15-0.383,0.361-0.5,0.631v4.688
		h-1.195v-6.561h1.067l0.115,0.958c0.186-0.34,0.416-0.604,0.688-0.794c0.273-0.19,0.587-0.285,0.943-0.285
		c0.089,0,0.174,0.007,0.255,0.021c0.081,0.015,0.147,0.03,0.2,0.047L17.533,51.91z"/>
	<path fill="#3C3241" d="M19.844,50.855l0.085,0.861c0.214-0.312,0.486-0.553,0.815-0.725c0.33-0.172,0.713-0.258,1.149-0.258
		s0.812,0.102,1.125,0.303c0.313,0.202,0.549,0.505,0.707,0.91c0.21-0.376,0.484-0.673,0.822-0.889
		c0.337-0.217,0.733-0.324,1.185-0.324c0.667,0,1.194,0.229,1.583,0.688c0.388,0.459,0.582,1.15,0.582,2.072v3.922h-1.195V53.48
		c0-0.646-0.111-1.104-0.333-1.372c-0.223-0.27-0.554-0.404-0.994-0.404c-0.409,0-0.739,0.142-0.992,0.425
		c-0.252,0.283-0.4,0.641-0.445,1.074v0.048v4.165h-1.201V53.48c0-0.614-0.114-1.063-0.343-1.349
		c-0.228-0.285-0.557-0.428-0.985-0.428c-0.364,0-0.663,0.075-0.897,0.224c-0.234,0.15-0.415,0.361-0.54,0.631v4.857h-1.194v-6.561
		H19.844z"/>
	<path fill="#3C3241" d="M33.662,57.416c-0.04-0.198-0.071-0.372-0.093-0.524c-0.022-0.151-0.036-0.305-0.04-0.458
		c-0.223,0.315-0.513,0.579-0.87,0.792c-0.358,0.212-0.743,0.318-1.155,0.318c-0.683,0-1.204-0.175-1.561-0.524
		c-0.358-0.35-0.537-0.832-0.537-1.446c0-0.626,0.253-1.117,0.761-1.471c0.507-0.354,1.194-0.53,2.064-0.53h1.298v-0.649
		c0-0.384-0.117-0.688-0.352-0.912c-0.235-0.225-0.565-0.336-0.994-0.336c-0.389,0-0.701,0.097-0.941,0.291
		c-0.237,0.194-0.356,0.426-0.356,0.696l-1.134,0.013l-0.013-0.036c-0.028-0.478,0.196-0.914,0.67-1.311
		c0.476-0.396,1.089-0.594,1.841-0.594c0.743,0,1.342,0.188,1.795,0.566c0.452,0.378,0.68,0.923,0.68,1.635v3.159
		c0,0.234,0.011,0.461,0.035,0.679c0.024,0.219,0.069,0.433,0.135,0.643H33.662z M31.679,56.542c0.433,0,0.822-0.111,1.17-0.333
		c0.349-0.223,0.574-0.478,0.68-0.765v-1.067h-1.341c-0.48,0-0.865,0.121-1.154,0.364c-0.29,0.242-0.434,0.527-0.434,0.855
		c0,0.291,0.091,0.521,0.272,0.69C31.055,56.458,31.324,56.542,31.679,56.542z"/>
	<path fill="#3C3241" d="M38.12,49.273v1.582h1.242v0.886H38.12v3.984c0,0.306,0.063,0.522,0.19,0.647
		c0.127,0.126,0.297,0.188,0.506,0.188c0.068,0,0.146-0.009,0.23-0.026c0.085-0.019,0.155-0.037,0.213-0.058l0.163,0.818
		c-0.088,0.073-0.221,0.133-0.395,0.179c-0.173,0.046-0.345,0.07-0.515,0.07c-0.485,0-0.871-0.146-1.159-0.439
		c-0.286-0.293-0.43-0.753-0.43-1.379v-3.984h-1.043v-0.886h1.043v-1.582H38.12z"/>
	<path fill="#3C3241" d="M41.933,49.176h-1.194v-1.22h1.194V49.176z M41.933,57.416h-1.194v-6.561h1.194V57.416z"/>
	<path fill="#3C3241" d="M43.498,54.256c0-1.054,0.225-1.905,0.676-2.553c0.451-0.646,1.082-0.97,1.895-0.97
		c0.397,0,0.746,0.076,1.05,0.227c0.302,0.152,0.562,0.372,0.776,0.658l0.17-0.764h0.915v9.083h-1.195v-3.141
		c-0.209,0.247-0.459,0.433-0.745,0.558c-0.287,0.126-0.615,0.188-0.982,0.188c-0.801,0-1.428-0.291-1.88-0.871
		c-0.452-0.579-0.679-1.343-0.679-2.288V54.256z M44.693,54.384c0,0.662,0.135,1.199,0.408,1.609
		c0.272,0.41,0.691,0.615,1.258,0.615c0.328,0,0.607-0.073,0.841-0.219c0.231-0.146,0.428-0.349,0.584-0.611v-3.311
		c-0.156-0.247-0.353-0.441-0.584-0.582c-0.233-0.142-0.51-0.212-0.828-0.212c-0.57,0-0.992,0.241-1.267,0.725
		c-0.275,0.482-0.412,1.103-0.412,1.857V54.384z"/>
	<path fill="#3C3241" d="M54.994,56.446c-0.206,0.352-0.471,0.623-0.794,0.813s-0.697,0.285-1.122,0.285
		c-0.715,0-1.273-0.229-1.674-0.686c-0.399-0.456-0.6-1.169-0.6-2.134v-3.869h1.194v3.881c0,0.699,0.103,1.181,0.31,1.443
		c0.205,0.262,0.527,0.395,0.964,0.395c0.425,0,0.774-0.086,1.052-0.258s0.486-0.416,0.628-0.731v-4.729h1.194v6.561h-1.072
		L54.994,56.446z"/>
	<path fill="#3C3241" d="M60.603,57.543c-0.942,0-1.677-0.302-2.205-0.903c-0.526-0.603-0.791-1.396-0.791-2.377v-0.268
		c0-0.941,0.272-1.721,0.815-2.337c0.545-0.616,1.209-0.925,1.992-0.925c0.877,0,1.536,0.272,1.974,0.819
		c0.438,0.544,0.658,1.271,0.658,2.176v0.631H58.85l-0.018,0.031c0,0.658,0.146,1.192,0.437,1.603s0.735,0.615,1.334,0.615
		c0.404,0,0.759-0.058,1.064-0.172c0.305-0.116,0.566-0.274,0.785-0.477l0.466,0.776c-0.233,0.226-0.542,0.418-0.927,0.573
		S61.145,57.543,60.603,57.543z M60.415,51.674c-0.415,0-0.761,0.16-1.034,0.481c-0.272,0.321-0.439,0.732-0.499,1.233l0.011,0.031
		h2.959v-0.097c0-0.478-0.116-0.872-0.351-1.184C61.266,51.83,60.903,51.674,60.415,51.674z"/>
</g>
</svg>
