<?xml version="1.0" encoding="utf-8"?>
<!-- Generator: Adobe Illustrator 16.0.0, SVG Export Plug-In . SVG Version: 6.00 Build 0)  -->
<!DOCTYPE svg PUBLIC "-//W3C//DTD SVG 1.1//EN" "http://www.w3.org/Graphics/SVG/1.1/DTD/svg11.dtd">
<svg version="1.1" id="Calque_1" xmlns="http://www.w3.org/2000/svg" xmlns:xlink="http://www.w3.org/1999/xlink" x="0px" y="0px"
	 width="58.283px" height="59.321px" viewBox="0 0 58.283 59.321" enable-background="new 0 0 58.283 59.321" xml:space="preserve">
<g>
	<g enable-background="new    ">
		<path fill="#3C3241" d="M5.15,54.563H1.939L1.178,56.76H0l3.076-8.531h0.99l3.012,8.531H5.9L5.15,54.563z M2.273,53.596h2.549
			L3.58,49.934H3.545L2.273,53.596z"/>
		<path fill="#3C3241" d="M7.969,53.708c0-1.02,0.219-1.842,0.654-2.467s1.043-0.938,1.824-0.938c0.402,0,0.756,0.081,1.061,0.243
			s0.561,0.396,0.768,0.7l0.141-0.826h0.92v6.375c0,0.813-0.236,1.437-0.709,1.872s-1.154,0.653-2.045,0.653
			c-0.305,0-0.633-0.042-0.986-0.126S8.93,58.997,8.66,58.852l0.176-0.896c0.223,0.117,0.492,0.212,0.807,0.284
			s0.623,0.108,0.928,0.108c0.563,0,0.973-0.128,1.229-0.384s0.383-0.646,0.383-1.169v-0.721c-0.207,0.266-0.455,0.467-0.744,0.604
			s-0.623,0.205-1.002,0.205c-0.773,0-1.377-0.28-1.813-0.841s-0.654-1.298-0.654-2.212V53.708z M9.123,53.831
			c0,0.637,0.131,1.148,0.393,1.535s0.666,0.58,1.213,0.58c0.348,0,0.639-0.079,0.873-0.237s0.428-0.382,0.58-0.671V52.12
			c-0.148-0.27-0.342-0.483-0.58-0.642s-0.525-0.237-0.861-0.237c-0.551,0-0.957,0.229-1.221,0.686s-0.396,1.051-0.396,1.781V53.831
			z"/>
		<path fill="#3C3241" d="M17.994,51.44l-0.592-0.035c-0.305,0-0.561,0.072-0.77,0.217s-0.371,0.348-0.484,0.609v4.529h-1.154v-6.34
			h1.031l0.111,0.926c0.18-0.328,0.402-0.584,0.666-0.768s0.566-0.275,0.91-0.275c0.086,0,0.168,0.007,0.246,0.021
			s0.143,0.028,0.193,0.044L17.994,51.44z"/>
		<path fill="#3C3241" d="M20.443,48.797h-1.154V47.62h1.154V48.797z M20.443,56.76h-1.154v-6.34h1.154V56.76z"/>
		<path fill="#3C3241" d="M24.738,55.981c0.355,0,0.666-0.118,0.932-0.354s0.398-0.526,0.398-0.87h1.043l0.018,0.035
			c0.016,0.547-0.219,1.032-0.703,1.456s-1.047,0.636-1.688,0.636c-0.891,0-1.578-0.303-2.063-0.908s-0.727-1.359-0.727-2.262
			v-0.246c0-0.895,0.244-1.646,0.73-2.253s1.172-0.911,2.059-0.911c0.707,0,1.287,0.219,1.738,0.656s0.668,0.975,0.652,1.611
			l-0.012,0.035h-1.049c0-0.387-0.125-0.716-0.377-0.987s-0.57-0.407-0.953-0.407c-0.566,0-0.979,0.22-1.238,0.659
			s-0.391,0.972-0.391,1.597v0.246c0,0.637,0.129,1.174,0.385,1.611S24.164,55.981,24.738,55.981z"/>
		<path fill="#3C3241" d="M32.525,55.823c-0.199,0.34-0.455,0.602-0.768,0.785s-0.674,0.275-1.084,0.275
			c-0.691,0-1.23-0.221-1.617-0.662s-0.58-1.129-0.58-2.063V50.42h1.154v3.75c0,0.676,0.1,1.141,0.299,1.395s0.51,0.381,0.932,0.381
			c0.41,0,0.75-0.083,1.018-0.249s0.469-0.401,0.605-0.706v-4.57h1.154v6.34h-1.037L32.525,55.823z"/>
		<path fill="#3C3241" d="M36.568,56.76h-1.154V47.62h1.154V56.76z"/>
		<path fill="#3C3241" d="M39.949,48.891v1.529h1.201v0.855h-1.201v3.85c0,0.297,0.063,0.506,0.186,0.627s0.285,0.182,0.488,0.182
			c0.066,0,0.141-0.009,0.223-0.026s0.15-0.036,0.205-0.056l0.158,0.791c-0.086,0.07-0.213,0.128-0.381,0.173
			s-0.334,0.067-0.498,0.067c-0.469,0-0.842-0.142-1.119-0.425s-0.416-0.728-0.416-1.333v-3.85h-1.008V50.42h1.008v-1.529H39.949z"
			/>
		<path fill="#3C3241" d="M46.412,55.823c-0.199,0.34-0.455,0.602-0.768,0.785s-0.674,0.275-1.084,0.275
			c-0.691,0-1.23-0.221-1.617-0.662s-0.58-1.129-0.58-2.063V50.42h1.154v3.75c0,0.676,0.1,1.141,0.299,1.395s0.51,0.381,0.932,0.381
			c0.41,0,0.75-0.083,1.018-0.249s0.469-0.401,0.605-0.706v-4.57h1.154v6.34h-1.037L46.412,55.823z"/>
		<path fill="#3C3241" d="M52.207,51.44l-0.592-0.035c-0.305,0-0.561,0.072-0.77,0.217s-0.371,0.348-0.484,0.609v4.529h-1.154v-6.34
			h1.031l0.111,0.926c0.18-0.328,0.402-0.584,0.666-0.768s0.566-0.275,0.91-0.275c0.086,0,0.168,0.007,0.246,0.021
			s0.143,0.028,0.193,0.044L52.207,51.44z"/>
		<path fill="#3C3241" d="M55.922,56.883c-0.91,0-1.619-0.291-2.129-0.873s-0.766-1.348-0.766-2.297v-0.258
			c0-0.91,0.264-1.663,0.789-2.259s1.166-0.894,1.924-0.894c0.848,0,1.484,0.264,1.908,0.791s0.635,1.229,0.635,2.104v0.609h-4.055
			l-0.018,0.029c0,0.637,0.141,1.153,0.422,1.55s0.711,0.595,1.289,0.595c0.391,0,0.734-0.056,1.029-0.167s0.547-0.265,0.758-0.46
			l0.451,0.75c-0.227,0.219-0.525,0.403-0.896,0.554S56.445,56.883,55.922,56.883z M55.74,51.211c-0.402,0-0.734,0.155-0.998,0.466
			s-0.426,0.708-0.484,1.192l0.012,0.029h2.859v-0.094c0-0.461-0.113-0.842-0.34-1.143S56.213,51.211,55.74,51.211z"/>
	</g>
	<g>
		<polyline fill="#3C3241" points="15.388,17.154 15.729,16.015 15.729,6.078 25.421,6.078 29.183,19.435 15.437,19.435 
			15.437,17.611 9.231,17.269 9.231,0 32.888,0 32.888,3.988 30.493,6.383 34.599,17.498 51.501,17.498 51.501,30.96 		"/>
		<path fill="#3C3241" d="M31.239,8.264c0.871,3.18,1.779,6.35,2.594,9.545c0.277,1.104,17.725-1.535,17.727,2.392
			c0.002,1.991-0.039,8.77-0.059,10.76c-0.744-0.623-1.516-1.201-2.438-1.537c-5.254-1.918-10.75,1.428-10.834,7.803
			c-3.385-0.02-6.768-0.035-10.15-0.055c2.801-4.771,2.654-12.643-2.924-17.844c1.065-0.074,2.129-0.147,3.195-0.222
			c1.098-0.065,0.551-0.765,0.432-1.226c-0.803-3.139-1.633-6.271-2.453-9.401c1.568-0.161,3.188,0.283,4.715-0.389
			C31.104,8.154,31.169,8.213,31.239,8.264z"/>
		<path fill="#86C440" d="M25.155,19.326c5.578,5.203,5.725,13.072,2.924,17.846c-0.238,0.318-0.483,0.635-0.713,0.959
			c-4.834,6.832-13.696,8.322-20.476,3.471c-3.241-2.32-4.819-5.646-5.829-9.342c-0.433-6.063,1.563-10.997,6.75-14.414
			c0.893-0.588,1.887-1.02,2.832-1.523c1.592-0.271,3.155-0.749,4.793-0.729C19.126,15.664,22.353,16.941,25.155,19.326z
			 M24.914,29.683c0.062-3.926-1.974-6.6-5.304-8.264c-3.528-1.764-7.049-1.354-10.103,1.113c-2.894,2.34-4.228,5.434-3.44,9.23
			c0.832,5.023,5.459,8.395,10.692,7.799C21.583,39.009,25.233,34.587,24.914,29.683z"/>
		<path fill="#86C440" d="M38.229,37.224c0.086-6.375,5.582-9.719,10.836-7.801c0.922,0.334,1.691,0.914,2.436,1.537
			c1.953,2,2.676,4.41,2.395,7.158c-0.205,0.527-0.393,1.064-0.619,1.584c-2.361,5.416-9.43,6.414-13.205,1.871
			C39.017,40.306,38.608,38.771,38.229,37.224z M43.36,37.541c0.338,1.408,1.314,2.031,2.678,2.068
			c1.441,0.039,2.457-0.607,2.848-2.066c0.615-1.439,0.037-2.545-1.105-3.354c-1.053-0.748-2.266-0.744-3.32,0.002
			C43.317,35.001,42.729,36.099,43.36,37.541z"/>
		<path fill="#3C3241" d="M15.437,15.594c-1.638-0.021-3.199,0.456-4.793,0.729c-0.01-4.037-0.041-8.073-0.021-12.11
			c0.01-2.157,0.842-2.988,3.013-2.999c5.174-0.028,10.348-0.026,15.52-0.005c2.625,0.01,3.445,1.094,2.871,3.675
			c-0.482,0.384-0.963,0.765-1.445,1.148c-1.66,0.015-3.323,0.03-4.984,0.046c-2.604-0.016-5.208-0.041-7.813-0.048
			c-2.444-0.007-2.444,0.002-2.252,2.427C15.499,10.836,15.467,13.214,15.437,15.594z"/>
		<path fill="#3C3241" d="M26.328,8.479c-0.244-0.801-0.488-1.6-0.732-2.4c1.662-0.016,3.323-0.031,4.985-0.046
			c0.152,0.687,0.309,1.372,0.463,2.06C29.517,8.762,27.897,8.317,26.328,8.479z"/>
		<path fill="#3C3241" d="M24.914,29.683c0.319,4.904-3.332,9.326-8.154,9.879c-5.235,0.596-9.86-2.775-10.692-7.799
			c0.162-4.182,2.381-6.93,6.172-8.333c3.769-1.396,7.119-0.42,10.031,2.315C23.468,26.871,23.991,28.4,24.914,29.683z"/>
		<path fill="#3C3241" d="M24.914,29.683c-0.923-1.283-1.446-2.813-2.644-3.938c-2.912-2.735-6.263-3.711-10.031-2.315
			c-3.791,1.403-6.012,4.151-6.172,8.333c-0.787-3.797,0.547-6.891,3.44-9.23c3.054-2.467,6.574-2.877,10.103-1.113
			C22.94,23.083,24.976,25.757,24.914,29.683z"/>
		<path fill="#3C3241" d="M43.36,37.541c-0.633-1.439-0.043-2.539,1.1-3.35c1.055-0.746,2.268-0.75,3.318-0.002
			c1.145,0.809,1.723,1.912,1.105,3.354C46.546,35.617,45.706,35.617,43.36,37.541z"/>
		<path fill="#3C3241" d="M43.36,37.541c2.346-1.924,3.186-1.924,5.523,0.002c-0.391,1.459-1.404,2.105-2.848,2.066
			C44.677,39.572,43.698,38.949,43.36,37.541z"/>
	</g>
</g>
</svg>
