<?xml version="1.0" encoding="utf-8"?>
<!-- Generator: Adobe Illustrator 16.0.0, SVG Export Plug-In . SVG Version: 6.00 Build 0)  -->
<!DOCTYPE svg PUBLIC "-//W3C//DTD SVG 1.1//EN" "http://www.w3.org/Graphics/SVG/1.1/DTD/svg11.dtd">
<svg version="1.1" id="Calque_1" xmlns="http://www.w3.org/2000/svg" xmlns:xlink="http://www.w3.org/1999/xlink" x="0px" y="0px"
	 width="66.92px" height="59.727px" viewBox="0 0 66.92 59.727" enable-background="new 0 0 66.92 59.727" xml:space="preserve">
<g enable-background="new    ">
	<path fill="#3C3241" d="M5.654,52.52H2.15v3.053h4.102v0.902H0.996v-8.531h5.191v0.908H2.15v2.76h3.504V52.52z M4.184,45.559h1.348
		l0.012,0.035l-1.576,1.523H3.1L4.184,45.559z"/>
	<path fill="#3C3241" d="M8.707,56.475H7.553v-9.141h1.154V56.475z"/>
	<path fill="#3C3241" d="M13.107,56.598c-0.91,0-1.62-0.291-2.13-0.873s-0.765-1.348-0.765-2.297V53.17
		c0-0.91,0.263-1.663,0.788-2.259s1.167-0.894,1.925-0.894c0.848,0,1.483,0.264,1.907,0.791s0.636,1.229,0.636,2.104v0.609h-4.055
		l-0.018,0.029c0,0.637,0.141,1.153,0.422,1.55s0.711,0.595,1.289,0.595c0.391,0,0.733-0.056,1.028-0.167s0.548-0.265,0.759-0.46
		l0.451,0.75c-0.227,0.219-0.525,0.403-0.896,0.554S13.631,56.598,13.107,56.598z M12.926,50.926c-0.402,0-0.735,0.155-0.999,0.466
		s-0.425,0.708-0.483,1.192l0.012,0.029h2.859V52.52c0-0.461-0.113-0.842-0.34-1.143S13.398,50.926,12.926,50.926z"/>
	<path fill="#3C3241" d="M19.283,55.696c0.355,0,0.666-0.118,0.932-0.354s0.398-0.526,0.398-0.87h1.043l0.018,0.035
		c0.016,0.547-0.219,1.032-0.703,1.456s-1.047,0.636-1.688,0.636c-0.891,0-1.578-0.303-2.063-0.908s-0.727-1.359-0.727-2.262v-0.246
		c0-0.895,0.243-1.646,0.729-2.253s1.173-0.911,2.06-0.911c0.707,0,1.286,0.219,1.737,0.656s0.669,0.975,0.653,1.611l-0.012,0.035
		h-1.049c0-0.387-0.126-0.716-0.378-0.987s-0.569-0.407-0.952-0.407c-0.566,0-0.979,0.22-1.239,0.659s-0.39,0.972-0.39,1.597v0.246
		c0,0.637,0.128,1.174,0.384,1.611S18.709,55.696,19.283,55.696z"/>
	<path fill="#3C3241" d="M24.65,48.606v1.529h1.201v0.855H24.65v3.85c0,0.297,0.062,0.506,0.185,0.627s0.286,0.182,0.489,0.182
		c0.066,0,0.141-0.009,0.223-0.026s0.15-0.036,0.205-0.056l0.158,0.791c-0.086,0.07-0.213,0.128-0.381,0.173
		s-0.334,0.067-0.498,0.067c-0.469,0-0.842-0.142-1.119-0.425s-0.416-0.728-0.416-1.333v-3.85h-1.008v-0.855h1.008v-1.529H24.65z"/>
	<path fill="#3C3241" d="M30.088,51.155l-0.592-0.035c-0.305,0-0.562,0.072-0.771,0.217s-0.37,0.348-0.483,0.609v4.529h-1.154v-6.34
		h1.031l0.111,0.926c0.18-0.328,0.401-0.584,0.665-0.768s0.567-0.275,0.911-0.275c0.086,0,0.168,0.007,0.246,0.021
		s0.143,0.028,0.193,0.044L30.088,51.155z"/>
	<path fill="#3C3241" d="M30.902,53.247c0-0.938,0.254-1.71,0.762-2.317s1.197-0.911,2.068-0.911c0.879,0,1.573,0.303,2.083,0.908
		s0.765,1.379,0.765,2.32v0.129c0,0.945-0.254,1.719-0.762,2.32s-1.199,0.902-2.074,0.902s-1.567-0.302-2.077-0.905
		s-0.765-1.376-0.765-2.317V53.247z M32.057,53.375c0,0.672,0.142,1.227,0.425,1.664s0.704,0.656,1.263,0.656
		c0.551,0,0.969-0.219,1.254-0.656s0.428-0.992,0.428-1.664v-0.129c0-0.664-0.144-1.217-0.431-1.658s-0.708-0.662-1.263-0.662
		c-0.551,0-0.968,0.221-1.251,0.662s-0.425,0.994-0.425,1.658V53.375z"/>
	<path fill="#3C3241" d="M39.023,50.135l0.082,0.943c0.211-0.336,0.476-0.597,0.794-0.782s0.681-0.278,1.087-0.278
		c0.684,0,1.213,0.2,1.588,0.601s0.563,1.019,0.563,1.854v4.002h-1.154v-3.979c0-0.559-0.11-0.955-0.331-1.189
		s-0.558-0.352-1.011-0.352c-0.355,0-0.657,0.071-0.905,0.214s-0.444,0.343-0.589,0.601v4.705h-1.154v-6.34H39.023z"/>
	<path fill="#3C3241" d="M46.061,48.512h-1.154v-1.178h1.154V48.512z M46.061,56.475h-1.154v-6.34h1.154V56.475z"/>
	<path fill="#3C3241" d="M47.572,53.422c0-1.02,0.218-1.842,0.653-2.467s1.046-0.938,1.831-0.938c0.383,0,0.721,0.073,1.014,0.22
		s0.543,0.358,0.75,0.636l0.164-0.738h0.885v8.777h-1.154v-3.035c-0.203,0.238-0.443,0.418-0.721,0.539s-0.594,0.182-0.949,0.182
		c-0.773,0-1.379-0.28-1.816-0.841s-0.656-1.298-0.656-2.212V53.422z M48.727,53.545c0,0.641,0.132,1.159,0.396,1.556
		s0.669,0.595,1.216,0.595c0.316,0,0.587-0.07,0.812-0.211s0.413-0.338,0.565-0.592v-3.199c-0.152-0.238-0.341-0.426-0.565-0.563
		s-0.491-0.205-0.8-0.205c-0.551,0-0.959,0.233-1.225,0.7s-0.398,1.065-0.398,1.796V53.545z"/>
	<path fill="#3C3241" d="M58.682,55.538c-0.199,0.34-0.455,0.602-0.768,0.785s-0.674,0.275-1.084,0.275
		c-0.691,0-1.23-0.221-1.617-0.662s-0.58-1.129-0.58-2.063v-3.738h1.154v3.75c0,0.676,0.1,1.141,0.299,1.395s0.51,0.381,0.932,0.381
		c0.41,0,0.749-0.083,1.017-0.249s0.47-0.401,0.606-0.706v-4.57h1.154v6.34h-1.037L58.682,55.538z"/>
	<path fill="#3C3241" d="M64.102,56.598c-0.91,0-1.62-0.291-2.13-0.873s-0.765-1.348-0.765-2.297V53.17
		c0-0.91,0.263-1.663,0.788-2.259s1.167-0.894,1.925-0.894c0.848,0,1.483,0.264,1.907,0.791s0.636,1.229,0.636,2.104v0.609h-4.055
		l-0.018,0.029c0,0.637,0.141,1.153,0.422,1.55s0.711,0.595,1.289,0.595c0.391,0,0.733-0.056,1.028-0.167s0.548-0.265,0.759-0.46
		l0.451,0.75c-0.227,0.219-0.525,0.403-0.896,0.554S64.625,56.598,64.102,56.598z M63.92,50.926c-0.402,0-0.735,0.155-0.999,0.466
		s-0.425,0.708-0.483,1.192l0.012,0.029h2.859V52.52c0-0.461-0.113-0.842-0.34-1.143S64.393,50.926,63.92,50.926z"/>
</g>
<g>
	<path fill="#3C3241" d="M52.923,27.068c-0.285,0.284-0.574,0.57-0.86,0.857c-0.026-0.132-0.077-0.264-0.077-0.396
		c-0.005-2.354-0.01-4.711,0.001-7.065c0.002-0.317-0.077-0.435-0.406-0.409c-0.387,0.03-0.775,0.01-1.165,0.006
		c-0.363-0.008-0.549-0.188-0.555-0.557c-0.007-0.377,0-0.754,0-1.134c0-3.776,0-7.553,0-11.331c0-0.532,0.159-0.692,0.693-0.694
		c0.452-0.002,0.908,0,1.399,0c0.011-0.149,0.027-0.277,0.027-0.405c0.002-0.755-0.004-1.512,0.005-2.266
		c0-0.14,0.051-0.278,0.074-0.416c0.287-0.284,0.576-0.57,0.861-0.855c0.021,0.112,0.065,0.223,0.065,0.335
		c0.004,1.053,0.002,2.11,0.002,3.164c0,0.13,0,0.262,0,0.444c0.491,0,0.955,0,1.414,0c0.55,0.002,0.716,0.164,0.716,0.709
		c0,3.959-0.002,7.922-0.002,11.883c0,0.189,0.002,0.375,0,0.563c-0.007,0.355-0.198,0.553-0.559,0.559
		c-0.507,0.008-1.014,0.002-1.569,0.002c0,0.18,0,0.321,0,0.459c0,2.042,0.002,4.086-0.004,6.129
		C52.984,26.787,52.944,26.927,52.923,27.068z M50.906,13.736c0,1.758,0,3.503,0,5.27c1.063,0,2.101,0,3.149,0
		c0-1.766,0-3.508,0-5.27C52.994,13.736,51.969,13.736,50.906,13.736z M50.891,7.394c0,1.021,0,2.005-0.002,2.992
		c0,0.232,0.168,0.192,0.307,0.192c0.799,0.004,1.598,0.004,2.396,0.002c0.15-0.002,0.302-0.014,0.455-0.021
		c0-1.076,0-2.113,0-3.166C52.997,7.394,51.97,7.394,50.891,7.394z M54.042,12.656c0-0.362,0-0.688,0-1.006
		c-1.056,0-2.082,0-3.126,0c0,0.347,0,0.672,0,1.006C51.969,12.656,52.995,12.656,54.042,12.656z"/>
	<path fill="#3C3241" d="M52.921,2.403c-0.285,0.285-0.574,0.57-0.861,0.855c-0.026-0.088-0.074-0.176-0.077-0.264
		c-0.006-0.799-0.006-1.6-0.002-2.397c0.002-0.361,0.162-0.568,0.45-0.592c0.266-0.021,0.52,0.098,0.528,0.35
		C52.984,1.037,52.94,1.721,52.921,2.403z"/>
	<path fill="#3C3241" d="M52.984,27.406c0-0.113-0.04-0.229-0.063-0.338c-0.286,0.284-0.575,0.57-0.86,0.857
		c-0.025,0.16-0.077,0.321-0.078,0.482c-0.004,1.945,0.001,3.889-0.004,5.834c-0.01,2.127-1.61,3.779-3.722,3.813
		c-1.711,0.029-3.422,0.025-5.132,0.025c-1.498,0.002-2.996-0.012-4.494-0.02c-0.131,0-0.259-0.014-0.396-0.021
		c0-0.371,0-0.705,0-1.066c1.087,0,2.141-0.004,3.195,0c0.872,0.006,1.744-0.035,2.517-0.467c0.522-0.295,1.013-0.672,1.451-1.084
		c0.809-0.754,1.186-1.764,1.232-2.826c0.077-1.742,0.026-3.486,0.026-5.23c0.002-2.32,0.002-4.643-0.004-6.965
		c-0.002-0.252,0.057-0.361,0.333-0.348c0.407,0.021,0.82,0.012,1.231,0.006c0.347-0.006,0.525-0.184,0.551-0.529
		c0.005-0.066,0.002-0.135,0.002-0.2c-0.014-3.065-0.031-6.131-0.038-9.196c-0.003-1.032,0.03-2.061,0.037-3.091
		c0.005-0.538-0.161-0.696-0.694-0.698c-0.461,0-0.923,0-1.418,0c0-0.203,0-0.357,0-0.509c0-1.745,0.002-3.489,0-5.232
		C46.659,0.236,46.446,0,46.14,0.003c-0.291,0.001-0.5,0.232-0.528,0.578c-0.005,0.076,0,0.154,0,0.233c0,1.71,0,3.422,0,5.133
		c0,0.127,0,0.253,0,0.398c-0.504,0-0.949,0-1.393,0.002c-0.565,0-0.73,0.167-0.73,0.738c0,0.887,0.002,1.776,0.002,2.663
		c0,0.753,0,1.506,0,2.257c0,2.456,0,4.911,0.007,7.367c0.001,0.54,0.162,0.688,0.7,0.69c0.462,0,0.924,0,1.415,0
		c0,0.16,0,0.271,0,0.381c0,3.932,0.001,7.863,0.003,11.797c0,0.838-0.23,1.594-0.77,2.256c-0.742,0.912-1.687,1.422-2.87,1.439
		c-0.986,0.02-1.976,0.006-2.965,0.008c-0.252,0-0.506,0-0.78,0c-0.01-0.129-0.023-0.229-0.023-0.324
		c-0.003-3.24-0.021-33.412-0.038-33.497c-0.13-0.646-0.466-1.183-0.985-1.567c-0.398-0.295-1.599-0.548-1.705-0.55
		c-1.563-0.002-3.131-0.001-4.695-0.001C25.362,0.003,19.941,0.006,14.523,0c-0.602-0.002-1.14,0.165-1.627,0.499
		c-0.11,0.077-0.485,0.435-0.551,0.526c-0.344,0.481-0.544,1.01-0.544,1.61c0.002,5.515,0.002,32.9,0.002,38.097
		c0,0.611,0.224,1.148,0.592,1.627c0.078,0.102,0.419,0.408,0.491,0.457c0.467,0.322,0.979,0.504,1.557,0.504
		c2.555-0.002,13.211-0.027,15.984-0.029c1.721-0.002,3.441,0.027,5.16,0.027c0.758,0,1.405-0.285,1.924-0.846
		c0.496-0.541,0.721-1.178,0.699-1.914c-0.016-0.475-0.003-0.951-0.003-1.465c0.168,0,0.285,0,0.407,0c3.209,0,6.418-0.002,9.626,0
		c2.632,0.004,4.745-2.1,4.747-4.727C52.986,32.046,52.988,29.724,52.984,27.406z M44.697,7.364c0.996-0.013,1.994-0.01,3.046-0.01
		c0,0.644-0.004,1.219,0.002,1.795c0.002,0.375,0.021,0.752,0.032,1.129c0.009,0.221-0.053,0.345-0.32,0.338
		c-0.886-0.023-1.772-0.027-2.659-0.033c-0.181,0-0.261-0.055-0.261-0.247c-0.002-0.921-0.02-1.841-0.018-2.762
		C44.521,7.5,44.636,7.364,44.697,7.364z M44.524,11.631c1.094,0,2.137,0,3.206,0c0,0.373,0,0.683,0,1.056c-0.529,0-1.048,0-1.563,0
		c-0.454,0-0.91-0.017-1.366-0.002c-0.218,0.008-0.301-0.053-0.279-0.28C44.538,12.166,44.524,11.92,44.524,11.631z M44.562,19.003
		c-0.008-0.098-0.023-0.192-0.023-0.287c-0.002-1.541,0.007-3.084-0.006-4.624c-0.002-0.286,0.071-0.384,0.368-0.377
		c0.931,0.019,1.862,0.004,2.824,0.004c0,1.788,0,3.527,0,5.284C46.668,19.003,45.631,19.003,44.562,19.003z M37.185,18.324
		c-0.001,5.731-0.001,11.463-0.002,17.197c0,0.127,0,0.258,0,0.404c-0.41,0-0.774,0-1.158,0c-0.098-0.23-0.178-0.482-0.3-0.715
		c-0.49-0.936-1.493-1.482-2.497-1.379c-1.129,0.117-2.551,0.816-2.852,1.885c-0.064,0.232-0.096,0.479-0.101,0.721
		c-0.012,0.754-0.021,1.51,0.005,2.264c0.038,1.098,1.321,2.102,2.334,2.375c1.171,0.314,2.077,0.096,2.847-0.836
		c0.213-0.258,0.335-0.598,0.461-0.918c0.068-0.172,0.15-0.229,0.335-0.232c0.922-0.016,0.925-0.02,0.92,0.918
		c0,0.299,0.003,0.602-0.038,0.896c-0.107,0.783-0.737,1.334-1.525,1.361c-0.101,0.004-0.199,0.002-0.299,0.002
		c-6.741,0-13.483-0.002-20.225,0.008c-0.597,0-1.172-0.027-1.701-0.334c-0.475-0.518-0.55-1.139-0.548-1.818
		c0.016-4.654,0.01-9.307,0.006-13.964c0-0.12-0.032-0.237-0.05-0.358c0.018-0.082,0.05-0.162,0.05-0.245
		c0.004-2.228,0.004-4.457,0-6.685c0-0.094-0.038-0.186-0.059-0.278c0.021-0.14,0.059-0.278,0.059-0.418
		c0.004-4.89,0.006-9.782-0.002-14.673c-0.002-0.713-0.024-1.418,0.419-2.032c0.605-0.431,1.296-0.426,2.002-0.425
		c4.797,0.011,9.594,0.006,14.392,0.006c1.918,0,3.837,0,5.757,0c1.096-0.001,1.767,0.667,1.767,1.756c0,4.931,0,9.861,0.003,14.791
		c0,0.133,0.018,0.266,0.028,0.396C37.201,18.104,37.185,18.213,37.185,18.324z M37.166,37.869c-0.101,0.402-0.461,0.125-0.698,0.18
		c-0.127,0.029-0.363,0.105-0.37-0.178c-0.009-0.283-0.003-0.57-0.003-0.875c0.371,0,0.708,0,1.083,0
		C37.178,37.3,37.233,37.599,37.166,37.869z M33.545,39.089c0.442,0.01,0.886,0.004,1.326,0.004c0.01,0.557-0.83,1.16-1.539,1.078
		c-0.834-0.1-1.43-0.705-1.463-1.551c-0.029-0.73-0.035-1.467,0.003-2.197c0.035-0.697,0.365-1.215,1.065-1.455
		c0.633-0.219,1.18-0.074,1.647,0.373c0.15,0.146,0.235,0.357,0.393,0.602c-0.531,0-0.972-0.002-1.413,0
		c-0.415,0.004-0.627,0.186-0.62,0.521c0.008,0.326,0.212,0.502,0.612,0.508c0.484,0.006,0.97,0,1.499,0
		c0,0.33-0.006,0.596,0.002,0.865c0.008,0.18-0.082,0.227-0.241,0.223c-0.424-0.006-0.845-0.006-1.266,0
		c-0.383,0.004-0.607,0.193-0.605,0.508C32.947,38.89,33.155,39.082,33.545,39.089z"/>
	<path fill="#3C3241" d="M12.605,3.52c0-0.718-0.023-1.429,0.422-2.047c0.611-0.434,1.306-0.429,2.014-0.428
		C19.865,1.055,33.626,0.73,35.554,0.73c1.104-0.001,2.183,1.277,2.183,2.375c0,4.967-0.41,39.467-0.514,39.467
		c-6.778,0-15.577-0.002-22.358,0.01c-0.598,0-1.178-0.027-1.709-0.338c-0.479-0.521-0.556-1.148-0.552-1.83
		C12.62,35.72,12.616,8.447,12.605,3.52z M15.293,26.079c-0.018,5.351,4.295,9.544,9.59,9.554c5.297,0.01,9.566-4.324,9.514-9.68
		c-0.05-5.198-4.314-9.514-9.729-9.454C19.522,16.554,15.271,20.867,15.293,26.079z M16.278,15.958c0,0,0,0,0,0.002
		c0.705,0,1.407,0.004,2.112-0.004c0.372-0.002,0.591-0.22,0.583-0.547c-0.011-0.322-0.205-0.504-0.579-0.508
		c-1.362-0.006-2.725-0.006-4.088-0.002c-0.413,0.002-0.612,0.193-0.604,0.548c0.008,0.338,0.201,0.507,0.607,0.509
		C14.968,15.961,15.623,15.958,16.278,15.958z M31.299,14.902c-0.37,0.004-0.609,0.217-0.605,0.527
		c0.008,0.311,0.246,0.529,0.607,0.529c1.351,0.003,2.701,0.003,4.05,0c0.387-0.002,0.394-1.055-0.005-1.057
		C34.679,14.898,31.979,14.896,31.299,14.902z"/>
	<path fill="#3C3241" d="M48.229,13.181c0,2.154,0,4.246,0,6.363c-1.391,0-2.756,0-4.159,0c-0.012-0.117-0.032-0.232-0.034-0.346
		c0-1.857,0.01-3.714-0.007-5.57c-0.003-0.344,0.095-0.463,0.486-0.455C45.74,13.196,46.962,13.181,48.229,13.181z"/>
	<path fill="#86C440" d="M35.058,36.974c0,0.33-0.008,0.596,0.002,0.863c0.008,0.18-0.082,0.227-0.242,0.225
		c-0.424-0.008-0.845-0.008-1.265,0c-0.385,0.002-0.608,0.191-0.606,0.506c0.002,0.322,0.21,0.514,0.6,0.523
		c0.443,0.01,0.886,0.002,1.326,0.002c0.009,0.557-0.829,1.16-1.539,1.078c-0.835-0.1-1.43-0.705-1.463-1.549
		c-0.028-0.732-0.035-1.469,0.003-2.199c0.035-0.695,0.364-1.213,1.065-1.455c0.634-0.219,1.181-0.074,1.648,0.375
		c0.149,0.145,0.234,0.355,0.391,0.602c-0.53,0-0.971-0.004-1.413,0c-0.414,0.004-0.626,0.184-0.619,0.521
		c0.008,0.326,0.212,0.502,0.611,0.506C34.041,36.98,34.527,36.974,35.058,36.974z"/>
	<path fill="#3C3241" d="M48.183,6.987c0,0.788-0.004,1.494,0.003,2.198c0.006,0.463,0.029,0.924,0.042,1.387
		c0.01,0.27-0.068,0.423-0.407,0.412c-1.131-0.029-2.262-0.033-3.394-0.039c-0.229-0.003-0.33-0.067-0.33-0.304
		c-0.005-1.129-0.025-2.257-0.022-3.387c0-0.088,0.145-0.253,0.223-0.255C45.568,6.983,46.84,6.987,48.183,6.987z"/>
	<path fill="#86C440" d="M47.73,11.631c0,0.373,0,0.683,0,1.056c-0.529,0-1.048,0-1.563,0c-0.454,0-0.91-0.017-1.366-0.002
		c-0.218,0.008-0.301-0.053-0.279-0.28c0.018-0.239,0.004-0.484,0.004-0.773C45.618,11.631,46.661,11.631,47.73,11.631z"/>
	<path fill="#3C3241" d="M36.095,36.996c0.371,0,0.708,0,1.083,0c0,0.305,0.056,0.604-0.012,0.873
		c-0.101,0.402-0.461,0.125-0.698,0.18c-0.127,0.029-0.363,0.105-0.37-0.178C36.089,37.585,36.095,37.3,36.095,36.996z"/>
	<path fill="#3C3241" d="M50.446,13.435c1.335,0,2.62,0,3.952,0c0,1.961,0,3.906,0,5.873c-1.317,0-2.615,0-3.952,0
		C50.446,17.337,50.446,15.394,50.446,13.435z"/>
	<path fill="#3C3241" d="M50.424,6.951c1.396,0,2.729,0,4.093,0c0,1.348,0,2.673,0,4.045c-0.2,0.01-0.397,0.026-0.594,0.026
		c-1.035,0.004-2.07,0.004-3.105,0c-0.18,0-0.396,0.05-0.396-0.249C50.426,9.514,50.424,8.254,50.424,6.951z"/>
	<path fill="#86C440" d="M54.042,12.656c-1.047,0-2.073,0-3.126,0c0-0.334,0-0.659,0-1.006c1.044,0,2.07,0,3.126,0
		C54.042,11.968,54.042,12.293,54.042,12.656z"/>
	<path fill="#86C440" d="M35.034,10.559c-0.148,0.008-0.29,0.022-0.43,0.022c-4.154,0.002-8.308,0.002-12.463,0.002
		c-2.262,0-4.522-0.009-6.783,0.004c-0.34,0.004-0.431-0.095-0.428-0.429c0.014-2.22,0.008-4.442,0.008-6.663c0-0.1,0-0.199,0-0.357
		c6.72,0,13.395,0,20.096,0C35.034,5.631,35.034,8.08,35.034,10.559z"/>
	<path fill="#3C3241" d="M14.92,26.017c-0.021-5.434,4.418-9.93,9.787-9.988c5.653-0.06,10.104,4.437,10.157,9.857
		c0.054,5.58-4.399,10.1-9.929,10.09C19.404,35.966,14.904,31.591,14.92,26.017z M25.038,17.427
		c-4.591-0.036-8.449,3.75-8.504,8.313c-0.056,4.674,3.658,8.441,8.017,8.609c5.119,0.199,8.802-3.791,8.915-8.225
		C33.589,21.3,29.714,17.439,25.038,17.427z"/>
	<path fill="#86C440" d="M24.791,13.703c-2.193,0-4.386,0-6.582,0c-0.636,0.002-1.271,0.017-1.908,0.017
		c-0.45,0-0.713-0.204-0.705-0.54c0.013-0.316,0.274-0.507,0.708-0.507c4.21-0.001,8.415,0,12.622,0
		c1.455,0,2.909,0.002,4.365-0.001c0.313-0.002,0.568,0.063,0.656,0.402c0.086,0.322-0.113,0.609-0.454,0.642
		c-0.113,0.012-0.228,0.006-0.341,0.006c-2.786,0-5.572,0-8.361,0C24.791,13.713,24.791,13.708,24.791,13.703z"/>
	<path fill="#3C3241" d="M18.355,37.517c0-0.344,0.003-0.689,0-1.031c-0.011-0.91-0.744-1.594-1.732-1.625
		c-0.96-0.029-1.777,0.617-1.827,1.506c-0.044,0.762-0.044,1.529,0,2.295c0.048,0.855,0.889,1.541,1.783,1.516
		c0.998-0.027,1.761-0.725,1.774-1.629C18.359,38.203,18.355,37.861,18.355,37.517z"/>
	<path fill="#86C440" d="M16.347,15.978c-0.689,0-1.377,0.004-2.067,0c-0.426-0.005-0.63-0.172-0.638-0.506
		c-0.009-0.354,0.197-0.541,0.633-0.543c1.432-0.004,2.862-0.004,4.293,0.002c0.391,0.002,0.599,0.184,0.605,0.502
		c0.011,0.326-0.22,0.54-0.609,0.545c-0.739,0.006-1.478,0.002-2.217,0.002C16.347,15.978,16.347,15.978,16.347,15.978z"/>
	<path fill="#86C440" d="M33.266,14.848c0.665,0,1.331-0.001,1.997,0.001c0.391,0.002,0.646,0.24,0.642,0.591
		c-0.002,0.354-0.255,0.6-0.64,0.601c-1.342,0.003-2.683,0.003-4.025,0c-0.359,0-0.6-0.246-0.605-0.595
		c-0.004-0.351,0.233-0.591,0.602-0.595C31.912,14.845,32.59,14.849,33.266,14.848z"/>
	<path fill="#86C440" d="M13.705,1.629c7.576,0,15.103,0,22.659,0c0,3.386,0,6.708,0,10.074c-0.168,0.011-0.326,0.032-0.484,0.032
		c-4.686,0.002-9.37,0.002-14.054,0c-2.548,0-5.1-0.012-7.648,0.01c-0.385,0.002-0.486-0.133-0.483-0.583
		c0.017-3.016,0.009-6.031,0.011-9.048C13.705,1.98,13.705,1.845,13.705,1.629z"/>
	<path fill="#86C440" d="M25.038,17.427c4.676,0.014,8.551,3.873,8.427,8.697c-0.112,4.432-3.795,8.424-8.916,8.225
		c-4.357-0.168-8.07-3.936-8.017-8.609C16.589,21.177,20.447,17.391,25.038,17.427z M32.271,25.904
		c0.072-4.045-3.327-7.279-7.21-7.303c-4.011-0.025-7.364,3.252-7.342,7.32c0.021,4,3.305,7.387,7.54,7.252
		C29.139,33.052,32.315,29.847,32.271,25.904z"/>
	<path fill="#86C440" d="M18.449,37.517c0,0.344,0.005,0.686-0.002,1.031c-0.016,0.904-0.821,1.602-1.879,1.629
		c-0.946,0.025-1.835-0.66-1.887-1.516c-0.046-0.766-0.047-1.533,0-2.295c0.054-0.889,0.92-1.535,1.934-1.506
		c1.049,0.031,1.822,0.715,1.834,1.625C18.452,36.828,18.45,37.173,18.449,37.517z"/>
	<path fill="#3C3241" d="M32.271,25.904c0.044,3.943-3.133,7.148-7.012,7.27c-4.235,0.135-7.52-3.252-7.54-7.252
		c-0.022-4.068,3.331-7.346,7.342-7.32C28.944,18.625,32.344,21.857,32.271,25.904z M30.671,28.416
		c1.191-2.417,0.508-5.35-1.442-7.124c-2.302-2.1-5.292-1.905-6.724-1.044C25.218,22.962,27.931,25.675,30.671,28.416z
		 M19.309,23.375c-1.027,2.308-0.645,5.233,1.628,7.261c1.797,1.604,4.599,1.932,6.563,0.932
		C24.777,28.846,22.054,26.121,19.309,23.375z M19.798,22.322c2.943,2.951,5.821,5.838,8.764,8.789
		c0.573-0.58,1.104-1.115,1.626-1.639c-2.946-2.952-5.823-5.838-8.759-8.777C20.895,21.228,20.359,21.763,19.798,22.322z"/>
	<path fill="#3C3241" d="M31.068,28.867c-2.98-2.982-5.933-5.934-8.885-8.889c1.558-0.937,4.813-1.146,7.316,1.137
		C31.62,23.046,32.363,26.238,31.068,28.867z"/>
	<path fill="#3C3241" d="M18.976,22.99c3.007,3.007,5.988,5.99,8.97,8.973c-2.151,1.096-5.221,0.736-7.188-1.018
		C18.269,28.724,17.85,25.517,18.976,22.99z"/>
	<path fill="#86C440" d="M19.798,22.322c0.562-0.559,1.097-1.094,1.631-1.627c2.936,2.939,5.813,5.825,8.759,8.777
		c-0.521,0.523-1.053,1.059-1.626,1.639C25.619,28.16,22.741,25.273,19.798,22.322z"/>
</g>
</svg>
