<?xml version="1.0" encoding="utf-8"?>
<!-- Generator: Adobe Illustrator 16.0.0, SVG Export Plug-In . SVG Version: 6.00 Build 0)  -->
<!DOCTYPE svg PUBLIC "-//W3C//DTD SVG 1.1//EN" "http://www.w3.org/Graphics/SVG/1.1/DTD/svg11.dtd">
<svg version="1.1" id="Calque_1" xmlns="http://www.w3.org/2000/svg" xmlns:xlink="http://www.w3.org/1999/xlink" x="0px" y="0px"
	 width="48.697px" height="57.382px" viewBox="0 0 48.697 57.382" enable-background="new 0 0 48.697 57.382" xml:space="preserve">
<g enable-background="new    ">
	<path fill="#3C3241" d="M5.15,55.062H1.939l-0.762,2.197H0l3.076-8.531h0.99l3.012,8.531H5.9L5.15,55.062z M2.273,54.095h2.549
		L3.58,50.433H3.545L2.273,54.095z"/>
	<path fill="#3C3241" d="M11.174,51.939l-0.592-0.035c-0.305,0-0.562,0.072-0.771,0.217s-0.37,0.348-0.483,0.609v4.529H8.174v-6.34
		h1.031l0.111,0.926c0.18-0.328,0.401-0.584,0.665-0.768s0.567-0.275,0.911-0.275c0.086,0,0.168,0.006,0.246,0.02
		s0.143,0.029,0.193,0.045L11.174,51.939z"/>
	<path fill="#3C3241" d="M14.08,49.39v1.529h1.201v0.855H14.08v3.85c0,0.297,0.062,0.506,0.185,0.627s0.286,0.182,0.489,0.182
		c0.066,0,0.141-0.01,0.223-0.027s0.15-0.035,0.205-0.055l0.158,0.791c-0.086,0.07-0.213,0.127-0.381,0.172
		s-0.334,0.068-0.498,0.068c-0.469,0-0.842-0.143-1.119-0.426s-0.416-0.727-0.416-1.332v-3.85h-1.008v-0.855h1.008V49.39H14.08z"/>
	<path fill="#3C3241" d="M17.766,49.296h-1.154v-1.178h1.154V49.296z M17.766,57.259h-1.154v-6.34h1.154V57.259z"/>
	<path fill="#3C3241" d="M23.227,55.554c0-0.254-0.097-0.461-0.29-0.621s-0.56-0.301-1.099-0.422
		c-0.746-0.16-1.319-0.385-1.72-0.674s-0.601-0.676-0.601-1.16c0-0.516,0.22-0.957,0.659-1.324s1.009-0.551,1.708-0.551
		c0.719,0,1.301,0.195,1.746,0.586s0.658,0.846,0.639,1.365l-0.012,0.035h-1.102c0-0.273-0.12-0.521-0.36-0.744
		s-0.544-0.334-0.911-0.334c-0.406,0-0.71,0.092-0.911,0.275s-0.302,0.402-0.302,0.656c0,0.25,0.087,0.443,0.261,0.58
		s0.532,0.262,1.075,0.375c0.777,0.164,1.367,0.396,1.77,0.697s0.604,0.693,0.604,1.178c0,0.563-0.228,1.021-0.683,1.377
		s-1.05,0.533-1.784,0.533c-0.809,0-1.445-0.205-1.91-0.615s-0.686-0.889-0.662-1.436l0.012-0.035h1.102
		c0.02,0.41,0.172,0.709,0.457,0.898s0.619,0.285,1.002,0.285c0.41,0,0.731-0.088,0.964-0.262S23.227,55.824,23.227,55.554z"/>
	<path fill="#3C3241" d="M29.713,57.259c-0.039-0.191-0.069-0.361-0.091-0.508s-0.034-0.293-0.038-0.441
		c-0.215,0.305-0.495,0.559-0.841,0.764s-0.718,0.309-1.116,0.309c-0.66,0-1.163-0.17-1.509-0.508S25.6,56.072,25.6,55.478
		c0-0.605,0.245-1.08,0.735-1.422s1.155-0.512,1.995-0.512h1.254v-0.627c0-0.371-0.113-0.666-0.34-0.883s-0.547-0.324-0.961-0.324
		c-0.375,0-0.678,0.094-0.908,0.281s-0.346,0.412-0.346,0.674l-1.096,0.012l-0.012-0.035c-0.027-0.461,0.188-0.883,0.647-1.266
		s1.052-0.574,1.778-0.574c0.719,0,1.297,0.182,1.734,0.547s0.656,0.893,0.656,1.58v3.053c0,0.227,0.012,0.445,0.035,0.656
		s0.066,0.418,0.129,0.621H29.713z M27.797,56.416c0.418,0,0.795-0.107,1.131-0.322s0.555-0.461,0.656-0.738v-1.031h-1.295
		c-0.465,0-0.837,0.117-1.116,0.352s-0.419,0.51-0.419,0.826c0,0.281,0.088,0.504,0.264,0.668S27.453,56.416,27.797,56.416z"/>
	<path fill="#3C3241" d="M33.445,50.919l0.082,0.943c0.211-0.336,0.476-0.598,0.794-0.783s0.681-0.277,1.087-0.277
		c0.684,0,1.213,0.199,1.588,0.6s0.563,1.02,0.563,1.855v4.002h-1.154v-3.979c0-0.559-0.11-0.955-0.331-1.189
		s-0.558-0.352-1.011-0.352c-0.355,0-0.657,0.07-0.905,0.213s-0.444,0.344-0.589,0.602v4.705h-1.154v-6.34H33.445z"/>
	<path fill="#3C3241" d="M43.131,57.259c-0.039-0.191-0.069-0.361-0.091-0.508s-0.034-0.293-0.038-0.441
		c-0.215,0.305-0.495,0.559-0.841,0.764s-0.718,0.309-1.116,0.309c-0.66,0-1.163-0.17-1.509-0.508s-0.519-0.803-0.519-1.396
		c0-0.605,0.245-1.08,0.735-1.422s1.155-0.512,1.995-0.512h1.254v-0.627c0-0.371-0.113-0.666-0.34-0.883s-0.547-0.324-0.961-0.324
		c-0.375,0-0.678,0.094-0.908,0.281s-0.346,0.412-0.346,0.674l-1.096,0.012l-0.012-0.035c-0.027-0.461,0.188-0.883,0.647-1.266
		s1.052-0.574,1.778-0.574c0.719,0,1.297,0.182,1.734,0.547s0.656,0.893,0.656,1.58v3.053c0,0.227,0.012,0.445,0.035,0.656
		s0.066,0.418,0.129,0.621H43.131z M41.215,56.416c0.418,0,0.795-0.107,1.131-0.322s0.555-0.461,0.656-0.738v-1.031h-1.295
		c-0.465,0-0.837,0.117-1.116,0.352s-0.419,0.51-0.419,0.826c0,0.281,0.088,0.504,0.264,0.668S40.871,56.416,41.215,56.416z"/>
	<path fill="#3C3241" d="M47.438,49.39v1.529h1.201v0.855h-1.201v3.85c0,0.297,0.062,0.506,0.185,0.627s0.286,0.182,0.489,0.182
		c0.066,0,0.141-0.01,0.223-0.027s0.15-0.035,0.205-0.055l0.158,0.791c-0.086,0.07-0.213,0.127-0.381,0.172
		s-0.334,0.068-0.498,0.068c-0.469,0-0.842-0.143-1.119-0.426s-0.416-0.727-0.416-1.332v-3.85h-1.008v-0.855h1.008V49.39H47.438z"/>
</g>
<g>
	<path fill="#86C440" d="M38.842,8.471c0,9.313,0,18.63,0,27.944c-1.054,0.604-2.123,1.182-3.153,1.826
		c-0.376,0.234-0.648,0.197-0.982-0.002c-0.954-0.572-1.915-1.135-2.874-1.701c-0.144-0.084-0.253-0.105-0.427,0
		c-1.059,0.625-2.137,1.217-3.194,1.844c-0.193,0.115-0.308,0.082-0.465-0.012c-1.022-0.598-2.054-1.182-3.067-1.799
		c-0.211-0.127-0.353-0.119-0.544-0.008c-0.971,0.572-1.952,1.129-2.914,1.717c-0.301,0.182-0.527,0.18-0.826-0.002
		c-0.962-0.588-1.944-1.145-2.917-1.717c-0.192-0.113-0.337-0.113-0.543,0.012c-1.013,0.617-2.043,1.203-3.069,1.797
		c-0.118,0.066-0.226,0.176-0.394,0.059c-0.199-0.141-0.419-0.254-0.634-0.373c-0.972-0.541-1.898-1.158-2.902-1.639
		c0-9.316,0-18.631,0-27.945c1.078-0.624,2.155-1.243,3.229-1.872c0.263-0.155,0.49-0.239,0.791-0.057
		c1.004,0.604,2.024,1.179,3.032,1.775c0.155,0.092,0.259,0.098,0.424,0.002c1.049-0.615,2.113-1.201,3.158-1.821
		c0.202-0.118,0.312-0.093,0.497,0.017c1.022,0.602,2.063,1.172,3.079,1.783c0.236,0.144,0.398,0.088,0.587-0.022
		c0.985-0.578,1.974-1.151,2.953-1.738c0.222-0.134,0.404-0.149,0.635-0.011c0.944,0.563,1.91,1.092,2.846,1.667
		c0.304,0.188,0.538,0.205,0.836,0.027c0.968-0.579,1.944-1.141,2.916-1.716c0.188-0.111,0.331-0.13,0.549,0.001
		C36.583,7.179,37.714,7.819,38.842,8.471z M31.24,22.455c-0.074-0.121-0.134-0.237-0.209-0.34
		c-2.139-2.945-4.282-5.889-6.417-8.837c-0.153-0.211-0.215-0.288-0.411-0.016c-2.112,2.948-4.235,5.888-6.377,8.813
		c-0.21,0.286-0.19,0.451,0,0.711c1.474,2.018,2.937,4.045,4.399,6.072c0.642,0.889,1.274,1.787,1.921,2.672
		c0.143,0.199,0.267,0.354,0.507,0.02c2.128-2.973,4.278-5.93,6.421-8.891C31.123,22.593,31.181,22.528,31.24,22.455z
		 M13.166,14.652c-0.008,0.396,0.162,0.537,0.66,0.543c1.075,0.014,1.079,0.014,1.084,1.09c0.002,0.359,0.066,0.642,0.502,0.656
		c0.336,0.012,0.521-0.213,0.551-0.631c0.025-0.357-0.162-0.816,0.095-1.043c0.245-0.219,0.696-0.061,1.056-0.066
		c0.339-0.01,0.58-0.137,0.585-0.493c0.004-0.363-0.224-0.547-0.583-0.556c-0.275-0.01-0.552-0.015-0.827,0
		c-0.245,0.01-0.34-0.088-0.329-0.331c0.011-0.306,0.021-0.612-0.009-0.915c-0.034-0.338-0.258-0.524-0.596-0.494
		c-0.299,0.028-0.444,0.237-0.44,0.541c0.002,0.291-0.011,0.583,0.002,0.873c0.013,0.248-0.092,0.335-0.334,0.326
		c-0.289-0.013-0.582-0.021-0.871,0.005C13.421,14.181,13.18,14.304,13.166,14.652z M32.947,16.943
		c0.339-0.008,0.45-0.272,0.478-0.603c0.031-0.359-0.152-0.819,0.078-1.054c0.247-0.254,0.718-0.072,1.088-0.088
		c0.321-0.012,0.55-0.133,0.571-0.461c0.021-0.359-0.191-0.564-0.55-0.588c-0.246-0.013-0.496-0.021-0.739,0
		c-0.33,0.029-0.489-0.071-0.452-0.43c0.027-0.26,0.021-0.524-0.001-0.785c-0.024-0.338-0.229-0.541-0.568-0.525
		c-0.329,0.016-0.476,0.232-0.473,0.556c0.001,0.277-0.011,0.552,0.005,0.827c0.014,0.259-0.076,0.373-0.349,0.357
		c-0.304-0.015-0.612-0.028-0.914,0.013c-0.291,0.038-0.512,0.192-0.488,0.546c0.022,0.344,0.212,0.486,0.542,0.486
		c0.26-0.002,0.524,0.018,0.782-0.005c0.316-0.025,0.457,0.073,0.429,0.411c-0.025,0.287-0.013,0.58-0.002,0.871
		C32.396,16.791,32.582,16.935,32.947,16.943z M15.476,33.187c0.344-0.008,0.458-0.27,0.485-0.6c0.029-0.361-0.15-0.818,0.075-1.055
		c0.246-0.258,0.716-0.076,1.087-0.092c0.319-0.01,0.552-0.129,0.575-0.457c0.023-0.361-0.187-0.564-0.548-0.59
		c-0.188-0.014-0.378-0.004-0.566-0.006c-0.621,0-0.621,0-0.621-0.641c0-0.189,0.012-0.379-0.006-0.566
		c-0.03-0.338-0.226-0.541-0.565-0.529c-0.328,0.014-0.479,0.229-0.478,0.553c0.002,0.246-0.018,0.496,0.004,0.74
		c0.031,0.329-0.071,0.486-0.431,0.449c-0.274-0.025-0.556-0.029-0.827,0.009c-0.292,0.042-0.517,0.192-0.494,0.548
		c0.022,0.34,0.212,0.488,0.538,0.486c0.232,0,0.468,0.023,0.696-0.006c0.438-0.059,0.566,0.131,0.52,0.539
		c-0.027,0.242-0.01,0.492-0.002,0.74C14.931,33.029,15.112,33.177,15.476,33.187z M32.979,33.185
		c0.326-0.027,0.42-0.295,0.448-0.625c0.031-0.355-0.157-0.813,0.091-1.045c0.242-0.227,0.694-0.068,1.053-0.074
		c0.34-0.004,0.582-0.127,0.592-0.482c0.013-0.361-0.214-0.554-0.573-0.566c-0.262-0.008-0.523-0.016-0.784,0
		c-0.277,0.02-0.402-0.071-0.382-0.366c0.019-0.289,0.022-0.583-0.006-0.87c-0.032-0.338-0.25-0.529-0.588-0.502
		c-0.302,0.023-0.452,0.229-0.451,0.534c0.001,0.29-0.009,0.582,0.005,0.872c0.008,0.24-0.078,0.343-0.327,0.332
		c-0.291-0.013-0.585-0.021-0.872,0.006c-0.312,0.028-0.563,0.154-0.552,0.535c0.011,0.367,0.217,0.51,0.563,0.506
		c0.26-0.004,0.523,0.014,0.783-0.006c0.295-0.021,0.428,0.074,0.404,0.389c-0.021,0.289-0.009,0.582,0,0.871
		C32.392,33.035,32.585,33.185,32.979,33.185z"/>
	<path fill="#3C3241" d="M9.936,36.416c1.006,0.482,1.931,1.1,2.902,1.641c0.215,0.117,0.435,0.232,0.634,0.373
		c0.166,0.117,0.275,0.008,0.394-0.059c1.026-0.594,2.055-1.182,3.069-1.797c0.206-0.125,0.351-0.125,0.543-0.012
		c0.973,0.57,1.954,1.127,2.917,1.715c0.299,0.182,0.525,0.186,0.826,0.002c0.962-0.586,1.943-1.143,2.914-1.715
		c0.191-0.113,0.333-0.121,0.544,0.006c1.014,0.617,2.046,1.203,3.067,1.801c0.157,0.094,0.273,0.125,0.465,0.012
		c1.058-0.627,2.136-1.221,3.194-1.844c0.174-0.105,0.283-0.084,0.427,0c0.959,0.566,1.92,1.129,2.874,1.699
		c0.333,0.199,0.604,0.238,0.982,0.004c1.027-0.646,2.1-1.223,3.153-1.826c0,2.662-0.008,5.326,0.008,7.988
		c0.004,0.328-0.07,0.451-0.401,0.398c-0.156-0.025-0.32-0.004-0.481-0.004c-0.216-0.215-0.279-0.469-0.269-0.775
		c0.024-0.594-0.002-1.189,0.013-1.781c0.005-0.232-0.043-0.344-0.308-0.33c-0.434,0.021-0.869,0.02-1.304,0
		c-0.246-0.01-0.327,0.068-0.32,0.318c0.018,0.578-0.012,1.158,0.013,1.738c0.013,0.322-0.067,0.59-0.27,0.83
		c-0.203,0-0.407,0-0.61,0c-0.21-0.156-0.272-0.367-0.267-0.627c0.014-0.65-0.004-1.303,0.008-1.953
		c0.004-0.215-0.046-0.313-0.285-0.307c-0.477,0.018-0.956,0.016-1.434,0.002c-0.226-0.008-0.302,0.064-0.297,0.293
		c0.014,0.68-0.005,1.363,0.01,2.041c0.004,0.217-0.047,0.391-0.18,0.551c-0.234,0-0.466,0-0.699,0
		c-0.192-0.26-0.258-0.563-0.261-0.877c-0.003-0.566-0.014-1.131,0.005-1.695c0.006-0.252-0.08-0.326-0.324-0.314
		c-0.418,0.016-0.84,0.018-1.26,0c-0.252-0.012-0.36,0.049-0.35,0.328c0.022,0.594-0.011,1.189,0.014,1.783
		c0.013,0.307-0.053,0.561-0.269,0.773c-0.204,0-0.407,0-0.612,0c-0.203-0.24-0.28-0.512-0.269-0.834
		c0.022-0.566-0.004-1.135,0.013-1.701c0.008-0.256-0.049-0.371-0.333-0.354c-0.42,0.023-0.845,0.023-1.265,0
		c-0.285-0.018-0.342,0.098-0.333,0.354c0.017,0.566-0.013,1.135,0.011,1.701c0.015,0.322-0.064,0.592-0.269,0.834
		c-0.202,0-0.406,0-0.61,0c-0.215-0.213-0.281-0.467-0.27-0.773c0.022-0.578-0.004-1.16,0.012-1.74
		c0.008-0.264-0.043-0.395-0.349-0.373c-0.419,0.025-0.84,0.02-1.26,0.002c-0.243-0.012-0.33,0.063-0.321,0.314
		c0.016,0.58-0.002,1.16,0.008,1.738c0.006,0.313-0.078,0.588-0.267,0.834c-0.232,0-0.465,0-0.698,0
		c-0.133-0.16-0.185-0.334-0.181-0.551c0.015-0.678-0.003-1.361,0.011-2.041c0.004-0.23-0.071-0.301-0.297-0.293
		c-0.463,0.014-0.929,0.021-1.391-0.004c-0.283-0.014-0.337,0.098-0.331,0.352c0.015,0.635-0.004,1.273,0.009,1.91
		c0.006,0.26-0.056,0.469-0.267,0.627c-0.204,0-0.406,0-0.61,0c-0.202-0.24-0.283-0.508-0.269-0.83
		c0.023-0.58-0.005-1.16,0.013-1.738c0.006-0.25-0.075-0.328-0.32-0.318c-0.434,0.02-0.87,0.021-1.305,0
		c-0.262-0.014-0.312,0.1-0.306,0.33c0.014,0.592-0.013,1.188,0.012,1.781c0.011,0.307-0.052,0.561-0.27,0.775
		c-0.203,0-0.407,0-0.612,0c-0.217-0.215-0.281-0.469-0.269-0.775c0.022-0.594-0.002-1.189,0.011-1.781
		c0.006-0.232-0.044-0.344-0.306-0.33c-0.435,0.021-0.871,0.02-1.305,0c-0.246-0.01-0.328,0.068-0.32,0.318
		c0.016,0.578-0.013,1.158,0.012,1.738c0.012,0.322-0.067,0.59-0.27,0.83c-0.203,0-0.407,0-0.61,0
		c-0.21-0.156-0.272-0.367-0.267-0.627c0.014-0.654-0.004-1.307,0.01-1.957c0.003-0.221-0.055-0.309-0.291-0.303
		c-0.479,0.018-0.958,0.018-1.437,0c-0.235-0.006-0.294,0.082-0.29,0.303c0.013,0.65-0.004,1.303,0.01,1.957
		c0.005,0.26-0.057,0.469-0.268,0.627c-0.204,0-0.408,0-0.61,0c-0.054-0.119-0.142-0.207-0.263-0.262
		C9.936,41.83,9.936,39.123,9.936,36.416z"/>
	<path fill="#3C3241" d="M38.842,8.471c-1.128-0.652-2.259-1.292-3.374-1.964c-0.217-0.131-0.361-0.112-0.548-0.001
		c-0.973,0.575-1.95,1.137-2.918,1.716C31.705,8.4,31.47,8.38,31.166,8.195c-0.935-0.576-1.899-1.104-2.843-1.667
		c-0.233-0.139-0.416-0.123-0.637,0.011c-0.98,0.588-1.968,1.161-2.953,1.738c-0.188,0.11-0.351,0.166-0.587,0.022
		c-1.015-0.611-2.057-1.181-3.078-1.783c-0.187-0.11-0.297-0.134-0.498-0.017c-1.045,0.622-2.109,1.207-3.158,1.821
		c-0.165,0.096-0.27,0.09-0.424-0.002c-1.008-0.596-2.029-1.172-3.031-1.775c-0.303-0.182-0.53-0.098-0.795,0.057
		c-1.071,0.63-2.151,1.248-3.227,1.871c0-2.737,0-5.474,0-8.209C10.139,0.269,10.225,0.084,10.372,0c0.117,0,0.232,0,0.351,0
		c0.288,0.17,0.37,0.416,0.356,0.75C11.052,1.375,11.083,2,11.066,2.626c-0.006,0.256,0.052,0.364,0.333,0.349
		c0.449-0.024,0.902-0.024,1.353,0c0.283,0.015,0.341-0.093,0.334-0.349C13.068,2,13.099,1.375,13.072,0.75
		C13.058,0.416,13.141,0.17,13.429,0c0.117,0,0.234,0,0.351,0c0.325,0.213,0.463,0.5,0.444,0.898
		c-0.031,0.581,0.001,1.162-0.013,1.743c-0.006,0.232,0.039,0.344,0.306,0.332c0.435-0.021,0.873-0.02,1.307,0
		c0.252,0.01,0.325-0.078,0.318-0.323c-0.015-0.594,0.018-1.192-0.013-1.785C16.108,0.469,16.205,0.176,16.573,0
		c0.086,0,0.174,0,0.263,0c0.368,0.176,0.465,0.469,0.444,0.867c-0.032,0.593,0.002,1.191-0.015,1.785
		c-0.006,0.244,0.066,0.332,0.317,0.323c0.435-0.02,0.873-0.021,1.308,0c0.265,0.012,0.31-0.101,0.305-0.332
		c-0.013-0.582,0.019-1.163-0.012-1.744C19.165,0.5,19.304,0.213,19.63,0c0.116,0,0.232,0,0.351,0
		c0.288,0.17,0.371,0.416,0.356,0.75C20.311,1.375,20.34,2,20.324,2.626c-0.008,0.256,0.05,0.364,0.333,0.349
		c0.45-0.024,0.902-0.024,1.353,0c0.281,0.015,0.339-0.093,0.333-0.349C22.326,2,22.358,1.375,22.329,0.75
		C22.315,0.416,22.396,0.17,22.687,0c0.116,0,0.233,0,0.349,0c0.339,0.208,0.446,0.522,0.44,0.903
		c-0.012,0.582,0.006,1.163-0.008,1.747c-0.007,0.241,0.057,0.334,0.313,0.325c0.437-0.021,0.875-0.021,1.31,0
		c0.265,0.012,0.312-0.098,0.308-0.331c-0.014-0.626,0.016-1.25-0.012-1.876C25.372,0.396,25.483,0.142,25.829,0
		c0.089,0,0.177,0,0.263,0c0.341,0.217,0.481,0.504,0.448,0.93c-0.045,0.577-0.004,1.161-0.015,1.74
		c-0.007,0.22,0.052,0.313,0.288,0.304c0.45-0.017,0.898-0.017,1.35,0c0.238,0.008,0.295-0.084,0.289-0.304
		c-0.012-0.58,0.028-1.164-0.015-1.74c-0.03-0.426,0.106-0.713,0.448-0.93c0.089,0,0.175,0,0.262,0
		c0.349,0.142,0.46,0.396,0.445,0.767c-0.025,0.637-0.002,1.28-0.011,1.92c-0.002,0.195,0.041,0.291,0.262,0.285
		c0.465-0.016,0.934-0.013,1.397,0c0.215,0.006,0.271-0.078,0.27-0.28c-0.012-0.596,0.004-1.194-0.009-1.79
		C31.496,0.522,31.604,0.208,31.941,0c0.117,0,0.233,0,0.351,0c0.287,0.168,0.372,0.415,0.357,0.748
		c-0.027,0.608,0.015,1.22-0.018,1.827c-0.017,0.341,0.104,0.419,0.417,0.4c0.418-0.026,0.843-0.022,1.263-0.001
		c0.264,0.012,0.352-0.064,0.343-0.338c-0.02-0.623,0.014-1.249-0.014-1.872c-0.012-0.37,0.1-0.624,0.446-0.765
		c0.086,0,0.174,0,0.262,0c0.327,0.213,0.463,0.5,0.443,0.898c-0.028,0.581,0.002,1.163-0.011,1.745
		c-0.006,0.232,0.04,0.344,0.305,0.332c0.436-0.021,0.873-0.02,1.308,0c0.251,0.01,0.324-0.078,0.317-0.323
		c-0.016-0.594,0.02-1.192-0.013-1.785c-0.02-0.397,0.077-0.69,0.444-0.867c0.699,0,0.699,0,0.699,0.7
		C38.842,3.289,38.842,5.879,38.842,8.471z"/>
	<path fill="#3C3241" d="M31.24,22.455c-0.061,0.072-0.117,0.139-0.166,0.205c-2.143,2.961-4.293,5.918-6.421,8.891
		c-0.239,0.334-0.364,0.18-0.507-0.02c-0.646-0.885-1.279-1.783-1.921-2.672c-1.465-2.027-2.927-4.055-4.399-6.072
		c-0.189-0.26-0.21-0.424,0-0.711c2.142-2.926,4.264-5.866,6.377-8.813c0.196-0.273,0.257-0.196,0.411,0.016
		c2.135,2.948,4.278,5.892,6.417,8.837C31.106,22.218,31.166,22.333,31.24,22.455z M26.706,22.335
		c-0.021-0.325-0.209-0.502-0.583-0.506c-0.362-0.007-0.816,0.15-1.061-0.061c-0.278-0.238-0.085-0.713-0.1-1.083
		c-0.015-0.339-0.133-0.582-0.487-0.591c-0.365-0.01-0.544,0.22-0.565,0.58c-0.021,0.361,0.15,0.816-0.071,1.059
		c-0.243,0.264-0.716,0.068-1.087,0.098c-0.336,0.025-0.573,0.178-0.574,0.521c-0.001,0.346,0.233,0.515,0.57,0.523
		c0.275,0.009,0.554,0.014,0.829,0c0.24-0.011,0.345,0.076,0.335,0.327c-0.015,0.289-0.022,0.583,0.004,0.873
		c0.028,0.312,0.156,0.562,0.539,0.549c0.37-0.011,0.508-0.222,0.502-0.567c-0.005-0.289,0.008-0.581-0.002-0.871
		c-0.009-0.225,0.079-0.316,0.307-0.309c0.32,0.01,0.639,0.006,0.961-0.002C26.538,22.868,26.691,22.689,26.706,22.335z"/>
	<path fill="#3C3241" d="M13.166,14.652c0.014-0.348,0.252-0.471,0.545-0.498c0.287-0.023,0.582-0.017,0.871-0.004
		c0.239,0.01,0.347-0.077,0.334-0.326c-0.013-0.29,0-0.582-0.002-0.873c-0.002-0.305,0.142-0.512,0.44-0.541
		c0.338-0.03,0.562,0.155,0.596,0.494c0.029,0.303,0.02,0.609,0.009,0.914c-0.011,0.244,0.084,0.342,0.329,0.33
		c0.275-0.013,0.552-0.008,0.827,0c0.358,0.011,0.587,0.195,0.583,0.558c-0.004,0.356-0.246,0.483-0.585,0.491
		c-0.359,0.009-0.811-0.15-1.056,0.068c-0.257,0.227-0.069,0.686-0.095,1.043c-0.029,0.416-0.215,0.641-0.551,0.631
		c-0.436-0.015-0.5-0.297-0.502-0.656c-0.005-1.076-0.009-1.076-1.084-1.09C13.328,15.188,13.158,15.048,13.166,14.652z"/>
	<path fill="#3C3241" d="M32.947,16.943c-0.366-0.01-0.552-0.152-0.563-0.471c-0.011-0.291-0.023-0.584,0.002-0.871
		c0.027-0.338-0.112-0.437-0.429-0.411c-0.258,0.022-0.522,0.003-0.782,0.005c-0.329,0-0.519-0.143-0.542-0.486
		c-0.023-0.354,0.197-0.508,0.488-0.546c0.302-0.041,0.61-0.026,0.914-0.013c0.272,0.016,0.362-0.099,0.349-0.357
		c-0.016-0.275-0.004-0.55-0.005-0.827c-0.003-0.325,0.146-0.541,0.473-0.556c0.34-0.016,0.544,0.188,0.568,0.525
		c0.022,0.261,0.028,0.525,0.001,0.785c-0.037,0.358,0.121,0.459,0.452,0.43c0.243-0.021,0.493-0.013,0.739,0
		c0.36,0.021,0.573,0.229,0.55,0.588c-0.021,0.328-0.25,0.45-0.571,0.461c-0.372,0.016-0.841-0.166-1.088,0.088
		c-0.23,0.234-0.047,0.694-0.078,1.054C33.397,16.671,33.287,16.935,32.947,16.943z"/>
	<path fill="#3C3241" d="M15.476,33.187c-0.362-0.01-0.545-0.158-0.558-0.475c-0.008-0.248-0.026-0.498,0-0.742
		c0.048-0.406-0.08-0.596-0.519-0.537c-0.229,0.029-0.464,0.004-0.696,0.004c-0.328,0.002-0.516-0.145-0.537-0.484
		c-0.023-0.357,0.201-0.507,0.493-0.549c0.271-0.037,0.552-0.033,0.826-0.008c0.36,0.035,0.461-0.12,0.433-0.45
		c-0.022-0.245-0.002-0.493-0.004-0.74c-0.004-0.325,0.148-0.54,0.476-0.552c0.34-0.013,0.536,0.189,0.567,0.529
		c0.017,0.188,0.004,0.375,0.004,0.564c0,0.643,0,0.643,0.622,0.643c0.188,0,0.378-0.009,0.566,0.004
		c0.361,0.025,0.571,0.23,0.547,0.592c-0.021,0.326-0.254,0.447-0.574,0.457c-0.37,0.014-0.841-0.166-1.088,0.092
		c-0.225,0.234-0.045,0.693-0.075,1.053C15.933,32.917,15.819,33.179,15.476,33.187z"/>
	<path fill="#3C3241" d="M32.979,33.185c-0.395,0-0.588-0.15-0.596-0.492c-0.008-0.289-0.021-0.582,0.002-0.871
		c0.022-0.313-0.11-0.41-0.405-0.389c-0.26,0.02-0.523,0.002-0.783,0.006c-0.347,0.004-0.554-0.139-0.563-0.504
		c-0.011-0.381,0.24-0.506,0.552-0.536c0.288-0.026,0.581-0.019,0.872-0.007c0.248,0.012,0.334-0.092,0.326-0.33
		c-0.013-0.291-0.003-0.583-0.004-0.873c-0.001-0.305,0.148-0.51,0.45-0.535c0.338-0.026,0.556,0.164,0.589,0.504
		c0.027,0.286,0.023,0.58,0.006,0.869c-0.02,0.294,0.105,0.385,0.383,0.367c0.26-0.017,0.521-0.009,0.783,0
		c0.359,0.012,0.586,0.205,0.573,0.564c-0.011,0.355-0.252,0.48-0.591,0.484c-0.359,0.006-0.811-0.152-1.053,0.074
		c-0.248,0.23-0.061,0.688-0.092,1.045C33.399,32.888,33.306,33.158,32.979,33.185z"/>
	<path fill="#3C3241" d="M26.706,22.335c-0.015,0.354-0.168,0.532-0.483,0.541c-0.322,0.008-0.641,0.012-0.961,0.002
		c-0.228-0.008-0.315,0.084-0.307,0.309c0.01,0.29-0.003,0.582,0.002,0.871c0.006,0.346-0.132,0.557-0.502,0.567
		c-0.383,0.013-0.511-0.237-0.539-0.549c-0.026-0.29-0.019-0.584-0.004-0.873c0.01-0.25-0.095-0.337-0.335-0.327
		c-0.275,0.014-0.553,0.009-0.829,0c-0.337-0.009-0.571-0.178-0.57-0.523c0.001-0.344,0.24-0.496,0.574-0.521
		c0.371-0.028,0.844,0.166,1.087-0.098c0.221-0.24,0.05-0.697,0.071-1.059c0.021-0.36,0.2-0.59,0.565-0.58
		c0.354,0.009,0.473,0.252,0.487,0.591c0.015,0.372-0.179,0.846,0.1,1.083c0.244,0.209,0.699,0.054,1.061,0.061
		C26.497,21.833,26.686,22.01,26.706,22.335z"/>
</g>
</svg>
