<?xml version="1.0" encoding="utf-8"?>
<!-- Generator: Adobe Illustrator 16.0.0, SVG Export Plug-In . SVG Version: 6.00 Build 0)  -->
<!DOCTYPE svg PUBLIC "-//W3C//DTD SVG 1.1//EN" "http://www.w3.org/Graphics/SVG/1.1/DTD/svg11.dtd">
<svg version="1.1" id="Calque_1" xmlns="http://www.w3.org/2000/svg" xmlns:xlink="http://www.w3.org/1999/xlink" x="0px" y="0px"
	 width="70.5px" height="57.121px" viewBox="0 0 70.5 57.121" enable-background="new 0 0 70.5 57.121" xml:space="preserve">
<g enable-background="new    ">
	<path fill="#3C3241" d="M10.712,55.875c-0.197,0.311-0.545,0.597-1.035,0.854c-0.49,0.26-1.128,0.392-1.913,0.392
		c-0.963,0-1.762-0.32-2.393-0.959c-0.63-0.638-0.947-1.466-0.947-2.479v-1.721c0-1.015,0.305-1.84,0.914-2.479
		c0.607-0.639,1.392-0.958,2.352-0.958c0.929,0,1.662,0.247,2.203,0.742c0.539,0.496,0.801,1.126,0.784,1.892l-0.012,0.033H9.584
		c0-0.509-0.167-0.933-0.495-1.27c-0.33-0.34-0.794-0.51-1.399-0.51c-0.64,0-1.154,0.239-1.544,0.719
		C5.755,50.61,5.56,51.216,5.56,51.951v1.73c0,0.742,0.206,1.354,0.621,1.834c0.412,0.479,0.94,0.719,1.583,0.719
		c0.492,0,0.885-0.063,1.174-0.191c0.288-0.127,0.504-0.278,0.646-0.455v-1.883H7.689v-0.884h3.022L10.712,55.875L10.712,55.875z"/>
	<path fill="#3C3241" d="M15.078,57.121c-0.893,0-1.586-0.285-2.085-0.855c-0.5-0.569-0.749-1.319-0.749-2.249v-0.252
		c0-0.89,0.257-1.629,0.772-2.211c0.513-0.583,1.142-0.876,1.883-0.876c0.83,0,1.452,0.26,1.868,0.773
		c0.416,0.516,0.622,1.203,0.622,2.06v0.599h-3.97l-0.016,0.029c0,0.622,0.137,1.128,0.412,1.516
		c0.275,0.389,0.696,0.582,1.262,0.582c0.383,0,0.719-0.054,1.008-0.163c0.288-0.108,0.535-0.259,0.741-0.448l0.443,0.733
		c-0.223,0.213-0.516,0.396-0.879,0.542C16.028,57.046,15.59,57.121,15.078,57.121z M14.899,51.565
		c-0.392,0-0.719,0.153-0.978,0.457c-0.257,0.304-0.415,0.692-0.473,1.168l0.012,0.028h2.799v-0.092
		c0-0.453-0.111-0.825-0.332-1.119C15.704,51.712,15.363,51.565,14.899,51.565z"/>
	<path fill="#3C3241" d="M22.267,55.33c0-0.248-0.096-0.451-0.284-0.607c-0.189-0.156-0.547-0.294-1.075-0.413
		c-0.731-0.156-1.291-0.376-1.684-0.66c-0.394-0.282-0.589-0.66-0.589-1.135c0-0.507,0.215-0.938,0.646-1.296
		c0.431-0.361,0.986-0.541,1.672-0.541c0.704,0,1.273,0.191,1.709,0.574c0.436,0.384,0.646,0.828,0.625,1.336l-0.011,0.035h-1.08
		c0-0.27-0.116-0.511-0.351-0.729c-0.235-0.218-0.533-0.328-0.893-0.328c-0.398,0-0.695,0.091-0.894,0.271
		c-0.196,0.181-0.294,0.396-0.294,0.645c0,0.243,0.084,0.434,0.255,0.566c0.171,0.135,0.521,0.258,1.052,0.367
		c0.761,0.162,1.34,0.39,1.732,0.684c0.396,0.294,0.593,0.678,0.593,1.152c0,0.551-0.224,1-0.669,1.349
		c-0.446,0.349-1.027,0.522-1.748,0.522c-0.791,0-1.414-0.201-1.87-0.604c-0.455-0.4-0.669-0.871-0.648-1.406l0.013-0.033h1.078
		c0.02,0.4,0.169,0.694,0.448,0.881c0.279,0.186,0.606,0.276,0.979,0.276c0.401,0,0.718-0.084,0.945-0.255
		C22.153,55.811,22.267,55.593,22.267,55.33z"/>
	<path fill="#3C3241" d="M26.374,49.294v1.498h1.178v0.836h-1.178v3.77c0,0.293,0.061,0.495,0.18,0.615
		c0.121,0.119,0.282,0.179,0.481,0.179c0.064,0,0.136-0.01,0.217-0.024c0.08-0.021,0.146-0.039,0.2-0.057l0.156,0.773
		c-0.085,0.07-0.21,0.125-0.374,0.17c-0.164,0.044-0.326,0.066-0.486,0.066c-0.46,0-0.825-0.14-1.098-0.416
		c-0.271-0.278-0.405-0.713-0.405-1.308v-3.769h-0.987v-0.838h0.987v-1.496H26.374L26.374,49.294z"/>
	<path fill="#3C3241" d="M29.982,49.203h-1.131V48.05h1.131V49.203z M29.982,57h-1.131v-6.207h1.131V57z"/>
	<path fill="#3C3241" d="M31.458,53.839c0-0.92,0.248-1.676,0.743-2.271c0.499-0.595,1.174-0.893,2.025-0.893
		c0.861,0,1.541,0.297,2.041,0.889c0.5,0.593,0.748,1.351,0.748,2.272v0.127c0,0.924-0.248,1.682-0.746,2.271
		c-0.498,0.591-1.174,0.886-2.028,0.886c-0.859,0-1.536-0.298-2.034-0.888c-0.5-0.591-0.749-1.347-0.749-2.269V53.839z
		 M32.588,53.964c0,0.658,0.139,1.201,0.415,1.629c0.278,0.43,0.688,0.643,1.238,0.643c0.538,0,0.946-0.213,1.227-0.643
		c0.277-0.428,0.417-0.971,0.417-1.629v-0.125c0-0.65-0.141-1.191-0.42-1.625c-0.283-0.432-0.693-0.648-1.236-0.648
		c-0.539,0-0.946,0.219-1.226,0.648c-0.276,0.434-0.415,0.975-0.415,1.625V53.964z"/>
	<path fill="#3C3241" d="M39.408,50.792l0.081,0.922c0.204-0.326,0.465-0.584,0.778-0.767c0.311-0.18,0.664-0.271,1.063-0.271
		c0.669,0,1.188,0.195,1.554,0.589c0.368,0.392,0.552,0.996,0.552,1.815V57h-1.129v-3.896c0-0.548-0.107-0.937-0.324-1.166
		c-0.215-0.229-0.547-0.344-0.99-0.344c-0.348,0-0.643,0.069-0.885,0.212c-0.244,0.138-0.438,0.333-0.578,0.587v4.604h-1.131v-6.207
		h1.01V50.792z"/>
</g>
<g>
	<g>
		<polygon fill="#3C3241" points="57.967,16.621 54.398,16.98 55.313,17.982 48.262,24.041 44.559,22.286 36.884,28.652 
			36.884,30.935 44.879,24.304 48.617,26.074 56.421,19.199 57.393,20.263 		"/>
		<polygon fill="#86C440" points="70.5,18.211 67.424,18.521 68.21,19.383 62.131,24.607 58.938,23.094 41.593,36.929 
			41.593,38.896 59.213,24.835 62.438,26.361 69.166,20.433 70.003,21.35 		"/>
	</g>
	<g>
		<path fill="#86C440" d="M16.613,10.353c-0.657-0.001-1.189-0.534-1.19-1.19l0,0V1.191C15.424,0.533,15.955,0,16.613,0l0,0H29.9
			c0.656,0.001,1.188,0.531,1.188,1.191l0,0v7.971c0,0.658-0.532,1.189-1.188,1.19l0,0L16.613,10.353L16.613,10.353z M29.504,8.77
			V1.585H17.006V8.77H29.504L29.504,8.77z"/>
		<path fill="#3C3241" d="M45.632,41.126c0,0.287-0.225,0.521-0.5,0.521H1.379c-0.277,0-0.498-0.232-0.498-0.521V7.793
			c0-0.288,0.221-0.521,0.498-0.521h43.753c0.275,0,0.5,0.233,0.5,0.521V41.126z"/>
		<path fill="#3C3241" d="M46.51,22.116c0,0.288-0.23,0.521-0.515,0.521H0.518C0.232,22.638,0,22.404,0,22.116V6.217
			c0-0.289,0.232-0.521,0.518-0.521h45.479c0.282,0,0.515,0.233,0.515,0.521L46.51,22.116L46.51,22.116z"/>
		<rect x="19.471" y="21.635" fill="#86C440" width="7.569" height="3.58"/>
	</g>
</g>
</svg>
