<?xml version="1.0" encoding="utf-8"?>
<!-- Generator: Adobe Illustrator 16.0.0, SVG Export Plug-In . SVG Version: 6.00 Build 0)  -->
<!DOCTYPE svg PUBLIC "-//W3C//DTD SVG 1.1//EN" "http://www.w3.org/Graphics/SVG/1.1/DTD/svg11.dtd">
<svg version="1.1" id="Calque_1" xmlns="http://www.w3.org/2000/svg" xmlns:xlink="http://www.w3.org/1999/xlink" x="0px" y="0px"
	 width="57.845px" height="59.6px" viewBox="0 0 57.845 59.6" enable-background="new 0 0 57.845 59.6" xml:space="preserve">
<g>
	<g>
		<rect x="24.12" fill="#86C440" width="0.738" height="16.152"/>
		<rect x="41.059" fill="#86C440" width="0.738" height="16.152"/>
		<rect x="37.074" y="21.953" fill="#86C440" width="19.204" height="0.695"/>
		<polygon fill="#86C440" points="29,0 28.265,0 28.265,5.458 32.784,5.458 32.784,13.987 33.521,13.987 33.521,4.765 29,4.765 		
			"/>
		<polygon fill="#86C440" points="56.278,10.248 56.278,9.554 50.478,9.554 50.478,13.806 41.413,13.806 41.413,14.499 
			51.218,14.499 51.218,10.248 		"/>
		<polygon fill="#86C440" points="43.955,49.806 44.691,49.806 44.691,46.459 42.028,46.459 42.028,42.089 41.291,42.089 
			41.291,47.154 43.955,47.154 		"/>
		<polygon fill="#86C440" points="20.061,0 20.061,4.238 15.746,4.238 15.746,9.727 16.485,9.727 16.485,4.929 20.801,4.929 
			20.801,0 		"/>
		<polygon fill="#86C440" points="15.113,38.518 5.095,38.518 5.095,34.458 0,34.458 0,33.762 5.836,33.762 5.836,37.825 
			15.113,37.825 		"/>
		<polygon fill="#86C440" points="15.113,21.845 5.095,21.845 5.095,25.906 0,25.906 0,26.6 5.836,26.6 5.836,22.54 15.113,22.54 		
			"/>
		<path fill="#86C440" d="M56.278,33.982h-0.735v-3.621c-1.572,0.006-7.519,0.03-8.488-0.004l0.025-0.691
			c1.081,0.037,8.753,0,8.831,0l0.366-0.002L56.278,33.982L56.278,33.982z"/>
		<path fill="#86C440" d="M24.673,49.738h-2.659v-0.693h1.918c-0.005-1.477-0.031-7.068,0.005-7.982l0.736,0.024
			c-0.041,1.019,0,8.232,0,8.306V49.738z"/>
		<path fill="#86C440" d="M37.345,49.738h-4.59l0.003-0.346c0-0.074,0.039-7.287,0-8.306l0.737-0.024
			c0.034,0.914,0.007,6.506,0.003,7.982h3.847V49.738z"/>
		<rect x="44.223" y="37.725" fill="#86C440" width="12.056" height="0.692"/>
		<rect y="13.821" fill="#86C440" width="16.116" height="0.694"/>
		<rect y="29.755" fill="#86C440" width="12.058" height="0.693"/>
		<rect x="15.746" y="38.395" fill="#86C440" width="0.739" height="11.343"/>
		<rect x="13.544" y="7.802" fill="#3C3241" width="4.953" height="2.858"/>
		<rect x="22.014" y="7.802" fill="#3C3241" width="4.953" height="2.858"/>
		<rect x="30.481" y="7.802" fill="#3C3241" width="4.951" height="2.858"/>
		<rect x="38.954" y="7.802" fill="#3C3241" width="4.951" height="2.858"/>
		<rect x="13.544" y="41.58" fill="#3C3241" width="4.953" height="2.858"/>
		<rect x="22.014" y="41.58" fill="#3C3241" width="4.953" height="2.858"/>
		<rect x="30.481" y="41.58" fill="#3C3241" width="4.951" height="2.858"/>
		<rect x="38.954" y="41.58" fill="#3C3241" width="4.951" height="2.858"/>
		<rect x="45.155" y="11.837" fill="#3C3241" width="3.037" height="4.662"/>
		<rect x="45.155" y="19.804" fill="#3C3241" width="3.037" height="4.662"/>
		<rect x="45.155" y="27.774" fill="#3C3241" width="3.037" height="4.661"/>
		<rect x="45.155" y="35.743" fill="#3C3241" width="3.037" height="4.659"/>
		<rect x="9.252" y="11.837" fill="#3C3241" width="3.036" height="4.662"/>
		<rect x="9.252" y="19.804" fill="#3C3241" width="3.036" height="4.662"/>
		<rect x="9.252" y="27.774" fill="#3C3241" width="3.036" height="4.661"/>
		<rect x="9.252" y="35.743" fill="#3C3241" width="3.036" height="4.659"/>
		<rect x="10.771" y="9.231" fill="#3C3241" width="35.905" height="33.778"/>
		<g>
			<g>
				<g>
					<rect x="17.388" y="15.333" fill="#86C440" width="3.496" height="3.288"/>
					<rect x="22.18" y="15.333" fill="#86C440" width="3.498" height="3.288"/>
					<rect x="26.977" y="15.333" fill="#86C440" width="3.494" height="3.288"/>
					<rect x="31.771" y="15.333" fill="#86C440" width="3.496" height="3.288"/>
					<rect x="36.569" y="15.333" fill="#86C440" width="3.492" height="3.288"/>
				</g>
				<g>
					<rect x="17.388" y="19.905" fill="#86C440" width="3.496" height="3.29"/>
					<rect x="22.18" y="19.905" fill="#86C440" width="3.498" height="3.29"/>
					<rect x="26.977" y="19.905" fill="#86C440" width="3.494" height="3.29"/>
					<rect x="31.771" y="19.905" fill="#86C440" width="3.496" height="3.29"/>
					<rect x="36.569" y="19.905" fill="#86C440" width="3.492" height="3.29"/>
				</g>
				<g>
					<rect x="17.388" y="24.476" fill="#86C440" width="3.496" height="3.289"/>
					<rect x="22.18" y="24.476" fill="#86C440" width="3.498" height="3.289"/>
					<rect x="26.977" y="24.476" fill="#86C440" width="3.494" height="3.289"/>
					<rect x="31.771" y="24.476" fill="#86C440" width="3.496" height="3.289"/>
					<rect x="36.569" y="24.476" fill="#86C440" width="3.492" height="3.289"/>
				</g>
				<g>
					<rect x="17.388" y="29.046" fill="#86C440" width="3.496" height="3.291"/>
					<rect x="22.18" y="29.046" fill="#86C440" width="3.498" height="3.291"/>
					<rect x="26.977" y="29.046" fill="#86C440" width="3.494" height="3.291"/>
					<rect x="31.771" y="29.046" fill="#86C440" width="3.496" height="3.291"/>
					<rect x="36.569" y="29.046" fill="#86C440" width="3.492" height="3.291"/>
				</g>
				<g>
					<rect x="17.388" y="33.619" fill="#86C440" width="3.496" height="3.288"/>
					<rect x="22.18" y="33.619" fill="#86C440" width="3.498" height="3.288"/>
					<rect x="26.977" y="33.619" fill="#86C440" width="3.494" height="3.288"/>
					<rect x="31.771" y="33.619" fill="#86C440" width="3.496" height="3.288"/>
					<rect x="36.569" y="33.619" fill="#86C440" width="3.492" height="3.288"/>
				</g>
			</g>
		</g>
	</g>
</g>
<g enable-background="new    ">
	<path fill="#3C3241" d="M5.183,53.43H1.801v2.946H5.76v0.871H0.687v-8.234h5.011v0.877H1.801v2.663h3.382V53.43z"/>
	<path fill="#3C3241" d="M7.92,51.128l0.079,0.803c0.2-0.29,0.453-0.515,0.761-0.675c0.307-0.161,0.664-0.241,1.071-0.241
		s0.757,0.095,1.049,0.283s0.512,0.471,0.659,0.848c0.195-0.351,0.451-0.627,0.766-0.828c0.315-0.201,0.684-0.303,1.106-0.303
		c0.622,0,1.114,0.215,1.476,0.642c0.362,0.429,0.543,1.072,0.543,1.932v3.659h-1.114v-3.67c0-0.604-0.104-1.03-0.311-1.281
		s-0.518-0.376-0.928-0.376c-0.381,0-0.689,0.132-0.924,0.396c-0.236,0.265-0.375,0.598-0.416,1.001v0.046v3.885h-1.12v-3.67
		c0-0.573-0.106-0.993-0.319-1.258c-0.213-0.268-0.521-0.399-0.919-0.399c-0.34,0-0.619,0.069-0.837,0.209
		c-0.219,0.14-0.387,0.335-0.504,0.588v4.53H6.924v-6.119H7.92z"/>
	<path fill="#3C3241" d="M22.272,54.419c0,0.883-0.212,1.595-0.637,2.135c-0.423,0.541-1.007,0.813-1.75,0.813
		c-0.407,0-0.761-0.08-1.06-0.24c-0.301-0.161-0.548-0.397-0.744-0.71l-0.181,0.831h-0.854v-8.822h1.114v3.427
		c0.192-0.271,0.431-0.479,0.715-0.622c0.285-0.143,0.617-0.215,0.999-0.215c0.754,0,1.343,0.302,1.765,0.905
		c0.421,0.604,0.633,1.396,0.633,2.381V54.419z M21.158,54.301c0-0.701-0.129-1.273-0.387-1.717
		c-0.259-0.442-0.651-0.664-1.18-0.664c-0.342,0-0.632,0.084-0.867,0.252c-0.236,0.167-0.424,0.393-0.563,0.676V55.5
		c0.144,0.301,0.331,0.537,0.563,0.706c0.23,0.17,0.525,0.255,0.879,0.255c0.523,0,0.914-0.187,1.171-0.56
		c0.256-0.374,0.384-0.867,0.384-1.482V54.301z"/>
	<path fill="#3C3241" d="M27.391,57.248c-0.038-0.186-0.067-0.348-0.088-0.489c-0.021-0.141-0.032-0.284-0.036-0.427
		c-0.208,0.294-0.478,0.539-0.813,0.738c-0.333,0.197-0.692,0.297-1.077,0.297c-0.637,0-1.122-0.164-1.456-0.489
		c-0.333-0.326-0.5-0.776-0.5-1.35c0-0.584,0.236-1.041,0.71-1.371c0.473-0.33,1.115-0.495,1.925-0.495h1.211v-0.604
		c0-0.358-0.109-0.643-0.328-0.851c-0.219-0.21-0.527-0.314-0.928-0.314c-0.362,0-0.653,0.091-0.877,0.271
		c-0.223,0.181-0.333,0.397-0.333,0.65l-1.058,0.011l-0.012-0.033c-0.025-0.445,0.182-0.853,0.626-1.222
		c0.442-0.369,1.015-0.555,1.716-0.555c0.693,0,1.252,0.177,1.674,0.528c0.422,0.354,0.634,0.861,0.634,1.524v2.947
		c0,0.219,0.011,0.43,0.033,0.633c0.022,0.204,0.064,0.403,0.125,0.6H27.391z M25.541,56.433c0.404,0,0.768-0.104,1.092-0.311
		c0.324-0.208,0.536-0.445,0.634-0.713v-0.995h-1.25c-0.449,0-0.808,0.112-1.078,0.339c-0.269,0.227-0.403,0.492-0.403,0.798
		c0,0.271,0.084,0.486,0.254,0.645S25.21,56.433,25.541,56.433z"/>
	<path fill="#3C3241" d="M32.894,52.113l-0.571-0.034c-0.294,0-0.542,0.069-0.744,0.209c-0.201,0.14-0.357,0.336-0.466,0.589v4.371
		h-1.114v-6.119h0.995l0.107,0.894c0.174-0.316,0.387-0.563,0.643-0.741c0.253-0.177,0.548-0.266,0.879-0.266
		c0.082,0,0.161,0.007,0.237,0.02c0.076,0.014,0.138,0.027,0.187,0.043L32.894,52.113z"/>
	<path fill="#3C3241" d="M33.69,54.301c0-0.984,0.21-1.777,0.631-2.381s1.01-0.905,1.768-0.905c0.369,0,0.695,0.071,0.978,0.212
		c0.283,0.143,0.524,0.347,0.725,0.614l0.158-0.713h0.854V59.6h-1.113v-2.93c-0.196,0.23-0.429,0.403-0.696,0.521
		s-0.572,0.176-0.916,0.176c-0.746,0-1.331-0.271-1.753-0.813c-0.423-0.54-0.634-1.252-0.634-2.135V54.301z M34.805,54.419
		c0,0.618,0.128,1.119,0.382,1.502c0.255,0.383,0.646,0.574,1.174,0.574c0.305,0,0.565-0.068,0.782-0.204
		c0.218-0.136,0.399-0.326,0.547-0.571v-3.088c-0.147-0.229-0.329-0.411-0.547-0.542c-0.217-0.132-0.474-0.198-0.771-0.198
		c-0.531,0-0.925,0.226-1.182,0.676s-0.385,1.028-0.385,1.733V54.419z"/>
	<path fill="#3C3241" d="M44.413,56.342c-0.192,0.328-0.438,0.581-0.741,0.758c-0.302,0.178-0.65,0.267-1.046,0.267
		c-0.667,0-1.188-0.214-1.561-0.64c-0.374-0.426-0.561-1.09-0.561-1.99v-3.608h1.114v3.619c0,0.652,0.097,1.102,0.289,1.347
		c0.191,0.244,0.491,0.367,0.898,0.367c0.396,0,0.724-0.08,0.982-0.24c0.257-0.16,0.452-0.388,0.584-0.682v-4.411h1.114v6.119
		h-1.001L44.413,56.342z"/>
	<path fill="#3C3241" d="M49.645,57.367c-0.879,0-1.564-0.281-2.056-0.843c-0.493-0.562-0.738-1.301-0.738-2.217v-0.249
		c0-0.878,0.254-1.605,0.761-2.18c0.507-0.575,1.126-0.863,1.857-0.863c0.818,0,1.432,0.255,1.842,0.764
		c0.408,0.509,0.612,1.186,0.612,2.03v0.588H48.01l-0.017,0.028c0,0.615,0.136,1.113,0.407,1.496s0.687,0.574,1.244,0.574
		c0.376,0,0.707-0.055,0.992-0.161c0.285-0.108,0.528-0.256,0.732-0.444l0.436,0.724c-0.219,0.211-0.508,0.39-0.865,0.535
		C50.581,57.293,50.15,57.367,49.645,57.367z M49.469,51.892c-0.389,0-0.71,0.149-0.964,0.45c-0.255,0.299-0.41,0.683-0.467,1.15
		l0.012,0.028h2.76V53.43c0-0.445-0.11-0.813-0.328-1.103C50.263,52.038,49.926,51.892,49.469,51.892z M49.888,48.527h1.301
		l0.011,0.034l-1.521,1.471h-0.837L49.888,48.527z"/>
	<path fill="#3C3241" d="M56.73,55.602c0-0.245-0.093-0.445-0.28-0.6c-0.187-0.154-0.54-0.29-1.061-0.407
		c-0.721-0.154-1.272-0.372-1.659-0.65s-0.58-0.652-0.58-1.12c0-0.497,0.212-0.923,0.637-1.277c0.423-0.355,0.973-0.532,1.648-0.532
		c0.692,0,1.255,0.188,1.685,0.565c0.43,0.378,0.636,0.816,0.617,1.318l-0.012,0.033h-1.063c0-0.264-0.115-0.503-0.348-0.718
		c-0.231-0.215-0.525-0.322-0.879-0.322c-0.393,0-0.686,0.089-0.879,0.266c-0.195,0.177-0.292,0.389-0.292,0.634
		c0,0.241,0.084,0.428,0.251,0.56c0.168,0.132,0.514,0.253,1.038,0.362c0.751,0.158,1.319,0.383,1.708,0.673
		s0.583,0.669,0.583,1.137c0,0.543-0.22,0.985-0.659,1.329c-0.439,0.343-1.014,0.515-1.722,0.515c-0.781,0-1.396-0.198-1.844-0.594
		c-0.448-0.396-0.662-0.858-0.64-1.386l0.012-0.034h1.063c0.019,0.396,0.166,0.686,0.44,0.868c0.275,0.183,0.598,0.274,0.968,0.274
		c0.396,0,0.706-0.084,0.93-0.252C56.618,56.076,56.73,55.862,56.73,55.602z"/>
</g>
</svg>
