<?xml version="1.0" encoding="utf-8"?>
<!-- Generator: Adobe Illustrator 16.0.0, SVG Export Plug-In . SVG Version: 6.00 Build 0)  -->
<!DOCTYPE svg PUBLIC "-//W3C//DTD SVG 1.1//EN" "http://www.w3.org/Graphics/SVG/1.1/DTD/svg11.dtd">
<svg version="1.1" id="Calque_1" xmlns="http://www.w3.org/2000/svg" xmlns:xlink="http://www.w3.org/1999/xlink" x="0px" y="0px"
	 width="77.822px" height="59.154px" viewBox="0 0 77.822 59.154" enable-background="new 0 0 77.822 59.154" xml:space="preserve">
<g>
	<path fill="#3C3241" d="M43.764,26.969c-3.652,0.064-7.285-0.129-10.896-0.734c-0.9-0.151-1.234-0.361-1.202-1.414
		c0.181-5.814,1.276-11.389,3.957-16.592c1.216-2.359,2.698-4.514,4.836-6.155c3.184-2.446,6.551-2.634,10.189-1.052
		c6.619,2.883,9.689,8.292,10.972,15.036c0.328,1.718,0.394,3.465,0.539,5.201c0.106,1.272-0.681,1.992-1.645,2.559
		c-1.656,0.97-3.465,1.551-5.326,1.974C51.428,26.642,47.604,26.902,43.764,26.969z"/>
	<path fill="#3C3241" d="M39.594,0.354c-4.688,3.025-7.033,7.683-8.829,12.707c-1.408,3.938-2.161,8.006-2.236,12.192
		c-0.003,0.159-0.01,0.317-0.033,0.476c-0.226,1.555-0.513,1.73-1.995,1.23c-0.959-0.322-1.919-0.651-2.882-0.965
		c-0.332-0.105-0.666-0.245-0.449-0.643c0.786-1.44,0.442-3.051,0.74-4.565c1.499-7.72,5.097-14.126,11.638-18.698
		c1.197-0.837,2.495-1.505,3.9-1.939C39.496,0.218,39.546,0.286,39.594,0.354z"/>
	<path fill="#3C3241" d="M47.244,30.779c-4.057,1.736-7.854,4.352-12.607,3.756c-3.188-0.402-6.255-1.311-9.332-2.178
		c-2.134-0.602-4.282-1.162-6.245-2.234c-0.359-0.197-0.719-0.402-1.048-0.648c-0.435-0.324-0.514-0.74-0.08-1.118
		c1.053-0.914,2.133-1.8,3.192-2.702c0.283-0.242,0.468-0.213,0.674,0.107c0.934,1.434,2.388,2.149,3.929,2.682
		c4.997,1.734,10.191,2.234,15.438,2.332C43.189,30.811,45.217,30.779,47.244,30.779z"/>
	<path fill="#86C440" d="M27.417,28.242c1.191,0.188,1.855-0.756,2.629-1.34c0.648-0.49,1.234-0.561,2.013-0.432
		c8.215,1.391,16.405,1.367,24.527-0.666c1.912-0.479,3.773-1.123,5.251-2.531c0.112-0.104,0.267-0.281,0.398-0.143
		c0.562,0.596,1.297,1.143,1.57,1.859c0.207,0.543-0.507,1.109-1.025,1.475c-1.856,1.302-4.014,1.86-6.172,2.363
		c-5.665,1.32-11.422,1.48-17.207,1.221c-3.808-0.168-7.583-0.557-11.269-1.581C27.891,28.4,27.655,28.316,27.417,28.242z"/>
	<path fill="#86C440" d="M41.803,0.331c-6.121,3.852-8.332,9.926-9.878,16.378c-0.604,2.532-0.852,5.121-0.855,7.729
		c-0.003,0.813-0.881,1.911-1.633,2.084c-0.327,0.076-0.366-0.084-0.354-0.359c0.341-7.979,2.168-15.476,7.14-21.942
		c1.175-1.528,2.656-2.715,4.387-3.571C40.938,0.487,41.253,0.242,41.803,0.331z"/>
	<path fill="#86C440" d="M24.547,15.5c1.271-7.74,6.164-13.346,12.097-14.914C30.682,3.999,27.024,9.267,24.547,15.5z"/>
	<path fill="#1B79B9" d="M39.447,0.149c0.117,0,0.313-0.042,0.337,0.007c0.088,0.167-0.102,0.15-0.19,0.198
		C39.546,0.286,39.496,0.218,39.447,0.149z"/>
</g>
<g>
	<g>
		<path fill="#3C3241" d="M13.359,45.371v-7.82h2.551c0.816,0,1.455,0.178,1.918,0.529c0.461,0.354,0.692,0.883,0.692,1.588
			c0,0.336-0.104,0.639-0.312,0.904c-0.207,0.268-0.483,0.471-0.827,0.609c0.513,0.072,0.917,0.295,1.216,0.666
			c0.3,0.373,0.449,0.811,0.449,1.316c0,0.717-0.232,1.264-0.698,1.641c-0.466,0.379-1.096,0.566-1.891,0.566H13.359z
			 M14.417,40.875h1.714c0.394,0,0.714-0.107,0.961-0.324s0.371-0.518,0.371-0.904c0-0.424-0.134-0.738-0.4-0.949
			c-0.268-0.209-0.65-0.314-1.152-0.314h-1.493V40.875z M14.417,41.703v2.842h2.041c0.483,0,0.858-0.119,1.126-0.357
			c0.266-0.238,0.399-0.576,0.399-1.014c0-0.432-0.136-0.781-0.408-1.047c-0.272-0.264-0.64-0.406-1.101-0.424h-0.07H14.417z"/>
		<path fill="#3C3241" d="M23.779,45.371c-0.036-0.176-0.064-0.33-0.084-0.465c-0.02-0.133-0.031-0.27-0.035-0.404
			c-0.196,0.279-0.453,0.512-0.77,0.701c-0.318,0.188-0.658,0.281-1.023,0.281c-0.605,0-1.066-0.154-1.383-0.465
			c-0.318-0.309-0.477-0.736-0.477-1.281c0-0.555,0.225-0.988,0.674-1.303c0.45-0.313,1.06-0.469,1.83-0.469h1.148v-0.576
			c0-0.34-0.104-0.609-0.311-0.807c-0.208-0.199-0.502-0.299-0.881-0.299c-0.344,0-0.621,0.086-0.833,0.258
			s-0.317,0.377-0.317,0.617l-1.004,0.012l-0.011-0.033c-0.024-0.422,0.173-0.809,0.593-1.16c0.422-0.35,0.965-0.525,1.631-0.525
			c0.658,0,1.189,0.166,1.59,0.502c0.4,0.334,0.602,0.816,0.602,1.447v2.799c0,0.207,0.011,0.408,0.032,0.602
			s0.062,0.383,0.118,0.568H23.779z M24.074,38.367v0.135h-0.865l-0.789-0.795l-0.784,0.795h-0.859v-0.141l1.321-1.271h0.645
			L24.074,38.367z M22.022,44.598c0.384,0,0.729-0.098,1.036-0.295c0.309-0.197,0.509-0.422,0.602-0.678V42.68h-1.187
			c-0.427,0-0.767,0.107-1.022,0.322c-0.257,0.215-0.385,0.469-0.385,0.758c0,0.258,0.08,0.463,0.242,0.613
			C21.469,44.523,21.707,44.598,22.022,44.598z"/>
		<path fill="#3C3241" d="M27.727,38.158v1.402h1.102v0.783h-1.102v3.529c0,0.271,0.057,0.463,0.17,0.574
			c0.111,0.111,0.262,0.166,0.447,0.166c0.062,0,0.129-0.008,0.205-0.023c0.074-0.016,0.137-0.033,0.188-0.051l0.145,0.725
			c-0.078,0.064-0.195,0.117-0.349,0.158s-0.306,0.063-0.456,0.063c-0.43,0-0.771-0.129-1.026-0.389s-0.382-0.668-0.382-1.223
			v-3.529h-0.924v-0.783h0.924v-1.402H27.727z"/>
		<path fill="#3C3241" d="M31.105,38.072h-1.059v-1.08h1.059V38.072z M31.105,45.371h-1.059v-5.811h1.059V45.371z"/>
		<path fill="#3C3241" d="M33.678,39.561l0.075,0.762c0.19-0.275,0.431-0.488,0.722-0.641c0.293-0.152,0.632-0.229,1.019-0.229
			s0.719,0.09,0.997,0.268c0.277,0.18,0.485,0.447,0.625,0.807c0.186-0.334,0.429-0.596,0.729-0.787
			c0.299-0.191,0.648-0.287,1.049-0.287c0.592,0,1.059,0.203,1.402,0.609s0.516,1.018,0.516,1.834v3.475h-1.059v-3.486
			c0-0.572-0.098-0.977-0.295-1.215s-0.49-0.357-0.881-0.357c-0.361,0-0.654,0.125-0.879,0.375
			c-0.223,0.252-0.354,0.568-0.395,0.951v0.043v3.689H36.24v-3.486c0-0.543-0.102-0.941-0.305-1.193
			c-0.201-0.254-0.492-0.379-0.872-0.379c-0.322,0-0.587,0.066-0.795,0.197c-0.208,0.133-0.367,0.32-0.478,0.559v4.303h-1.059
			v-5.811H33.678z"/>
		<path fill="#3C3241" d="M44.753,45.484c-0.835,0-1.485-0.268-1.952-0.801S42.1,43.449,42.1,42.578v-0.236
			c0-0.834,0.24-1.523,0.723-2.07c0.481-0.545,1.069-0.818,1.764-0.818c0.777,0,1.36,0.24,1.748,0.725
			c0.389,0.482,0.584,1.127,0.584,1.928v0.559h-3.717l-0.017,0.027c0,0.584,0.129,1.057,0.387,1.42s0.651,0.545,1.182,0.545
			c0.358,0,0.673-0.051,0.942-0.152c0.271-0.102,0.502-0.242,0.695-0.422l0.414,0.688c-0.207,0.201-0.481,0.371-0.822,0.508
			C45.643,45.416,45.232,45.484,44.753,45.484z M44.586,40.285c-0.368,0-0.674,0.143-0.916,0.428
			c-0.24,0.283-0.389,0.648-0.442,1.092l0.011,0.027h2.621v-0.086c0-0.422-0.104-0.771-0.312-1.047S45.02,40.285,44.586,40.285z"/>
		<path fill="#3C3241" d="M49.05,39.561l0.075,0.863c0.193-0.307,0.436-0.547,0.729-0.717c0.291-0.17,0.623-0.254,0.996-0.254
			c0.626,0,1.111,0.184,1.455,0.551s0.516,0.934,0.516,1.699v3.668h-1.059v-3.646c0-0.512-0.101-0.875-0.303-1.09
			c-0.203-0.215-0.512-0.322-0.927-0.322c-0.325,0-0.603,0.064-0.829,0.195c-0.229,0.131-0.408,0.314-0.541,0.551v4.313h-1.058
			v-5.811H49.05z"/>
		<path fill="#3C3241" d="M55.828,38.158v1.402h1.102v0.783h-1.102v3.529c0,0.271,0.057,0.463,0.17,0.574
			c0.111,0.111,0.262,0.166,0.447,0.166c0.062,0,0.129-0.008,0.205-0.023c0.074-0.016,0.137-0.033,0.188-0.051l0.145,0.725
			c-0.078,0.064-0.195,0.117-0.349,0.158s-0.306,0.063-0.456,0.063c-0.43,0-0.771-0.129-1.026-0.389s-0.382-0.668-0.382-1.223
			v-3.529h-0.924v-0.783h0.924v-1.402H55.828z"/>
		<path fill="#3C3241" d="M61.441,43.809c0-0.232-0.09-0.422-0.266-0.57c-0.178-0.146-0.514-0.275-1.008-0.387
			c-0.684-0.146-1.209-0.352-1.576-0.617c-0.367-0.264-0.551-0.619-0.551-1.063c0-0.473,0.201-0.877,0.604-1.215
			c0.404-0.336,0.926-0.504,1.566-0.504c0.658,0,1.192,0.178,1.601,0.537c0.408,0.357,0.604,0.775,0.585,1.25l-0.01,0.033h-1.01
			c0-0.25-0.111-0.479-0.33-0.682c-0.221-0.205-0.5-0.307-0.836-0.307c-0.373,0-0.65,0.084-0.836,0.252
			c-0.184,0.168-0.275,0.369-0.275,0.602c0,0.23,0.079,0.406,0.238,0.531c0.16,0.127,0.488,0.24,0.986,0.344
			c0.712,0.15,1.253,0.365,1.621,0.641c0.369,0.275,0.554,0.635,0.554,1.078c0,0.516-0.208,0.938-0.626,1.264
			c-0.417,0.326-0.962,0.488-1.635,0.488c-0.742,0-1.325-0.188-1.752-0.564c-0.426-0.375-0.628-0.814-0.606-1.316l0.011-0.031h1.01
			c0.018,0.375,0.158,0.65,0.419,0.824s0.567,0.26,0.919,0.26c0.375,0,0.67-0.078,0.883-0.238
			C61.334,44.26,61.441,44.055,61.441,43.809z"/>
	</g>
</g>
<g enable-background="new    ">
	<path fill="#3C3241" d="M6.381,49.186H3.803v6.988H2.744v-6.988H0.199v-0.832h6.182V49.186z"/>
	<path fill="#3C3241" d="M9.695,51.297l-0.543-0.033c-0.279,0-0.515,0.066-0.706,0.199c-0.192,0.133-0.339,0.318-0.443,0.559v4.152
		H6.945v-5.813h0.945l0.102,0.85c0.164-0.301,0.368-0.535,0.609-0.703c0.242-0.17,0.521-0.254,0.836-0.254
		c0.078,0,0.153,0.006,0.225,0.02c0.072,0.012,0.131,0.025,0.178,0.041L9.695,51.297z"/>
	<path fill="#3C3241" d="M14.367,56.174c-0.035-0.176-0.063-0.33-0.082-0.465c-0.021-0.135-0.032-0.27-0.035-0.406
		c-0.197,0.279-0.455,0.514-0.771,0.701s-0.658,0.283-1.023,0.283c-0.604,0-1.066-0.156-1.383-0.465
		c-0.316-0.311-0.475-0.738-0.475-1.281c0-0.555,0.225-0.99,0.674-1.303c0.449-0.314,1.059-0.471,1.828-0.471h1.15v-0.574
		c0-0.34-0.104-0.609-0.313-0.809c-0.207-0.199-0.501-0.297-0.881-0.297c-0.344,0-0.621,0.086-0.832,0.258s-0.316,0.377-0.316,0.617
		l-1.005,0.01l-0.011-0.031c-0.025-0.424,0.173-0.811,0.594-1.16c0.42-0.352,0.964-0.527,1.63-0.527c0.659,0,1.188,0.168,1.59,0.502
		c0.401,0.336,0.602,0.818,0.602,1.449v2.797c0,0.209,0.011,0.408,0.032,0.602s0.061,0.383,0.118,0.57H14.367z M12.611,55.4
		c0.383,0,0.729-0.1,1.037-0.295c0.308-0.197,0.508-0.424,0.602-0.678v-0.945h-1.188c-0.426,0-0.768,0.107-1.023,0.322
		s-0.384,0.467-0.384,0.758c0,0.258,0.081,0.461,0.241,0.611C12.059,55.324,12.297,55.4,12.611,55.4z"/>
	<path fill="#3C3241" d="M18.702,54.461l0.091,0.408h0.033l0.102-0.408l1.338-4.1h1.079l-2.138,5.813h-0.801l-2.164-5.813h1.085
		L18.702,54.461z"/>
	<path fill="#3C3241" d="M25.787,56.174c-0.036-0.176-0.064-0.33-0.084-0.465s-0.031-0.27-0.035-0.406
		c-0.196,0.279-0.453,0.514-0.77,0.701c-0.318,0.188-0.658,0.283-1.023,0.283c-0.605,0-1.066-0.156-1.383-0.465
		c-0.318-0.311-0.477-0.738-0.477-1.281c0-0.555,0.225-0.99,0.674-1.303c0.45-0.314,1.06-0.471,1.83-0.471h1.148v-0.574
		c0-0.34-0.104-0.609-0.311-0.809c-0.208-0.199-0.502-0.297-0.881-0.297c-0.344,0-0.621,0.086-0.833,0.258s-0.317,0.377-0.317,0.617
		l-1.004,0.01l-0.011-0.031c-0.024-0.424,0.173-0.811,0.593-1.16c0.422-0.352,0.965-0.527,1.631-0.527
		c0.658,0,1.189,0.168,1.59,0.502c0.4,0.336,0.602,0.818,0.602,1.449v2.797c0,0.209,0.011,0.408,0.032,0.602s0.062,0.383,0.118,0.57
		H25.787z M24.03,55.4c0.384,0,0.729-0.1,1.036-0.295c0.309-0.197,0.509-0.424,0.602-0.678v-0.945h-1.187
		c-0.427,0-0.767,0.107-1.022,0.322c-0.257,0.215-0.385,0.467-0.385,0.758c0,0.258,0.08,0.461,0.242,0.611
		C23.477,55.324,23.715,55.4,24.03,55.4z"/>
	<path fill="#3C3241" d="M31.953,55.314c-0.184,0.311-0.418,0.551-0.704,0.719s-0.618,0.254-0.993,0.254
		c-0.635,0-1.129-0.203-1.482-0.607c-0.355-0.404-0.532-1.035-0.532-1.891v-3.428h1.058v3.438c0,0.619,0.092,1.047,0.274,1.279
		s0.468,0.35,0.854,0.35c0.375,0,0.686-0.076,0.932-0.229c0.245-0.152,0.43-0.369,0.556-0.648v-4.189h1.058v5.813h-0.95
		L31.953,55.314z"/>
	<path fill="#3C3241" d="M36.486,52.506l1.234-2.145h1.236l-1.886,2.875l1.938,2.938h-1.213l-1.289-2.197l-1.289,2.197h-1.225
		l1.938-2.938l-1.886-2.875h1.22L36.486,52.506z"/>
	<path fill="#3C3241" d="M47.732,53.488c0,0.838-0.2,1.514-0.602,2.027c-0.4,0.514-0.953,0.771-1.659,0.771
		c-0.358,0-0.673-0.061-0.942-0.182c-0.271-0.119-0.5-0.299-0.69-0.539v2.842h-1.058v-8.047h0.811l0.166,0.752
		c0.19-0.279,0.427-0.492,0.709-0.639c0.283-0.146,0.613-0.221,0.988-0.221c0.721,0,1.279,0.285,1.679,0.857
		c0.399,0.57,0.599,1.326,0.599,2.264V53.488z M46.675,53.375c0-0.658-0.13-1.201-0.39-1.625s-0.642-0.637-1.146-0.637
		c-0.305,0-0.564,0.07-0.779,0.207c-0.215,0.139-0.389,0.326-0.521,0.566v2.811c0.132,0.238,0.306,0.426,0.521,0.561
		s0.479,0.201,0.79,0.201c0.501,0,0.881-0.184,1.139-0.551s0.387-0.84,0.387-1.42V53.375z"/>
	<path fill="#3C3241" d="M52.723,55.314c-0.183,0.311-0.417,0.551-0.703,0.719c-0.287,0.168-0.618,0.254-0.994,0.254
		c-0.634,0-1.128-0.203-1.482-0.607s-0.531-1.035-0.531-1.891v-3.428h1.058v3.438c0,0.619,0.091,1.047,0.274,1.279
		c0.182,0.232,0.467,0.35,0.854,0.35c0.376,0,0.687-0.076,0.932-0.229c0.246-0.152,0.431-0.369,0.557-0.648v-4.189h1.058v5.813
		h-0.95L52.723,55.314z"/>
	<path fill="#3C3241" d="M60.248,53.488c0,0.838-0.202,1.514-0.604,2.027c-0.403,0.514-0.957,0.771-1.663,0.771
		c-0.387,0-0.722-0.076-1.007-0.229c-0.284-0.152-0.521-0.377-0.706-0.674l-0.172,0.789h-0.811v-8.379h1.058v3.254
		c0.183-0.258,0.409-0.455,0.68-0.59c0.271-0.137,0.586-0.205,0.948-0.205c0.716,0,1.274,0.287,1.676,0.859
		c0.4,0.574,0.602,1.328,0.602,2.262V53.488z M59.189,53.375c0-0.666-0.123-1.209-0.368-1.631c-0.245-0.42-0.618-0.631-1.12-0.631
		c-0.325,0-0.6,0.08-0.824,0.24c-0.224,0.158-0.402,0.373-0.534,0.641v2.52c0.136,0.287,0.314,0.51,0.534,0.672
		c0.221,0.16,0.499,0.242,0.836,0.242c0.497,0,0.867-0.178,1.111-0.533c0.244-0.354,0.365-0.822,0.365-1.406V53.375z"/>
	<path fill="#3C3241" d="M62.681,56.174h-1.058v-8.379h1.058V56.174z"/>
	<path fill="#3C3241" d="M65.452,48.875h-1.058v-1.08h1.058V48.875z M65.452,56.174h-1.058v-5.813h1.058V56.174z"/>
	<path fill="#3C3241" d="M69.389,55.459c0.326,0,0.611-0.107,0.854-0.324s0.365-0.482,0.365-0.799h0.956l0.016,0.033
		c0.015,0.5-0.2,0.945-0.645,1.334c-0.443,0.389-0.959,0.584-1.547,0.584c-0.816,0-1.446-0.279-1.891-0.834
		c-0.443-0.555-0.666-1.246-0.666-2.072v-0.227c0-0.82,0.224-1.508,0.669-2.064c0.446-0.557,1.075-0.836,1.888-0.836
		c0.648,0,1.18,0.201,1.593,0.602c0.414,0.402,0.613,0.895,0.599,1.479l-0.01,0.031h-0.962c0-0.354-0.115-0.656-0.347-0.904
		c-0.23-0.25-0.521-0.373-0.873-0.373c-0.519,0-0.897,0.201-1.136,0.604c-0.237,0.402-0.356,0.891-0.356,1.463v0.227
		c0,0.584,0.117,1.076,0.352,1.477S68.863,55.459,69.389,55.459z"/>
	<path fill="#3C3241" d="M76.216,54.611c0-0.234-0.089-0.424-0.266-0.57c-0.178-0.146-0.513-0.275-1.007-0.387
		c-0.685-0.146-1.21-0.354-1.577-0.617c-0.366-0.266-0.55-0.619-0.55-1.064c0-0.473,0.201-0.877,0.604-1.213
		c0.403-0.338,0.925-0.506,1.566-0.506c0.658,0,1.191,0.18,1.6,0.537c0.408,0.359,0.604,0.775,0.586,1.252l-0.011,0.033h-1.01
		c0-0.252-0.11-0.479-0.33-0.684c-0.221-0.203-0.499-0.305-0.835-0.305c-0.373,0-0.651,0.084-0.836,0.252
		c-0.184,0.168-0.276,0.369-0.276,0.602c0,0.229,0.079,0.406,0.239,0.531c0.159,0.125,0.488,0.24,0.985,0.344
		c0.712,0.15,1.253,0.363,1.622,0.639s0.553,0.637,0.553,1.08c0,0.516-0.208,0.936-0.625,1.262c-0.418,0.326-0.963,0.49-1.636,0.49
		c-0.741,0-1.325-0.189-1.751-0.564c-0.426-0.377-0.629-0.814-0.607-1.316l0.012-0.031h1.01c0.018,0.375,0.157,0.65,0.418,0.824
		c0.262,0.174,0.568,0.26,0.919,0.26c0.376,0,0.671-0.08,0.884-0.238C76.109,55.061,76.216,54.857,76.216,54.611z"/>
</g>
</svg>
