<?xml version="1.0" encoding="utf-8"?>
<!-- Generator: Adobe Illustrator 16.0.0, SVG Export Plug-In . SVG Version: 6.00 Build 0)  -->
<!DOCTYPE svg PUBLIC "-//W3C//DTD SVG 1.1//EN" "http://www.w3.org/Graphics/SVG/1.1/DTD/svg11.dtd">
<svg version="1.1" id="Calque_1" xmlns="http://www.w3.org/2000/svg" xmlns:xlink="http://www.w3.org/1999/xlink" x="0px" y="0px"
	 width="42.445px" height="60.41px" viewBox="0 0 42.445 60.41" enable-background="new 0 0 42.445 60.41" xml:space="preserve">
<g>
	<g>
		<g>
			<polygon fill="#3C3241" points="14.116,5.554 14.044,6.896 14.244,7.06 14.461,6.896 14.533,5.554 14.333,5.389 			"/>
			<polygon fill="#3C3241" points="12.913,7.281 12.84,8.625 13.039,8.788 13.256,8.625 13.329,7.281 13.129,7.117 			"/>
			<polygon fill="#3C3241" points="13.399,7.253 13.952,7.253 14.17,7.088 13.973,6.924 13.417,6.924 13.199,7.088 			"/>
			<polygon fill="#3C3241" points="13.305,8.979 13.859,8.979 14.078,8.815 13.879,8.651 13.324,8.651 13.105,8.815 			"/>
			<polygon fill="#3C3241" points="13.494,5.526 14.048,5.526 14.267,5.361 14.065,5.196 13.509,5.196 13.293,5.361 			"/>
			<polygon fill="#3C3241" points="15.991,5.554 15.919,6.896 16.119,7.06 16.337,6.896 16.407,5.554 16.21,5.389 			"/>
			<polygon fill="#3C3241" points="15.896,7.281 15.826,8.625 16.026,8.788 16.242,8.625 16.314,7.281 16.117,7.117 			"/>
			<polygon fill="#3C3241" points="15.274,7.253 15.831,7.253 16.048,7.088 15.847,6.924 15.292,6.924 15.076,7.088 			"/>
			<polygon fill="#3C3241" points="15.181,8.979 15.737,8.979 15.954,8.815 15.756,8.651 15.199,8.651 14.98,8.815 			"/>
			<polygon fill="#3C3241" points="15.367,5.526 15.924,5.526 16.141,5.361 15.943,5.196 15.386,5.196 15.168,5.361 			"/>
			<polygon fill="#3C3241" points="18.146,5.554 18.073,6.896 18.271,7.06 18.492,6.896 18.562,5.554 18.362,5.389 			"/>
			<polygon fill="#3C3241" points="18.052,7.281 17.98,8.625 18.178,8.788 18.397,8.625 18.468,7.281 18.27,7.117 			"/>
			<polygon fill="#3C3241" points="17.429,7.253 17.983,7.253 18.202,7.088 18.002,6.924 17.445,6.924 17.229,7.088 			"/>
			<polygon fill="#3C3241" points="17.034,5.554 16.96,6.896 17.16,7.06 17.378,6.896 17.453,5.554 17.25,5.389 			"/>
			<polygon fill="#3C3241" points="19.607,5.554 19.532,6.896 19.313,7.06 19.116,6.896 19.186,5.554 19.404,5.389 			"/>
			<polygon fill="#3C3241" points="20.623,7.281 20.55,8.625 20.332,8.788 20.133,8.625 20.207,7.281 20.424,7.117 			"/>
			<polygon fill="#3C3241" points="20.138,7.253 19.583,7.253 19.382,7.088 19.598,6.924 20.154,6.924 20.354,7.088 			"/>
			<polygon fill="#3C3241" points="20.044,8.979 19.487,8.979 19.289,8.815 19.507,8.651 20.063,8.651 20.26,8.815 			"/>
			<polygon fill="#3C3241" points="20.23,5.526 19.675,5.526 19.475,5.361 19.693,5.196 20.248,5.196 20.448,5.361 			"/>
			<polygon fill="#3C3241" points="21.725,5.554 21.651,6.896 21.431,7.06 21.232,6.896 21.306,5.554 21.523,5.389 			"/>
			<polygon fill="#3C3241" points="22.739,7.281 22.669,8.625 22.452,8.788 22.251,8.625 22.325,7.281 22.539,7.117 			"/>
			<polygon fill="#3C3241" points="22.258,7.253 21.7,7.253 21.504,7.088 21.72,6.924 22.274,6.924 22.474,7.088 			"/>
			<polygon fill="#3C3241" points="22.161,8.979 21.607,8.979 21.406,8.815 21.627,8.651 22.182,8.651 22.378,8.815 			"/>
			<polygon fill="#3C3241" points="22.349,5.526 21.794,5.526 21.594,5.361 21.813,5.196 22.368,5.196 22.567,5.361 			"/>
			<polygon fill="#3C3241" points="21.63,7.281 21.557,8.625 21.34,8.788 21.14,8.625 21.213,7.281 21.431,7.117 			"/>
			<polygon fill="#3C3241" points="24.048,5.579 23.975,6.924 24.175,7.088 24.395,6.924 24.464,5.579 24.266,5.416 			"/>
			<polygon fill="#3C3241" points="23.955,7.309 23.884,8.651 24.084,8.815 24.3,8.651 24.372,7.306 24.173,7.143 			"/>
			<polygon fill="#3C3241" points="23.391,5.526 23.948,5.526 24.164,5.361 23.967,5.196 23.41,5.196 23.194,5.361 			"/>
			<polygon fill="#3C3241" points="25.542,5.554 25.472,6.896 25.253,7.06 25.055,6.896 25.128,5.554 25.344,5.389 			"/>
			<polygon fill="#3C3241" points="26.563,7.281 26.488,8.625 26.272,8.788 26.073,8.625 26.145,7.281 26.362,7.117 			"/>
			<polygon fill="#3C3241" points="26.075,7.253 25.521,7.253 25.319,7.088 25.536,6.924 26.095,6.924 26.292,7.088 			"/>
			<polygon fill="#3C3241" points="25.983,8.979 25.429,8.979 25.229,8.815 25.446,8.651 26.002,8.651 26.202,8.815 			"/>
			<polygon fill="#3C3241" points="26.169,5.526 25.615,5.526 25.414,5.361 25.634,5.196 26.188,5.196 26.389,5.361 			"/>
			<polygon fill="#3C3241" points="25.451,7.281 25.378,8.625 25.162,8.788 24.962,8.625 25.035,7.281 25.253,7.117 			"/>
			<polygon fill="#3C3241" points="26.656,5.554 26.583,6.896 26.366,7.06 26.166,6.896 26.236,5.554 26.455,5.389 			"/>
			<polygon fill="#3C3241" points="27.558,5.554 27.487,6.896 27.268,7.06 27.069,6.896 27.141,5.554 27.358,5.389 			"/>
			<polygon fill="#3C3241" points="28.577,7.281 28.504,8.625 28.286,8.788 28.087,8.625 28.16,7.281 28.378,7.117 			"/>
			<polygon fill="#3C3241" points="28.092,7.253 27.538,7.253 27.337,7.088 27.553,6.924 28.107,6.924 28.309,7.088 			"/>
			<polygon fill="#3C3241" points="27.999,8.979 27.442,8.979 27.246,8.815 27.46,8.651 28.018,8.651 28.215,8.815 			"/>
			<polygon fill="#3C3241" points="28.185,5.526 27.629,5.526 27.428,5.361 27.645,5.196 28.201,5.196 28.401,5.361 			"/>
			<polygon fill="#3C3241" points="28.67,5.554 28.596,6.896 28.38,7.06 28.183,6.896 28.252,5.554 28.472,5.389 			"/>
			<polygon fill="#3C3241" points="29.679,5.554 29.605,6.896 29.388,7.06 29.188,6.896 29.261,5.554 29.479,5.389 			"/>
			<polygon fill="#3C3241" points="30.697,7.281 30.621,8.625 30.405,8.788 30.206,8.625 30.277,7.281 30.497,7.117 			"/>
			<polygon fill="#3C3241" points="30.116,8.979 29.562,8.979 29.363,8.815 29.579,8.651 30.137,8.651 30.334,8.815 			"/>
			<polygon fill="#3C3241" points="30.307,5.526 29.749,5.526 29.55,5.361 29.768,5.196 30.321,5.196 30.521,5.361 			"/>
			<polygon fill="#3C3241" points="29.582,7.281 29.514,8.625 29.295,8.788 29.096,8.625 29.168,7.281 29.384,7.117 			"/>
			<polygon fill="#3C3241" points="30.79,5.554 30.716,6.896 30.498,7.06 30.298,6.896 30.371,5.554 30.59,5.389 			"/>
			<polygon fill="#3C3241" points="11.823,5.554 11.751,6.896 11.951,7.06 12.167,6.896 12.24,5.554 12.04,5.389 			"/>
			<polygon fill="#3C3241" points="11.73,7.281 11.656,8.625 11.858,8.788 12.075,8.625 12.145,7.281 11.948,7.117 			"/>
		</g>
	</g>
	<path fill="#3C3241" d="M36.501,0H5.944C5.447,0,5.047,0.403,5.047,0.898V42.24c0,0.494,0.4,0.896,0.897,0.896H36.5
		c0.493,0,0.897-0.402,0.897-0.896V0.898C37.398,0.403,36.994,0,36.501,0z M33.806,9.997c0,0.497-0.404,0.9-0.901,0.9H9.541
		c-0.497,0-0.898-0.403-0.898-0.9V4.27c0-0.497,0.401-0.899,0.898-0.899h23.363c0.497,0,0.901,0.402,0.901,0.899V9.997z"/>
	<g>
		<g>
			<g>
				<rect x="29.027" y="27.458" fill="#86C440" width="4.785" height="9.978"/>
			</g>
		</g>
	</g>
	<g>
		<g>
			<g>
				<rect x="9.273" y="15.083" fill="#86C440" width="4.784" height="3.984"/>
			</g>
			<rect x="15.916" y="15.083" fill="#86C440" width="4.782" height="3.984"/>
			<g>
				<g>
					<g>
						<rect x="22.304" y="15.083" fill="#86C440" width="4.783" height="3.984"/>
					</g>
				</g>
			</g>
			<g>
				<g>
					<g>
						<rect x="29.027" y="15.083" fill="#86C440" width="4.785" height="3.984"/>
					</g>
				</g>
			</g>
			<g>
				<rect x="9.273" y="21.27" fill="#86C440" width="4.784" height="3.984"/>
			</g>
			<g>
				<rect x="15.916" y="21.27" fill="#86C440" width="4.782" height="3.984"/>
			</g>
			<g>
				<g>
					<g>
						<rect x="22.304" y="21.27" fill="#86C440" width="4.783" height="3.984"/>
					</g>
				</g>
			</g>
			<g>
				<g>
					<g>
						<rect x="29.027" y="21.27" fill="#86C440" width="4.785" height="3.984"/>
					</g>
				</g>
			</g>
			<g>
				<rect x="9.273" y="27.458" fill="#86C440" width="4.784" height="3.985"/>
			</g>
			<g>
				<rect x="15.916" y="27.458" fill="#86C440" width="4.782" height="3.985"/>
			</g>
			<g>
				<g>
					<g>
						<rect x="22.304" y="27.458" fill="#86C440" width="4.783" height="3.985"/>
					</g>
				</g>
			</g>
			<g>
				<rect x="9.273" y="33.5" fill="#86C440" width="4.784" height="3.986"/>
			</g>
			<g>
				<rect x="15.916" y="33.5" fill="#86C440" width="4.782" height="3.986"/>
			</g>
			<g>
				<g>
					<g>
						<rect x="22.304" y="33.5" fill="#86C440" width="4.783" height="3.986"/>
					</g>
				</g>
			</g>
		</g>
	</g>
</g>
<g enable-background="new    ">
	<path fill="#3C3241" d="M5.748,53.384H2.15v3.773H0.996v-8.531h5.35v0.908H2.15v2.941h3.598V53.384z"/>
	<path fill="#3C3241" d="M8.707,49.195H7.553v-1.178h1.154V49.195z M8.707,57.158H7.553v-6.34h1.154V57.158z"/>
	<path fill="#3C3241" d="M11.514,50.818l0.082,0.943c0.211-0.336,0.476-0.598,0.794-0.783s0.681-0.277,1.087-0.277
		c0.684,0,1.213,0.199,1.588,0.6s0.563,1.02,0.563,1.855v4.002h-1.154v-3.979c0-0.559-0.11-0.955-0.331-1.189
		s-0.558-0.352-1.011-0.352c-0.355,0-0.657,0.07-0.905,0.213s-0.444,0.344-0.589,0.602v4.705h-1.154v-6.34H11.514z"/>
	<path fill="#3C3241" d="M21.199,57.158c-0.039-0.191-0.069-0.361-0.091-0.508s-0.034-0.293-0.038-0.441
		c-0.215,0.305-0.495,0.559-0.841,0.764s-0.718,0.309-1.116,0.309c-0.66,0-1.163-0.17-1.509-0.508s-0.519-0.803-0.519-1.396
		c0-0.605,0.245-1.08,0.735-1.422s1.155-0.512,1.995-0.512h1.254v-0.627c0-0.371-0.113-0.666-0.34-0.883s-0.547-0.324-0.961-0.324
		c-0.375,0-0.678,0.094-0.908,0.281s-0.346,0.412-0.346,0.674l-1.096,0.012l-0.012-0.035c-0.027-0.461,0.188-0.883,0.647-1.266
		s1.052-0.574,1.778-0.574c0.719,0,1.297,0.182,1.734,0.547s0.656,0.893,0.656,1.58v3.053c0,0.227,0.012,0.445,0.035,0.656
		s0.066,0.418,0.129,0.621H21.199z M19.283,56.314c0.418,0,0.795-0.107,1.131-0.322s0.555-0.461,0.656-0.738v-1.031h-1.295
		c-0.465,0-0.837,0.117-1.116,0.352s-0.419,0.51-0.419,0.826c0,0.281,0.088,0.504,0.264,0.668S18.939,56.314,19.283,56.314z"/>
	<path fill="#3C3241" d="M24.932,50.818l0.082,0.943c0.211-0.336,0.476-0.598,0.794-0.783s0.681-0.277,1.087-0.277
		c0.684,0,1.213,0.199,1.588,0.6s0.563,1.02,0.563,1.855v4.002h-1.154v-3.979c0-0.559-0.11-0.955-0.331-1.189
		s-0.558-0.352-1.011-0.352c-0.355,0-0.657,0.07-0.905,0.213s-0.444,0.344-0.589,0.602v4.705H23.9v-6.34H24.932z"/>
	<path fill="#3C3241" d="M33.24,56.378c0.355,0,0.666-0.119,0.932-0.355s0.398-0.525,0.398-0.869h1.043l0.018,0.035
		c0.016,0.547-0.219,1.031-0.703,1.455s-1.047,0.637-1.688,0.637c-0.891,0-1.578-0.303-2.063-0.908s-0.727-1.359-0.727-2.262v-0.246
		c0-0.895,0.243-1.646,0.729-2.254s1.173-0.91,2.06-0.91c0.707,0,1.286,0.219,1.737,0.656s0.669,0.975,0.653,1.611l-0.012,0.035
		H34.57c0-0.387-0.126-0.717-0.378-0.988s-0.569-0.406-0.952-0.406c-0.566,0-0.979,0.219-1.239,0.658s-0.39,0.973-0.39,1.598v0.246
		c0,0.637,0.128,1.174,0.384,1.611S32.666,56.378,33.24,56.378z"/>
	<path fill="#3C3241" d="M39.627,57.281c-0.91,0-1.62-0.291-2.13-0.873s-0.765-1.348-0.765-2.297v-0.258
		c0-0.91,0.263-1.664,0.788-2.26s1.167-0.893,1.925-0.893c0.848,0,1.483,0.264,1.907,0.791s0.636,1.229,0.636,2.104v0.609h-4.055
		l-0.018,0.029c0,0.637,0.141,1.152,0.422,1.549s0.711,0.596,1.289,0.596c0.391,0,0.733-0.057,1.028-0.168s0.548-0.264,0.759-0.459
		l0.451,0.75c-0.227,0.219-0.525,0.402-0.896,0.553S40.15,57.281,39.627,57.281z M39.445,51.609c-0.402,0-0.735,0.154-0.999,0.465
		s-0.425,0.709-0.483,1.193l0.012,0.029h2.859v-0.094c0-0.461-0.113-0.842-0.34-1.143S39.918,51.609,39.445,51.609z"/>
</g>
</svg>
