<?xml version="1.0" encoding="utf-8"?>
<!-- Generator: Adobe Illustrator 16.0.0, SVG Export Plug-In . SVG Version: 6.00 Build 0)  -->
<!DOCTYPE svg PUBLIC "-//W3C//DTD SVG 1.1//EN" "http://www.w3.org/Graphics/SVG/1.1/DTD/svg11.dtd">
<svg version="1.1" id="Calque_1" xmlns="http://www.w3.org/2000/svg" xmlns:xlink="http://www.w3.org/1999/xlink" x="0px" y="0px"
	 width="52.061px" height="59.308px" viewBox="0 0 52.061 59.308" enable-background="new 0 0 52.061 59.308" xml:space="preserve">
<g enable-background="new    ">
	<path fill="#3C3241" d="M6.744,49.248H3.932v7.623H2.777v-7.623H0v-0.908h6.744V49.248z"/>
	<path fill="#3C3241" d="M10.359,51.55l-0.592-0.035c-0.305,0-0.562,0.072-0.771,0.217s-0.37,0.348-0.483,0.609v4.529H7.359v-6.34
		h1.031l0.111,0.926c0.18-0.328,0.401-0.584,0.665-0.768s0.567-0.275,0.911-0.275c0.086,0,0.168,0.006,0.246,0.02
		s0.143,0.029,0.193,0.045L10.359,51.55z"/>
	<path fill="#3C3241" d="M15.457,56.871c-0.039-0.191-0.069-0.361-0.091-0.508s-0.034-0.293-0.038-0.441
		c-0.215,0.305-0.495,0.559-0.841,0.764s-0.718,0.309-1.116,0.309c-0.66,0-1.163-0.17-1.509-0.508s-0.519-0.803-0.519-1.396
		c0-0.605,0.245-1.08,0.735-1.422s1.155-0.512,1.995-0.512h1.254v-0.627c0-0.371-0.113-0.666-0.34-0.883s-0.547-0.324-0.961-0.324
		c-0.375,0-0.678,0.094-0.908,0.281s-0.346,0.412-0.346,0.674l-1.096,0.012l-0.012-0.035c-0.027-0.461,0.188-0.883,0.647-1.266
		s1.052-0.574,1.778-0.574c0.719,0,1.297,0.182,1.734,0.547s0.656,0.893,0.656,1.58v3.053c0,0.227,0.012,0.445,0.035,0.656
		s0.066,0.418,0.129,0.621H15.457z M13.541,56.027c0.418,0,0.795-0.107,1.131-0.322s0.555-0.461,0.656-0.738v-1.031h-1.295
		c-0.465,0-0.837,0.117-1.116,0.352s-0.419,0.51-0.419,0.826c0,0.281,0.088,0.504,0.264,0.668S13.197,56.027,13.541,56.027z"/>
	<path fill="#3C3241" d="M19.189,50.531l0.082,0.943c0.211-0.336,0.476-0.598,0.794-0.783s0.681-0.277,1.087-0.277
		c0.684,0,1.213,0.199,1.588,0.6s0.563,1.02,0.563,1.855v4.002h-1.154v-3.979c0-0.559-0.11-0.955-0.331-1.189
		s-0.558-0.352-1.011-0.352c-0.355,0-0.657,0.07-0.905,0.213s-0.444,0.344-0.589,0.602v4.705h-1.154v-6.34H19.189z"/>
	<path fill="#3C3241" d="M28.664,55.166c0-0.254-0.097-0.461-0.29-0.621s-0.56-0.301-1.099-0.422
		c-0.746-0.16-1.319-0.385-1.72-0.674s-0.601-0.676-0.601-1.16c0-0.516,0.22-0.957,0.659-1.324s1.009-0.551,1.708-0.551
		c0.719,0,1.301,0.195,1.746,0.586s0.658,0.846,0.639,1.365L29.695,52.4h-1.102c0-0.273-0.12-0.521-0.36-0.744
		s-0.544-0.334-0.911-0.334c-0.406,0-0.71,0.092-0.911,0.275S26.109,52,26.109,52.253c0,0.25,0.087,0.443,0.261,0.58
		s0.532,0.262,1.075,0.375c0.777,0.164,1.367,0.396,1.77,0.697s0.604,0.693,0.604,1.178c0,0.563-0.228,1.021-0.683,1.377
		s-1.05,0.533-1.784,0.533c-0.809,0-1.445-0.205-1.91-0.615s-0.686-0.889-0.662-1.436l0.012-0.035h1.102
		c0.02,0.41,0.172,0.709,0.457,0.898s0.619,0.285,1.002,0.285c0.41,0,0.731-0.088,0.964-0.262S28.664,55.435,28.664,55.166z"/>
	<path fill="#3C3241" d="M36.656,53.941c0,0.914-0.219,1.65-0.656,2.211s-1.041,0.842-1.811,0.842c-0.391,0-0.733-0.066-1.028-0.197
		s-0.546-0.326-0.753-0.588v3.1h-1.154v-8.777h0.885l0.182,0.82c0.207-0.305,0.465-0.537,0.773-0.697s0.668-0.24,1.078-0.24
		c0.785,0,1.396,0.311,1.831,0.934s0.653,1.447,0.653,2.471V53.941z M35.502,53.818c0-0.719-0.142-1.311-0.425-1.773
		s-0.7-0.693-1.251-0.693c-0.332,0-0.615,0.074-0.85,0.225s-0.424,0.357-0.568,0.619v3.064c0.145,0.262,0.334,0.465,0.568,0.611
		s0.521,0.221,0.861,0.221c0.547,0,0.961-0.201,1.242-0.602s0.422-0.916,0.422-1.549V53.818z"/>
	<path fill="#3C3241" d="M37.805,53.642c0-0.938,0.254-1.711,0.762-2.318s1.197-0.91,2.068-0.91c0.879,0,1.573,0.303,2.083,0.908
		s0.765,1.379,0.765,2.32v0.129c0,0.945-0.254,1.719-0.762,2.32s-1.199,0.902-2.074,0.902s-1.567-0.303-2.077-0.906
		s-0.765-1.375-0.765-2.316V53.642z M38.959,53.771c0,0.672,0.142,1.227,0.425,1.664s0.704,0.656,1.263,0.656
		c0.551,0,0.969-0.219,1.254-0.656s0.428-0.992,0.428-1.664v-0.129c0-0.664-0.144-1.217-0.431-1.658s-0.708-0.662-1.263-0.662
		c-0.551,0-0.968,0.221-1.251,0.662s-0.425,0.994-0.425,1.658V53.771z"/>
	<path fill="#3C3241" d="M47.895,51.55l-0.592-0.035c-0.305,0-0.562,0.072-0.771,0.217s-0.37,0.348-0.483,0.609v4.529h-1.154v-6.34
		h1.031l0.111,0.926c0.18-0.328,0.401-0.584,0.665-0.768s0.567-0.275,0.911-0.275c0.086,0,0.168,0.006,0.246,0.02
		s0.143,0.029,0.193,0.045L47.895,51.55z"/>
	<path fill="#3C3241" d="M50.801,49.001v1.529h1.201v0.855h-1.201v3.85c0,0.297,0.062,0.506,0.185,0.627s0.286,0.182,0.489,0.182
		c0.066,0,0.141-0.01,0.223-0.027s0.15-0.035,0.205-0.055l0.158,0.791c-0.086,0.07-0.213,0.127-0.381,0.172
		s-0.334,0.068-0.498,0.068c-0.469,0-0.842-0.143-1.119-0.426s-0.416-0.727-0.416-1.332v-3.85h-1.008v-0.855h1.008v-1.529H50.801z"
		/>
</g>
<g>
	<path fill="#3C3241" d="M39.034,43.857c-0.466,0-0.934,0-1.401,0c0.009-0.006,0.019-0.012,0.024-0.018s0.016-0.018,0.014-0.021
		c-0.04-0.07-0.118-0.068-0.184-0.096c-1.006-0.357-1.587-1.068-1.691-2.131c-0.098-0.988-0.025-1.984-0.031-2.98
		c-0.002-0.211-0.032-0.299-0.278-0.299c-6.304,0.008-12.605,0.008-18.911,0.002c-0.218,0-0.269,0.068-0.264,0.275
		c0.008,0.902,0.012,1.807-0.003,2.711c-0.019,1.199-0.629,2.031-1.758,2.436c-0.05,0.02-0.181-0.02-0.124,0.121
		c-0.467,0-0.935,0-1.401,0c0.008-0.006,0.016-0.012,0.023-0.018c0.007-0.006,0.016-0.018,0.015-0.021
		c-0.038-0.074-0.116-0.072-0.181-0.096c-1.005-0.354-1.589-1.066-1.694-2.125c-0.098-0.98-0.03-1.963-0.032-2.947
		c0-0.256-0.046-0.348-0.327-0.342c-0.892,0.02-1.784,0.006-2.677,0.006c0-6.375,0-12.752,0-19.127
		c0.007,0.006,0.016,0.012,0.024,0.018c0.006,0.005,0.019,0.012,0.021,0.011c0.072-0.071,0.062-0.169,0.074-0.257
		C8.38,18.104,8.489,17.25,8.6,16.394c0.38-2.924,0.762-5.85,1.141-8.775c0.104-0.804,0.188-1.609,0.532-2.36
		c0.52-1.138,1.418-1.88,2.488-2.45c1.614-0.861,3.351-1.375,5.124-1.777c1.932-0.437,3.879-0.762,5.852-0.929
		C23.798,0.099,23.944,0.179,23.928,0c1.402,0,2.803,0,4.204,0c-0.013,0.015-0.024,0.03-0.032,0.047
		c0,0.002,0.014,0.017,0.021,0.019c0.068,0.016,0.136,0.037,0.204,0.043c2.156,0.178,4.285,0.546,6.386,1.051
		c1.751,0.421,3.452,0.975,5.017,1.891c1.357,0.796,2.219,1.952,2.455,3.514c0.241,1.605,0.419,3.217,0.627,4.825
		c0.328,2.544,0.658,5.088,0.987,7.633c0.008,0.062-0.032,0.18,0.11,0.166c0,6.375,0,12.752,0,19.127
		c-0.892,0.002-1.785,0.014-2.675-0.002c-0.245-0.006-0.329,0.049-0.323,0.313c0.016,0.881,0.018,1.766,0,2.646
		c-0.024,1.23-0.622,2.053-1.755,2.463C39.104,43.757,38.977,43.722,39.034,43.857z M26.052,21.272c4.414,0,8.829,0.001,13.244,0
		c1.035-0.001,1.646-0.74,1.493-1.76c-0.172-1.152-0.319-2.311-0.474-3.466c-0.312-2.332-0.619-4.664-0.941-6.995
		c-0.114-0.828-0.691-1.306-1.529-1.309c-0.821-0.001-1.643,0-2.466,0c-7.021,0-14.046,0-21.068,0c-0.932,0-1.475,0.491-1.597,1.405
		c-0.433,3.247-0.874,6.493-1.313,9.739c-0.045,0.33-0.12,0.662-0.122,0.996c-0.008,0.797,0.653,1.39,1.529,1.391
		C17.221,21.274,21.637,21.272,26.052,21.272z M26.032,5.975c2.646,0,5.295,0,7.943,0c0.674-0.001,1.056-0.288,1.249-0.931
		c0.372-1.212-0.258-2.085-1.509-2.085c-2.799,0-5.599,0-8.398,0c-2.415,0-4.829-0.001-7.243,0.001
		c-0.659,0-1.015,0.263-1.219,0.886c-0.103,0.314-0.126,0.633-0.068,0.96c0.14,0.806,0.556,1.168,1.362,1.168
		C20.777,5.975,23.404,5.975,26.032,5.975z M16.445,30.056c0-1.515-1.216-2.721-2.734-2.714c-1.491,0.004-2.699,1.224-2.696,2.722
		c0.002,1.498,1.209,2.707,2.706,2.711C15.23,32.783,16.445,31.568,16.445,30.056z M35.614,30.058
		c0.002,1.51,1.218,2.721,2.73,2.717c1.493-0.002,2.7-1.213,2.702-2.715c0-1.498-1.205-2.714-2.698-2.718
		C36.836,27.335,35.614,28.547,35.614,30.058z"/>
	<path fill="#86C440" d="M16.445,30.056c-0.002-1.515-1.217-2.719-2.734-2.714c-1.491,0.004-2.699,1.224-2.697,2.722
		c0.003,1.498,1.21,2.707,2.707,2.711C15.23,32.783,16.445,31.57,16.445,30.056z"/>
	<path fill="#86C440" d="M41.097,30.056c0-1.515-1.215-2.719-2.734-2.714c-1.49,0.004-2.7,1.224-2.696,2.722
		c0.002,1.498,1.21,2.707,2.707,2.711C39.884,32.783,41.097,31.57,41.097,30.056z"/>
	<path fill="#86C440" d="M26.032,5.999c2.646,0,5.295,0.001,7.943,0c0.674,0,1.056-0.301,1.249-0.977
		c0.372-1.274-0.258-2.188-1.509-2.188c-2.799,0-5.599,0-8.398,0c-2.415,0-4.829-0.002-7.243,0.001
		c-0.659,0-1.015,0.277-1.219,0.931c-0.103,0.33-0.126,0.665-0.068,1.008c0.14,0.845,0.556,1.225,1.362,1.225
		C20.777,5.999,23.404,5.999,26.032,5.999z"/>
</g>
</svg>
