<?xml version="1.0" encoding="utf-8"?>
<!-- Generator: Adobe Illustrator 16.0.0, SVG Export Plug-In . SVG Version: 6.00 Build 0)  -->
<!DOCTYPE svg PUBLIC "-//W3C//DTD SVG 1.1//EN" "http://www.w3.org/Graphics/SVG/1.1/DTD/svg11.dtd">
<svg version="1.1" id="Calque_1" xmlns="http://www.w3.org/2000/svg" xmlns:xlink="http://www.w3.org/1999/xlink" x="0px" y="0px"
	 width="78.498px" height="57.355px" viewBox="0 0 78.498 57.355" enable-background="new 0 0 78.498 57.355" xml:space="preserve">
<g>
	<path fill="#3C3241" d="M39.9,0c0.367,0.177,0.539,0.465,0.492,0.874c-0.019,0.17,0.056,0.241,0.218,0.3
		c0.939,0.342,1.905,0.317,2.874,0.217c1.142-0.119,2.276-0.315,3.427-0.271c0.726,0.026,1.439,0.108,2.127,0.351
		c0.132,0.047,0.231,0.077,0.231,0.253c-0.012,1.632-0.014,3.266-0.02,4.899c0,0.009-0.01,0.019-0.028,0.047
		c-0.381-0.098-0.764-0.219-1.155-0.291c-1.24-0.224-2.478-0.13-3.71,0.051c-1.166,0.171-2.327,0.289-3.487-0.035
		c-0.478-0.132-0.477-0.136-0.477,0.37c-0.002,0.52,0.012,1.042-0.007,1.563c-0.007,0.197,0.063,0.295,0.23,0.38
		c1.408,0.721,2.815,1.45,4.221,2.178c2.127,1.102,4.256,2.204,6.384,3.305c1.405,0.728,2.807,1.46,4.221,2.176
		c0.768,0.388,1.082,0.969,1.018,1.579c-0.069,0.664-0.462,1.102-1.121,1.242c-0.35,0.076-0.706,0.054-1.063,0.055
		c-0.768,0.002-1.536,0.008-2.307-0.003c-0.21-0.003-0.314,0.044-0.282,0.271c0.013,0.069,0.004,0.143,0.004,0.214
		c0,6.628-0.004,13.258,0.009,19.887c0,0.348-0.087,0.422-0.422,0.416c-1.363-0.021-2.724-0.018-4.087,0
		c-0.292,0.002-0.372-0.068-0.37-0.369c0.009-5.67,0.002-11.339,0.016-17.01c0.002-0.343-0.081-0.428-0.423-0.422
		c-1.336,0.021-2.676,0.02-4.012,0.002c-0.307-0.004-0.392,0.059-0.391,0.381c0.013,5.672,0.008,11.34,0.018,17.012
		c0.002,0.33-0.087,0.41-0.407,0.408c-1.375-0.02-2.747-0.018-4.12-0.002c-0.279,0.004-0.356-0.07-0.356-0.352
		c0.011-5.623,0.009-11.248,0.009-16.869c0-0.132-0.007-0.262,0.003-0.391c0.007-0.137-0.048-0.182-0.185-0.182
		c-1.48,0.003-2.96,0.003-4.439,0c-0.143,0-0.184,0.059-0.179,0.191c0.008,0.177,0.002,0.355,0.002,0.532
		c0,5.552-0.002,11.104,0.008,16.657c0,0.316-0.068,0.42-0.404,0.414c-1.372-0.02-2.744-0.021-4.118,0.002
		c-0.335,0.006-0.376-0.107-0.374-0.398c0.009-6.652,0.003-13.307,0.015-19.959c0-0.363-0.089-0.449-0.44-0.437
		c-0.914,0.026-1.824,0.007-2.734,0.009c-0.454,0-0.863-0.111-1.219-0.409c-0.577-0.483-0.631-1.329-0.129-1.892
		c0.396-0.447,0.944-0.658,1.453-0.922c2.449-1.281,4.909-2.545,7.363-3.813c2.235-1.155,4.467-2.312,6.708-3.458
		c0.221-0.114,0.292-0.245,0.29-0.488c-0.01-2.38,0.002-4.76-0.015-7.139c0-0.447,0.047-0.842,0.428-1.125C39.425,0,39.663,0,39.9,0
		z"/>
	<path fill="#86C440" d="M22.709,44.468c0.11-0.328,0.421-0.475,0.646-0.689c0.706-0.68,1.442-1.328,2.159-1.998
		c0.216-0.203,0.438-0.301,0.751-0.301c8.896,0.01,17.791,0.008,26.687,0.006c0.222,0,0.408,0.025,0.58,0.189
		c0.903,0.865,1.821,1.721,2.728,2.582c0.053,0.053,0.165,0.094,0.118,0.211C45.157,44.468,33.931,44.468,22.709,44.468z"/>
</g>
<g enable-background="new    ">
	<path fill="#3C3241" d="M5.15,55.035H1.939l-0.762,2.197H0l3.076-8.531h0.99l3.012,8.531H5.9L5.15,55.035z M2.273,54.068h2.549
		L3.58,50.406H3.545L2.273,54.068z"/>
	<path fill="#3C3241" d="M7.91,54.179c0-1.02,0.218-1.842,0.653-2.467s1.046-0.938,1.831-0.938c0.371,0,0.7,0.068,0.987,0.205
		s0.532,0.336,0.735,0.598v-3.486h1.154v9.141h-0.885l-0.176-0.803c-0.207,0.305-0.463,0.535-0.768,0.691s-0.658,0.234-1.061,0.234
		c-0.773,0-1.379-0.281-1.816-0.842S7.91,55.216,7.91,54.302V54.179z M9.064,54.302c0,0.641,0.131,1.152,0.393,1.537
		s0.668,0.578,1.219,0.578c0.344,0,0.633-0.078,0.867-0.234s0.426-0.375,0.574-0.656v-2.959c-0.148-0.262-0.341-0.471-0.577-0.625
		s-0.521-0.23-0.853-0.23c-0.555,0-0.964,0.229-1.228,0.686s-0.396,1.051-0.396,1.781V54.302z"/>
	<path fill="#3C3241" d="M16.025,50.892l0.082,0.832c0.207-0.301,0.47-0.535,0.788-0.701s0.688-0.248,1.11-0.248
		s0.784,0.098,1.087,0.293s0.53,0.488,0.683,0.879c0.203-0.363,0.468-0.65,0.794-0.859s0.708-0.313,1.146-0.313
		c0.645,0,1.154,0.221,1.529,0.664s0.563,1.111,0.563,2.002v3.791h-1.154v-3.803c0-0.625-0.107-1.068-0.322-1.328
		s-0.535-0.389-0.961-0.389c-0.395,0-0.714,0.137-0.958,0.41s-0.388,0.619-0.431,1.037v0.047v4.025h-1.16v-3.803
		c0-0.594-0.11-1.029-0.331-1.305s-0.538-0.412-0.952-0.412c-0.352,0-0.641,0.072-0.867,0.217s-0.4,0.348-0.521,0.609v4.693h-1.154
		v-6.34H16.025z"/>
	<path fill="#3C3241" d="M26.73,49.269h-1.154v-1.178h1.154V49.269z M26.73,57.232h-1.154v-6.34h1.154V57.232z"/>
	<path fill="#3C3241" d="M29.537,50.892l0.082,0.943c0.211-0.336,0.476-0.598,0.794-0.783s0.681-0.277,1.087-0.277
		c0.684,0,1.213,0.199,1.588,0.6s0.563,1.02,0.563,1.855v4.002h-1.154v-3.979c0-0.559-0.11-0.955-0.331-1.189
		s-0.558-0.352-1.011-0.352c-0.355,0-0.657,0.07-0.905,0.213s-0.444,0.344-0.589,0.602v4.705h-1.154v-6.34H29.537z"/>
	<path fill="#3C3241" d="M36.574,49.269H35.42v-1.178h1.154V49.269z M36.574,57.232H35.42v-6.34h1.154V57.232z"/>
	<path fill="#3C3241" d="M42.035,55.527c0-0.254-0.097-0.461-0.29-0.621s-0.56-0.301-1.099-0.422
		c-0.746-0.16-1.319-0.385-1.72-0.674s-0.601-0.676-0.601-1.16c0-0.516,0.22-0.957,0.659-1.324s1.009-0.551,1.708-0.551
		c0.719,0,1.301,0.195,1.746,0.586s0.658,0.846,0.639,1.365l-0.012,0.035h-1.102c0-0.273-0.12-0.521-0.36-0.744
		s-0.544-0.334-0.911-0.334c-0.406,0-0.71,0.092-0.911,0.275s-0.302,0.402-0.302,0.656c0,0.25,0.087,0.443,0.261,0.58
		s0.532,0.262,1.075,0.375c0.777,0.164,1.367,0.396,1.77,0.697s0.604,0.693,0.604,1.178c0,0.563-0.228,1.021-0.683,1.377
		s-1.05,0.533-1.784,0.533c-0.809,0-1.445-0.205-1.91-0.615s-0.686-0.889-0.662-1.436l0.012-0.035h1.102
		c0.02,0.41,0.172,0.709,0.457,0.898s0.619,0.285,1.002,0.285c0.41,0,0.731-0.088,0.964-0.262S42.035,55.796,42.035,55.527z"/>
	<path fill="#3C3241" d="M46.23,49.363v1.529h1.201v0.855H46.23v3.85c0,0.297,0.062,0.506,0.185,0.627s0.286,0.182,0.489,0.182
		c0.066,0,0.141-0.01,0.223-0.027s0.15-0.035,0.205-0.055l0.158,0.791c-0.086,0.07-0.213,0.127-0.381,0.172
		s-0.334,0.068-0.498,0.068c-0.469,0-0.842-0.143-1.119-0.426s-0.416-0.727-0.416-1.332v-3.85h-1.008v-0.855h1.008v-1.529H46.23z"/>
	<path fill="#3C3241" d="M51.668,51.912l-0.592-0.035c-0.305,0-0.562,0.072-0.771,0.217s-0.37,0.348-0.483,0.609v4.529h-1.154v-6.34
		h1.031l0.111,0.926c0.18-0.328,0.401-0.584,0.665-0.768s0.567-0.275,0.911-0.275c0.086,0,0.168,0.006,0.246,0.02
		s0.143,0.029,0.193,0.045L51.668,51.912z"/>
	<path fill="#3C3241" d="M56.766,57.232c-0.039-0.191-0.069-0.361-0.091-0.508s-0.034-0.293-0.038-0.441
		c-0.215,0.305-0.495,0.559-0.841,0.764s-0.718,0.309-1.116,0.309c-0.66,0-1.163-0.17-1.509-0.508s-0.519-0.803-0.519-1.396
		c0-0.605,0.245-1.08,0.735-1.422s1.155-0.512,1.995-0.512h1.254V52.89c0-0.371-0.113-0.666-0.34-0.883s-0.547-0.324-0.961-0.324
		c-0.375,0-0.678,0.094-0.908,0.281s-0.346,0.412-0.346,0.674l-1.096,0.012l-0.012-0.035c-0.027-0.461,0.188-0.883,0.647-1.266
		s1.052-0.574,1.778-0.574c0.719,0,1.297,0.182,1.734,0.547s0.656,0.893,0.656,1.58v3.053c0,0.227,0.012,0.445,0.035,0.656
		s0.066,0.418,0.129,0.621H56.766z M54.85,56.388c0.418,0,0.795-0.107,1.131-0.322s0.555-0.461,0.656-0.738v-1.031h-1.295
		c-0.465,0-0.837,0.117-1.116,0.352s-0.419,0.51-0.419,0.826c0,0.281,0.088,0.504,0.264,0.668S54.506,56.388,54.85,56.388z"/>
	<path fill="#3C3241" d="M61.072,49.363v1.529h1.201v0.855h-1.201v3.85c0,0.297,0.062,0.506,0.185,0.627s0.286,0.182,0.489,0.182
		c0.066,0,0.141-0.01,0.223-0.027s0.15-0.035,0.205-0.055l0.158,0.791c-0.086,0.07-0.213,0.127-0.381,0.172
		s-0.334,0.068-0.498,0.068c-0.469,0-0.842-0.143-1.119-0.426s-0.416-0.727-0.416-1.332v-3.85H58.91v-0.855h1.008v-1.529H61.072z"/>
	<path fill="#3C3241" d="M64.758,49.269h-1.154v-1.178h1.154V49.269z M64.758,57.232h-1.154v-6.34h1.154V57.232z"/>
	<path fill="#3C3241" d="M66.264,54.003c0-0.938,0.254-1.711,0.762-2.318s1.197-0.91,2.068-0.91c0.879,0,1.573,0.303,2.083,0.908
		s0.765,1.379,0.765,2.32v0.129c0,0.945-0.254,1.719-0.762,2.32s-1.199,0.902-2.074,0.902s-1.567-0.303-2.077-0.906
		s-0.765-1.375-0.765-2.316V54.003z M67.418,54.132c0,0.672,0.142,1.227,0.425,1.664s0.704,0.656,1.263,0.656
		c0.551,0,0.969-0.219,1.254-0.656s0.428-0.992,0.428-1.664v-0.129c0-0.664-0.144-1.217-0.431-1.658s-0.708-0.662-1.263-0.662
		c-0.551,0-0.968,0.221-1.251,0.662s-0.425,0.994-0.425,1.658V54.132z"/>
	<path fill="#3C3241" d="M74.385,50.892l0.082,0.943c0.211-0.336,0.476-0.598,0.794-0.783s0.681-0.277,1.087-0.277
		c0.684,0,1.213,0.199,1.588,0.6s0.563,1.02,0.563,1.855v4.002h-1.154v-3.979c0-0.559-0.11-0.955-0.331-1.189
		s-0.558-0.352-1.011-0.352c-0.355,0-0.657,0.07-0.905,0.213s-0.444,0.344-0.589,0.602v4.705h-1.154v-6.34H74.385z"/>
</g>
</svg>
