<?xml version="1.0" encoding="utf-8"?>
<!-- Generator: Adobe Illustrator 16.0.0, SVG Export Plug-In . SVG Version: 6.00 Build 0)  -->
<!DOCTYPE svg PUBLIC "-//W3C//DTD SVG 1.1//EN" "http://www.w3.org/Graphics/SVG/1.1/DTD/svg11.dtd">
<svg version="1.1" id="Calque_1" xmlns="http://www.w3.org/2000/svg" xmlns:xlink="http://www.w3.org/1999/xlink" x="0px" y="0px"
	 width="58.174px" height="60.985px" viewBox="0 0 58.174 60.985" enable-background="new 0 0 58.174 60.985" xml:space="preserve">
<g>
	<g>
		<path fill="#3C3241" d="M47.759,31.251c-5.469,0-10.836,0-16.28,0c0-8.734,0-17.432,0-26.184c5.41,0,10.805,0,16.28,0
			C47.759,13.777,47.759,22.47,47.759,31.251z"/>
		<path fill="#3C3241" d="M38.111,36.966c-5.858,0-11.716,0.004-17.575,0c-1.797-0.002-2.001-0.15-2.55-1.898
			c-2.574-8.203-5.152-16.408-7.693-24.625c-0.2-0.649-0.453-0.86-1.128-0.85C6.786,9.634,4.407,9.671,2.031,9.559
			C1.414,9.53,0.626,9.106,0.261,8.609C-0.435,7.66,0.35,6.265,1.593,6.237c3.238-0.067,6.477-0.04,9.718-0.021
			c0.979,0.007,1.436,0.667,1.703,1.53c1.526,4.926,3.063,9.852,4.596,14.778c1.039,3.352,2.108,6.695,3.098,10.059
			c0.229,0.779,0.565,1,1.354,0.998c10.993-0.025,21.988-0.021,32.98-0.021c0.448,0,0.898-0.018,1.345,0.008
			c1.064,0.072,1.762,0.725,1.786,1.645c0.028,0.973-0.653,1.713-1.764,1.734c-2.344,0.045-4.688,0.02-7.029,0.02
			C45.624,36.966,41.867,36.966,38.111,36.966z"/>
		<path fill="#3C3241" d="M50.406,5.021c1.468,0,2.845-0.04,4.219,0.011c1.488,0.054,2.522,1.118,2.524,2.597
			c0.019,7.024,0.015,14.049,0.003,21.073c-0.003,1.37-1.033,2.471-2.474,2.555c-1.399,0.082-2.81,0.018-4.272,0.018
			C50.406,22.491,50.406,13.777,50.406,5.021z"/>
		<path fill="#3C3241" d="M28.8,31.285c-1.434,0-2.777,0.049-4.114-0.016c-1.613-0.072-2.589-1.117-2.593-2.761
			c-0.021-6.856-0.027-13.712-0.012-20.568c0.003-1.99,0.961-2.907,2.926-2.924c1.235-0.009,2.472-0.001,3.792-0.001
			C28.8,13.781,28.8,22.474,28.8,31.285z"/>
		<path fill="#86C440" d="M30.012,46.652c-2.362,0.012-4.121-1.656-4.148-3.928c-0.025-2.26,1.773-4.051,4.061-4.051
			c2.381,0,4.271,1.773,4.241,4.004C34.14,44.574,32.51,46.777,30.012,46.652z"/>
		<path fill="#86C440" d="M45.707,46.664c-2.246-0.059-4.114-1.752-4.072-3.689c0.058-2.605,1.725-4.332,4.141-4.291
			c2.444,0.039,4.206,1.828,4.126,4.186C49.828,45.029,47.958,46.718,45.707,46.664z"/>
		<path fill="#86C440" d="M47.191,3.999c-0.823,0-1.58,0.014-2.331-0.011c-0.182-0.004-0.466-0.085-0.52-0.209
			c-0.431-0.992-1.283-0.89-2.113-0.889c-1.896,0.006-3.794,0-5.69,0.004C35.903,2.896,35.291,2.92,35,3.663
			c-0.063,0.162-0.35,0.318-0.539,0.325c-0.819,0.037-1.639,0.018-2.463,0.018c0.193-2.35,1.732-3.916,3.94-3.965
			c2.479-0.055,4.963-0.055,7.445,0.006C45.553,0.102,47.188,1.802,47.191,3.999z"/>
	</g>
</g>
<g enable-background="new    ">
	<path fill="#3C3241" d="M9.269,49.204H6.222v8.258h-1.25v-8.258H1.963v-0.984h7.306V49.204z"/>
	<path fill="#3C3241" d="M9.491,53.963c0-1.016,0.275-1.852,0.825-2.51s1.297-0.987,2.241-0.987c0.951,0,1.703,0.328,2.256,0.983
		c0.553,0.656,0.828,1.494,0.828,2.514v0.141c0,1.023-0.274,1.861-0.824,2.514c-0.551,0.651-1.3,0.977-2.248,0.977
		c-0.947,0-1.697-0.326-2.25-0.98c-0.553-0.653-0.828-1.49-0.828-2.51V53.963z M10.741,54.104c0,0.728,0.154,1.328,0.461,1.803
		c0.307,0.474,0.763,0.711,1.367,0.711c0.598,0,1.05-0.237,1.359-0.711c0.309-0.475,0.463-1.075,0.463-1.803v-0.141
		c0-0.719-0.156-1.317-0.467-1.796s-0.767-0.718-1.367-0.718c-0.598,0-1.049,0.239-1.355,0.718s-0.461,1.077-0.461,1.796V54.104z"/>
	<path fill="#3C3241" d="M21.532,56.446c-0.215,0.368-0.492,0.651-0.831,0.851s-0.729,0.298-1.175,0.298
		c-0.748,0-1.332-0.238-1.752-0.717c-0.418-0.479-0.628-1.223-0.628-2.234v-4.05h1.251v4.063c0,0.732,0.107,1.235,0.323,1.511
		s0.552,0.412,1.009,0.412c0.445,0,0.813-0.09,1.102-0.27c0.29-0.18,0.51-0.435,0.657-0.765v-4.951h1.251v6.868h-1.124
		L21.532,56.446z"/>
	<path fill="#3C3241" d="M27.811,51.698l-0.642-0.038c-0.33,0-0.607,0.078-0.834,0.235c-0.227,0.156-0.401,0.376-0.523,0.66v4.906
		h-1.251v-6.868h1.117l0.12,1.003c0.195-0.355,0.436-0.633,0.721-0.832c0.285-0.198,0.615-0.298,0.987-0.298
		c0.093,0,0.183,0.008,0.267,0.022s0.154,0.03,0.209,0.047L27.811,51.698z"/>
	<path fill="#3C3241" d="M30.464,48.834h-1.25v-1.275h1.25V48.834z M30.464,57.461h-1.25v-6.868h1.25V57.461z"/>
	<path fill="#3C3241" d="M36.38,55.614c0-0.274-0.104-0.499-0.314-0.672c-0.209-0.174-0.605-0.326-1.189-0.457
		c-0.809-0.174-1.43-0.417-1.863-0.73s-0.65-0.732-0.65-1.257c0-0.559,0.237-1.037,0.714-1.435c0.476-0.397,1.093-0.597,1.851-0.597
		c0.778,0,1.408,0.212,1.891,0.635s0.713,0.916,0.692,1.479l-0.013,0.037h-1.193c0-0.296-0.13-0.564-0.391-0.806
		c-0.26-0.241-0.589-0.362-0.986-0.362c-0.44,0-0.77,0.1-0.987,0.299s-0.327,0.436-0.327,0.711c0,0.271,0.094,0.48,0.282,0.629
		c0.188,0.147,0.577,0.283,1.165,0.406c0.842,0.178,1.48,0.429,1.917,0.755S37.63,55,37.63,55.526c0,0.609-0.246,1.106-0.739,1.491
		s-1.138,0.577-1.933,0.577c-0.876,0-1.566-0.222-2.069-0.666s-0.743-0.963-0.718-1.555l0.014-0.039h1.193
		c0.021,0.445,0.186,0.77,0.494,0.975c0.31,0.205,0.672,0.309,1.086,0.309c0.444,0,0.793-0.095,1.044-0.283
		C36.254,56.146,36.38,55.907,36.38,55.614z"/>
	<path fill="#3C3241" d="M40.303,50.593l0.089,0.901c0.225-0.326,0.509-0.579,0.854-0.759c0.346-0.18,0.746-0.27,1.203-0.27
		s0.85,0.105,1.178,0.317s0.574,0.529,0.739,0.952c0.22-0.394,0.507-0.703,0.86-0.93s0.767-0.34,1.24-0.34
		c0.699,0,1.251,0.24,1.657,0.721s0.609,1.202,0.609,2.167v4.107h-1.251v-4.119c0-0.678-0.115-1.157-0.349-1.438
		s-0.579-0.422-1.041-0.422c-0.427,0-0.773,0.148-1.038,0.444c-0.264,0.296-0.42,0.671-0.467,1.123V53.1v4.361h-1.256v-4.119
		c0-0.644-0.12-1.114-0.359-1.413c-0.238-0.298-0.582-0.447-1.031-0.447c-0.381,0-0.693,0.078-0.939,0.235
		c-0.246,0.156-0.434,0.376-0.564,0.66v5.084h-1.251v-6.868H40.303z"/>
	<path fill="#3C3241" d="M53.392,57.594c-0.986,0-1.756-0.314-2.307-0.945c-0.553-0.631-0.829-1.46-0.829-2.488v-0.279
		c0-0.986,0.284-1.802,0.854-2.447c0.568-0.646,1.264-0.968,2.084-0.968c0.919,0,1.607,0.286,2.066,0.856
		c0.459,0.572,0.689,1.331,0.689,2.279v0.66h-4.393l-0.02,0.031c0,0.69,0.152,1.25,0.457,1.68s0.77,0.645,1.396,0.645
		c0.424,0,0.795-0.061,1.113-0.182c0.32-0.12,0.594-0.286,0.822-0.498l0.489,0.813c-0.245,0.237-0.569,0.437-0.972,0.6
		C54.443,57.513,53.958,57.594,53.392,57.594z M53.194,51.45c-0.436,0-0.797,0.169-1.082,0.505c-0.285,0.337-0.46,0.768-0.523,1.292
		l0.013,0.031h3.098v-0.102c0-0.499-0.122-0.911-0.368-1.237S53.707,51.45,53.194,51.45z"/>
</g>
</svg>
