<?xml version="1.0" encoding="utf-8"?>
<!-- Generator: Adobe Illustrator 16.0.0, SVG Export Plug-In . SVG Version: 6.00 Build 0)  -->
<!DOCTYPE svg PUBLIC "-//W3C//DTD SVG 1.1//EN" "http://www.w3.org/Graphics/SVG/1.1/DTD/svg11.dtd">
<svg version="1.1" id="Calque_1" xmlns="http://www.w3.org/2000/svg" xmlns:xlink="http://www.w3.org/1999/xlink" x="0px" y="0px"
	 width="68.996px" height="57.417px" viewBox="0 0 68.996 57.417" enable-background="new 0 0 68.996 57.417" xml:space="preserve">
<g>
	<g>
		<path fill="#3C3241" d="M9.995,12.044C9.91,10.607,9.231,0.802,9.231,0.802L9.183,0.786L9.14,0.802L8.676,9.883
			c0,0-0.006,0.143-0.148,0.143c-0.139,0-0.141-0.143-0.141-0.143L7.874,0.807l-0.05-0.021L7.776,0.807L7.281,9.881
			c0,0-0.003,0.145-0.134,0.145c-0.128,0-0.133-0.145-0.133-0.145L6.52,0.807L6.473,0.79l-0.05,0.017L5.909,9.883
			c0,0-0.006,0.143-0.142,0.143S5.621,9.883,5.621,9.883L5.157,0.802L5.111,0.786L5.066,0.802c0,0-0.679,9.805-0.766,11.243
			c-0.008,0.139,0.065,0.223,0.186,0.264c0.428,0.137,1.438,0.68,2.063,2.234c0.691,1.604-0.688,20.553-1.059,24.656
			c-0.092,1.02,0.303,2.465,1.657,3.375l0,0c1.356-0.91,1.752-2.355,1.659-3.375c-0.374-4.102-1.752-23.053-1.063-24.655
			c0.626-1.556,1.638-2.097,2.063-2.235C9.933,12.267,10.002,12.183,9.995,12.044z M5.809,39.058
			c0.071-0.801,0.163-1.051,0.163-1.051s-0.116,1.318,0.033,2.01c0.113,0.6,0.349,1.232,1.123,2.213
			C6.005,41.316,5.723,40.003,5.809,39.058z M9.629,12.197c-0.427,0.139-1.438,0.618-2.063,2.174c0,0,0.281-1.145,1.441-2.064
			c0.159-0.125,0.551-0.396,0.588-0.715c0.04-0.355,0.038-0.97,0.017-2.451c0.101,1.322,0.18,2.387,0.204,2.795
			C9.822,12.07,9.754,12.154,9.629,12.197z"/>
		<path fill="#3C3241" d="M64.683,39.199c-0.19-2.102-0.661-10.696-0.762-18.713c0.606-8.15,0.08-17.105,0.175-18.545
			c0.103-1.547-1.15-1.774-2.228,0.164c-1.774,3.198-2.432,13.077-0.172,18.131c0.034,0.119,0.061,0.168,0.085,0.282
			c0.523,2.396-0.061,14.767-0.413,18.683c-0.093,1.02,0.302,2.465,1.658,3.375l0,0C64.381,41.664,64.775,40.218,64.683,39.199z
			 M61.673,3.182c0,0,0.021-0.225,0.277-0.725c0.63-1.24,1.262-1.668,1.705-1.47c-0.466-0.024-0.854,0.349-1.189,0.806
			C62.003,2.417,61.673,3.182,61.673,3.182z M62.246,20.818c-0.265,0-0.333-0.277-0.333-0.384c0,0,0.147,0.138,0.355,0.138h1.414
			c0.175,0,0.169,0.246-0.007,0.246H62.246z M63.069,42.173c0.775-0.977,1.011-1.611,1.12-2.209
			c0.156-0.693,0.036-2.012,0.036-2.012s0.09,0.25,0.165,1.053C64.476,39.949,64.191,41.261,63.069,42.173z"/>
		<g>
			<g>
				<circle fill="#3C3241" cx="33.616" cy="20.927" r="20.927"/>
			</g>
		</g>
		<g>
			<path fill="#86C440" d="M33.616,38.078c-9.458,0-17.152-7.692-17.152-17.15S24.158,3.775,33.616,3.775
				c9.457,0,17.152,7.694,17.152,17.152S43.071,38.078,33.616,38.078z"/>
		</g>
	</g>
</g>
<g enable-background="new    ">
	<path fill="#3C3241" d="M6.495,56.132c-0.205,0.32-0.562,0.615-1.069,0.883c-0.508,0.27-1.166,0.402-1.976,0.402
		c-0.996,0-1.82-0.328-2.472-0.988C0.326,55.769,0,54.916,0,53.869v-1.777c0-1.047,0.314-1.9,0.942-2.561
		c0.629-0.66,1.439-0.99,2.431-0.99c0.96,0,1.718,0.256,2.275,0.768c0.557,0.512,0.828,1.162,0.813,1.953l-0.013,0.035h-1.12
		c0-0.525-0.17-0.963-0.51-1.313s-0.821-0.525-1.445-0.525c-0.66,0-1.192,0.248-1.595,0.742c-0.403,0.492-0.604,1.119-0.604,1.879
		v1.789c0,0.768,0.214,1.398,0.641,1.895c0.427,0.494,0.972,0.742,1.636,0.742c0.509,0,0.913-0.066,1.212-0.197
		c0.298-0.133,0.521-0.291,0.666-0.473v-1.943H3.373V52.98h3.122V56.132z"/>
	<path fill="#3C3241" d="M12.292,57.294c-0.04-0.193-0.071-0.365-0.093-0.514s-0.034-0.297-0.038-0.447
		c-0.217,0.309-0.5,0.566-0.85,0.773c-0.351,0.207-0.726,0.311-1.129,0.311c-0.669,0-1.177-0.17-1.526-0.512
		c-0.351-0.342-0.525-0.813-0.525-1.414c0-0.611,0.248-1.09,0.744-1.436s1.169-0.52,2.019-0.52h1.268v-0.633
		c0-0.377-0.114-0.674-0.343-0.893c-0.23-0.219-0.554-0.33-0.973-0.33c-0.379,0-0.686,0.096-0.919,0.285s-0.35,0.416-0.35,0.682
		L8.469,52.66l-0.012-0.035c-0.027-0.467,0.191-0.893,0.655-1.281c0.465-0.387,1.063-0.58,1.799-0.58
		c0.727,0,1.312,0.186,1.754,0.555s0.664,0.9,0.664,1.596v3.088c0,0.229,0.012,0.451,0.035,0.664s0.067,0.424,0.131,0.629H12.292z
		 M10.354,56.441c0.424,0,0.805-0.109,1.144-0.326c0.34-0.217,0.562-0.467,0.664-0.746v-1.043h-1.31
		c-0.471,0-0.846,0.117-1.129,0.355c-0.282,0.236-0.424,0.516-0.424,0.834c0,0.285,0.089,0.51,0.268,0.676
		C9.743,56.357,10.006,56.441,10.354,56.441z"/>
	<path fill="#3C3241" d="M18.751,55.57c0-0.258-0.097-0.467-0.294-0.629c-0.194-0.162-0.564-0.305-1.11-0.426
		c-0.755-0.162-1.335-0.389-1.739-0.682C15.202,53.541,15,53.15,15,52.66c0-0.521,0.223-0.969,0.668-1.34
		c0.442-0.371,1.019-0.557,1.727-0.557c0.728,0,1.315,0.197,1.766,0.592c0.451,0.396,0.666,0.855,0.646,1.383l-0.013,0.033H18.68
		c0-0.275-0.12-0.525-0.364-0.752c-0.243-0.225-0.549-0.338-0.921-0.338c-0.41,0-0.719,0.094-0.921,0.279
		c-0.204,0.186-0.307,0.406-0.307,0.664c0,0.252,0.089,0.447,0.265,0.586c0.175,0.139,0.538,0.266,1.087,0.381
		c0.787,0.166,1.383,0.398,1.79,0.703s0.61,0.701,0.61,1.193c0,0.568-0.23,1.031-0.69,1.391s-1.062,0.539-1.805,0.539
		c-0.817,0-1.462-0.207-1.932-0.621c-0.471-0.416-0.693-0.898-0.67-1.451l0.012-0.037h1.114c0.021,0.416,0.173,0.719,0.462,0.91
		s0.627,0.287,1.014,0.287c0.415,0,0.74-0.088,0.976-0.264S18.751,55.843,18.751,55.57z"/>
	<path fill="#3C3241" d="M22.994,49.333v1.549h1.216v0.865h-1.216v3.893c0,0.301,0.063,0.512,0.188,0.635
		c0.125,0.121,0.289,0.184,0.495,0.184c0.067,0,0.142-0.01,0.225-0.027s0.152-0.037,0.207-0.057l0.16,0.801
		c-0.087,0.07-0.215,0.129-0.385,0.176c-0.17,0.045-0.338,0.066-0.504,0.066c-0.474,0-0.852-0.143-1.132-0.43
		c-0.28-0.285-0.421-0.734-0.421-1.348v-3.893h-1.02v-0.865h1.02v-1.549H22.994z"/>
	<path fill="#3C3241" d="M28.494,51.914l-0.599-0.037c-0.308,0-0.567,0.074-0.779,0.221c-0.21,0.146-0.375,0.352-0.488,0.615v4.582
		H25.46v-6.412h1.043l0.113,0.936c0.182-0.332,0.405-0.59,0.673-0.777c0.266-0.184,0.573-0.277,0.921-0.277
		c0.087,0,0.17,0.008,0.249,0.021s0.145,0.027,0.195,0.043L28.494,51.914z"/>
	<path fill="#3C3241" d="M29.318,54.029c0-0.949,0.257-1.729,0.771-2.344c0.513-0.615,1.211-0.922,2.093-0.922
		c0.888,0,1.59,0.307,2.105,0.918c0.517,0.613,0.773,1.395,0.773,2.348v0.131c0,0.955-0.256,1.738-0.77,2.346
		c-0.515,0.609-1.214,0.912-2.099,0.912s-1.585-0.305-2.101-0.914c-0.517-0.611-0.773-1.393-0.773-2.344V54.029z M30.485,54.16
		c0,0.68,0.144,1.24,0.431,1.684c0.286,0.441,0.712,0.662,1.276,0.662c0.558,0,0.979-0.221,1.269-0.662
		c0.288-0.443,0.433-1.004,0.433-1.684v-0.131c0-0.672-0.146-1.23-0.436-1.678c-0.29-0.447-0.716-0.67-1.276-0.67
		c-0.559,0-0.979,0.223-1.266,0.67c-0.287,0.447-0.431,1.006-0.431,1.678V54.16z"/>
	<path fill="#3C3241" d="M37.532,50.882l0.083,0.953c0.213-0.34,0.481-0.604,0.803-0.791c0.322-0.188,0.688-0.281,1.1-0.281
		c0.691,0,1.227,0.203,1.606,0.607c0.379,0.404,0.568,1.029,0.568,1.875v4.049h-1.167v-4.025c0-0.564-0.112-0.965-0.336-1.203
		c-0.222-0.236-0.563-0.355-1.021-0.355c-0.36,0-0.665,0.072-0.916,0.217c-0.25,0.145-0.449,0.346-0.595,0.607v4.76h-1.168v-6.412
		H37.532z"/>
	<path fill="#3C3241" d="M43.115,54.029c0-0.949,0.257-1.729,0.77-2.344c0.514-0.615,1.211-0.922,2.093-0.922
		c0.889,0,1.59,0.307,2.106,0.918c0.516,0.613,0.773,1.395,0.773,2.348v0.131c0,0.955-0.257,1.738-0.77,2.346
		c-0.515,0.609-1.214,0.912-2.1,0.912c-0.884,0-1.584-0.305-2.101-0.914c-0.516-0.611-0.772-1.393-0.772-2.344V54.029z
		 M44.282,54.16c0,0.68,0.144,1.24,0.43,1.684c0.286,0.441,0.712,0.662,1.276,0.662c0.559,0,0.98-0.221,1.27-0.662
		c0.288-0.443,0.433-1.004,0.433-1.684v-0.131c0-0.672-0.146-1.23-0.437-1.678s-0.716-0.67-1.276-0.67
		c-0.558,0-0.979,0.223-1.266,0.67s-0.43,1.006-0.43,1.678V54.16z"/>
	<path fill="#3C3241" d="M51.329,50.882l0.083,0.842c0.209-0.305,0.475-0.541,0.797-0.709s0.696-0.252,1.123-0.252
		s0.793,0.098,1.1,0.297c0.307,0.197,0.536,0.494,0.69,0.889c0.205-0.367,0.473-0.656,0.803-0.869
		c0.33-0.211,0.716-0.316,1.158-0.316c0.652,0,1.168,0.225,1.547,0.672c0.38,0.449,0.569,1.123,0.569,2.023v3.836h-1.168v-3.846
		c0-0.633-0.107-1.08-0.326-1.344c-0.218-0.262-0.54-0.395-0.972-0.395c-0.398,0-0.722,0.139-0.969,0.416
		c-0.246,0.275-0.393,0.627-0.437,1.049v0.047v4.072h-1.172v-3.846c0-0.602-0.112-1.041-0.336-1.32
		c-0.223-0.277-0.543-0.418-0.963-0.418c-0.355,0-0.646,0.074-0.877,0.221c-0.229,0.146-0.404,0.352-0.526,0.617v4.746h-1.168
		v-6.412H51.329z"/>
	<path fill="#3C3241" d="M62.156,49.24h-1.168v-1.191h1.168V49.24z M62.156,57.294h-1.168v-6.412h1.168V57.294z"/>
	<path fill="#3C3241" d="M66.607,57.417c-0.921,0-1.64-0.293-2.154-0.883c-0.516-0.588-0.773-1.363-0.773-2.322v-0.262
		c0-0.92,0.265-1.682,0.798-2.283c0.53-0.604,1.18-0.904,1.945-0.904c0.858,0,1.501,0.268,1.929,0.799
		c0.429,0.535,0.645,1.244,0.645,2.129v0.615h-4.102l-0.018,0.029c0,0.645,0.142,1.168,0.426,1.568
		c0.285,0.402,0.719,0.602,1.305,0.602c0.396,0,0.742-0.057,1.039-0.168c0.299-0.113,0.555-0.268,0.768-0.465l0.457,0.758
		c-0.229,0.221-0.532,0.408-0.907,0.561C67.589,57.341,67.136,57.417,66.607,57.417z M66.423,51.681
		c-0.406,0-0.744,0.158-1.011,0.471c-0.266,0.314-0.429,0.717-0.488,1.207l0.012,0.029h2.893v-0.096c0-0.465-0.114-0.85-0.344-1.154
		C67.254,51.833,66.901,51.681,66.423,51.681z"/>
</g>
</svg>
