<?xml version="1.0" encoding="utf-8"?>
<!-- Generator: Adobe Illustrator 22.0.1, SVG Export Plug-In . SVG Version: 6.00 Build 0)  -->
<svg version="1.1" id="Calque_1" xmlns="http://www.w3.org/2000/svg" xmlns:xlink="http://www.w3.org/1999/xlink" x="0px" y="0px"
	 viewBox="0 0 161 45" style="enable-background:new 0 0 161 45;" xml:space="preserve">
<style type="text/css">
	.st0{fill:#D7D5D8;}
	.st1{fill:#86C440;}
</style>
<g>
	<path class="st0" d="M10.4,17.1v25.7H8.9V17.1H2v-1.5h15.3v1.5H10.4z"/>
	<path class="st0" d="M65.1,19.3c2.7,2.7,4.1,6,4.1,9.9s-1.4,7.2-4.1,9.9c-2.7,2.7-6,4.1-9.9,4.1c-3.9,0-7.2-1.4-9.9-4.1
		c-2.7-2.7-4.1-6-4.1-9.9s1.4-7.2,4.1-9.9c2.7-2.7,6-4.1,9.9-4.1C59.1,15.2,62.4,16.6,65.1,19.3z M55.2,16.8c-3.4,0-6.4,1.2-8.8,3.6
		c-2.4,2.4-3.6,5.4-3.6,8.8c0,3.4,1.2,6.4,3.6,8.8c2.4,2.4,5.4,3.6,8.8,3.6c3.4,0,6.4-1.2,8.8-3.6c2.4-2.4,3.6-5.4,3.6-8.8
		c0-3.4-1.2-6.4-3.6-8.8C61.6,18,58.7,16.8,55.2,16.8z"/>
	<path class="st0" d="M90.2,15.6h1.6v19.6c-0.3,2.1-1.2,3.8-2.6,5.3c-1.7,1.7-3.8,2.6-6.3,2.6c-2.5,0-4.6-0.9-6.3-2.6
		c-1.7-1.7-2.6-3.8-2.6-6.3V15.6h1.6v18.6c0,2,0.7,3.8,2.2,5.2c1.4,1.4,3.2,2.2,5.2,2.2c2,0,3.8-0.7,5.2-2.2
		c1.4-1.4,2.1-3.2,2.1-5.2V15.6z"/>
	<path class="st0" d="M139.3,15.6v1.5h-12.1v11.3h12.1V30h-12.1v11.3h12.1v1.5h-13.6V15.6H139.3z"/>
	<path class="st0" d="M150.6,33.4c-0.1,0-0.3,0-0.5,0h-4.6v9.5h-1.5V15.6h7.2c2.1,0.3,3.8,1.2,5.3,2.6c1.7,1.7,2.6,3.8,2.6,6.3
		c0,2.5-0.9,4.6-2.6,6.3c-1.2,1.2-2.6,2-4.1,2.4l6.3,9.7h-1.9L150.6,33.4z M145.5,17.2v14.7h4.6c2,0,3.8-0.7,5.2-2.2
		c1.4-1.4,2.2-3.2,2.2-5.2c0-2-0.7-3.8-2.2-5.2c-1.4-1.4-3.2-2.1-5.2-2.1H145.5z"/>
	<path class="st1" d="M37.7,42.9l-6.2-9.6c1.2-0.5,2.3-1.2,3.3-2.2c1.9-1.9,2.8-4.1,2.8-6.7c0-2.6-0.9-4.9-2.8-6.7
		c-1.9-1.9-4.1-2.8-6.7-2.8c-2.6,0-4.9,0.9-6.7,2.8c-1.9,1.9-2.8,4.1-2.8,6.7c0,2.6,0.9,4.9,2.8,6.7c0.5,0.5,1.1,1,1.7,1.4v10.4h1.5
		v-9.7c1.1,0.4,2.2,0.6,3.5,0.6c0.6,0,1.2-0.1,1.8-0.2l5.9,9.2H37.7z M22.4,30c-1.6-1.6-2.4-3.5-2.4-5.7c0-2.2,0.8-4.1,2.4-5.7
		c1.6-1.6,3.5-2.4,5.7-2.4c2.2,0,4.1,0.8,5.7,2.4c1.6,1.6,2.4,3.5,2.4,5.7c0,2.2-0.8,4.1-2.4,5.7c-1.6,1.6-3.5,2.4-5.7,2.4
		C25.9,32.4,24,31.6,22.4,30z"/>
	<polygon class="st1" points="103.7,40.4 96.4,24.3 94.8,24.3 103.7,43.5 121.5,1.5 119.9,1.5 	"/>
</g>
</svg>
